<?xml version="1.0" encoding="UTF-8" standalone="no"?><svg xmlns="http://www.w3.org/2000/svg" xmlns:xlink="http://www.w3.org/1999/xlink" clip-rule="evenodd" stroke-miterlimit="10" viewBox="0 0 1024 768"><desc>SVG generated by Keynote</desc><defs></defs><g transform="matrix(1.00, 0.00, -0.00, -1.00, 0.0, 768.0)"><g><clipPath id="clip0x6080014b1940"><path d="M 0.0 768.0 L 1024.0 768.0 L 1024.0 0.0 L 0.0 0.0 Z M 0.0 768.0 "></path></clipPath><g clip-path="url(#clip0x6080014b1940)"><image xlink:href="../../AA67522E-33CB-4827-90AD-B35304285A38/assets/527288347077A8BC66C9A53B775387A8.jpeg" width="2048.00" height="1536.00" transform="matrix(0.50, 0.00, -0.00, -0.50, 0.0, 768.0)"></image></g></g><text xml:space="preserve" font-family="GillSans-Light,Gill Sans" font-size="72.0" fill="#525252" transform="matrix(1.00, 0.00, -0.00, -1.00, 364.6, 628.2)">E</text><text xml:space="preserve" font-family="GillSans-Light,Gill Sans" font-size="72.0" fill="#525252" transform="matrix(1.00, 0.00, -0.00, -1.00, 399.9, 628.2)">X</text><text xml:space="preserve" font-family="GillSans-Light,Gill Sans" font-size="72.0" fill="#525252" transform="matrix(1.00, 0.00, -0.00, -1.00, 449.4, 628.2)">A</text><text xml:space="preserve" font-family="GillSans-Light,Gill Sans" font-size="72.0" fill="#525252" transform="matrix(1.00, 0.00, -0.00, -1.00, 497.4, 628.2)">M</text><text xml:space="preserve" font-family="GillSans-Light,Gill Sans" font-size="72.0" fill="#525252" transform="matrix(1.00, 0.00, -0.00, -1.00, 553.6, 628.2)">P</text><text xml:space="preserve" font-family="GillSans-Light,Gill Sans" font-size="72.0" fill="#525252" transform="matrix(1.00, 0.00, -0.00, -1.00, 590.3, 628.2)">L</text><text xml:space="preserve" font-family="GillSans-Light,Gill Sans" font-size="72.0" fill="#525252" transform="matrix(1.00, 0.00, -0.00, -1.00, 624.1, 628.2)">E</text><image xlink:href="../../270A1790-7466-478F-9D55-B8AA4CA72744/assets/6B63A6CA4FB15544EBE123AF1BF1B8F2.png" width="225.00" height="320.00" transform="matrix(1.00, 0.00, -0.00, -1.00, 185.0, 586.0)"></image><image xlink:href="../../270A1790-7466-478F-9D55-B8AA4CA72744/assets/0841B05B6B1337EA507ED9C8E688D8E8.png" width="484.00" height="336.00" transform="matrix(1.00, 0.00, -0.00, -1.00, 434.0, 385.0)"></image><path d="M 0.0 0.0 C 66.4 5.7 122.7 24.1 168.7 55.2 L 171.1 57.0 " fill="none" stroke="#AA1802" stroke-width="6.00" transform="matrix(1.00, 0.00, 0.00, -1.00, 380.6, 454.5)"></path><path d="M 542.2 389.6 L 568.6 385.0 L 556.4 408.9 Z M 542.2 389.6 " fill="#AA1802"></path><text xml:space="preserve" font-family="GillSans-Bold,Gill Sans" font-weight="bold" font-size="36.0" fill="#525252" transform="matrix(1.00, 0.00, -0.00, -1.00, 502.3, 460.5)">N</text><text xml:space="preserve" font-family="GillSans-Bold,Gill Sans" font-weight="bold" font-size="36.0" fill="#525252" transform="matrix(1.00, 0.00, -0.00, -1.00, 534.9, 460.5)">e</text><text xml:space="preserve" font-family="GillSans-Bold,Gill Sans" font-weight="bold" font-size="36.0" fill="#525252" transform="matrix(1.00, 0.00, -0.00, -1.00, 556.9, 460.5)">w</text><text xml:space="preserve" font-family="GillSans-Bold,Gill Sans" font-weight="bold" font-size="36.0" fill="#525252" transform="matrix(1.00, 0.00, -0.00, -1.00, 587.6, 460.5)"> </text><text xml:space="preserve" font-family="GillSans-Bold,Gill Sans" font-weight="bold" font-size="36.0" fill="#525252" transform="matrix(1.00, 0.00, -0.00, -1.00, 598.3, 460.5)">F</text><text xml:space="preserve" font-family="GillSans-Bold,Gill Sans" font-weight="bold" font-size="36.0" fill="#525252" transform="matrix(1.00, 0.00, -0.00, -1.00, 620.2, 460.5)">e</text><text xml:space="preserve" font-family="GillSans-Bold,Gill Sans" font-weight="bold" font-size="36.0" fill="#525252" transform="matrix(1.00, 0.00, -0.00, -1.00, 641.7, 460.5)">a</text><text xml:space="preserve" font-family="GillSans-Bold,Gill Sans" font-weight="bold" font-size="36.0" fill="#525252" transform="matrix(1.00, 0.00, -0.00, -1.00, 662.2, 460.5)">t</text><text xml:space="preserve" font-family="GillSans-Bold,Gill Sans" font-weight="bold" font-size="36.0" fill="#525252" transform="matrix(1.00, 0.00, -0.00, -1.00, 679.1, 460.5)">u</text><text xml:space="preserve" font-family="GillSans-Bold,Gill Sans" font-weight="bold" font-size="36.0" fill="#525252" transform="matrix(1.00, 0.00, -0.00, -1.00, 702.0, 460.5)">r</text><text xml:space="preserve" font-family="GillSans-Bold,Gill Sans" font-weight="bold" font-size="36.0" fill="#525252" transform="matrix(1.00, 0.00, -0.00, -1.00, 718.2, 460.5)">e</text></g></svg>