<?xml version="1.0" encoding="UTF-8" standalone="no"?><svg xmlns="http://www.w3.org/2000/svg" xmlns:xlink="http://www.w3.org/1999/xlink" clip-rule="evenodd" stroke-miterlimit="10" viewBox="0 0 1024 768"><desc>SVG generated by Keynote</desc><defs><radialGradient id="gradSh1.44" cx="0.0" cy="0.0" r="100.0" fx="0.0" fy="0.0" gradientUnits="userSpaceOnUse" gradientTransform="matrix(5.13, -3.85, -3.85, -5.13, 512.0, 384.0)"><stop offset="0.00000" stop-color="#565957"></stop><stop offset="0.00587" stop-color="#555957"></stop><stop offset="0.27419" stop-color="#3E413F"></stop><stop offset="0.27859" stop-color="#3E403F"></stop><stop offset="0.63416" stop-color="#1F2120"></stop><stop offset="0.63636" stop-color="#1F2020"></stop><stop offset="0.64003" stop-color="#1F201F"></stop><stop offset="0.64516" stop-color="#1E201F"></stop><stop offset="0.64809" stop-color="#1E1F1F"></stop><stop offset="0.65176" stop-color="#1E1F1E"></stop><stop offset="0.82038" stop-color="#0F1010"></stop><stop offset="0.82331" stop-color="#0F100F"></stop><stop offset="0.82698" stop-color="#0F0F0F"></stop><stop offset="0.83138" stop-color="#0E0F0F"></stop><stop offset="0.91496" stop-color="#070807"></stop><stop offset="0.91642" stop-color="#070707"></stop><stop offset="0.92449" stop-color="#060707"></stop><stop offset="0.96041" stop-color="#030403"></stop><stop offset="0.96114" stop-color="#030303"></stop><stop offset="0.97141" stop-color="#020303"></stop><stop offset="0.98314" stop-color="#010201"></stop><stop offset="0.98387" stop-color="#010101"></stop><stop offset="0.99487" stop-color="#000000"></stop><stop offset="1.00000" stop-color="#000000"></stop></radialGradient></defs><g transform="matrix(1.00, 0.00, -0.00, -1.00, 0.0, 768.0)"><g><clipPath id="clip0x600008eadaa0"><path d="M 0.0 768.0 L 1024.0 768.0 L 1024.0 0.0 L 0.0 0.0 Z M 0.0 768.0 "></path></clipPath><g clip-path="url(#clip0x600008eadaa0)"><path d="M 0.0 768.0 L 1024.0 768.0 L 1024.0 0.0 L 0.0 0.0 Z M 0.0 768.0 " fill="url(#gradSh1.44)"></path></g></g><image xlink:href="12F7847B29E9311A1B7E941BC7B7B2AA.png" width="525.00" height="62.00" transform="matrix(1.00, 0.00, -0.00, -1.00, 67.0, 678.0)"></image><text xml:space="preserve" font-family="HelveticaNeue-Light,Helvetica Neue" font-size="72.0" fill="#FEFFFE" transform="matrix(1.00, 0.00, -0.00, -1.00, 66.0, 624.4)">M</text><text xml:space="preserve" font-family="HelveticaNeue-Light,Helvetica Neue" font-size="72.0" fill="#FEFFFE" transform="matrix(1.00, 0.00, -0.00, -1.00, 125.1, 624.4)">o</text><text xml:space="preserve" font-family="HelveticaNeue-Light,Helvetica Neue" font-size="72.0" fill="#FEFFFE" transform="matrix(1.00, 0.00, -0.00, -1.00, 165.1, 624.4)">r</text><text xml:space="preserve" font-family="HelveticaNeue-Light,Helvetica Neue" font-size="72.0" fill="#FEFFFE" transform="matrix(1.00, 0.00, -0.00, -1.00, 186.5, 624.4)">e</text><text xml:space="preserve" font-family="HelveticaNeue-Light,Helvetica Neue" font-size="72.0" fill="#FEFFFE" transform="matrix(1.00, 0.00, -0.00, -1.00, 223.9, 624.4)"> </text><text xml:space="preserve" font-family="HelveticaNeue-Light,Helvetica Neue" font-size="72.0" fill="#FEFFFE" transform="matrix(1.00, 0.00, -0.00, -1.00, 243.9, 624.4)">G</text><text xml:space="preserve" font-family="HelveticaNeue-Light,Helvetica Neue" font-size="72.0" fill="#FEFFFE" transform="matrix(1.00, 0.00, -0.00, -1.00, 297.3, 624.4)">e</text><text xml:space="preserve" font-family="HelveticaNeue-Light,Helvetica Neue" font-size="72.0" fill="#FEFFFE" transform="matrix(1.00, 0.00, -0.00, -1.00, 334.6, 624.4)">n</text><text xml:space="preserve" font-family="HelveticaNeue-Light,Helvetica Neue" font-size="72.0" fill="#FEFFFE" transform="matrix(1.00, 0.00, -0.00, -1.00, 373.3, 624.4)">e</text><text xml:space="preserve" font-family="HelveticaNeue-Light,Helvetica Neue" font-size="72.0" fill="#FEFFFE" transform="matrix(1.00, 0.00, -0.00, -1.00, 410.7, 624.4)">r</text><text xml:space="preserve" font-family="HelveticaNeue-Light,Helvetica Neue" font-size="72.0" fill="#FEFFFE" transform="matrix(1.00, 0.00, -0.00, -1.00, 433.3, 624.4)">a</text><text xml:space="preserve" font-family="HelveticaNeue-Light,Helvetica Neue" font-size="72.0" fill="#FEFFFE" transform="matrix(1.00, 0.00, -0.00, -1.00, 470.7, 624.4)">t</text><text xml:space="preserve" font-family="HelveticaNeue-Light,Helvetica Neue" font-size="72.0" fill="#FEFFFE" transform="matrix(1.00, 0.00, -0.00, -1.00, 492.0, 624.4)">o</text><text xml:space="preserve" font-family="HelveticaNeue-Light,Helvetica Neue" font-size="72.0" fill="#FEFFFE" transform="matrix(1.00, 0.00, -0.00, -1.00, 532.1, 624.4)">r</text><text xml:space="preserve" font-family="HelveticaNeue-Light,Helvetica Neue" font-size="72.0" fill="#FEFFFE" transform="matrix(1.00, 0.00, -0.00, -1.00, 554.7, 624.4)">s</text><path d="M 62.0 550.0 L 962.0 550.0 L 962.0 287.0 L 62.0 287.0 Z M 62.0 550.0 " fill="#000000"></path><image xlink:href="D8DA5F759412CB63AA117B56E31225B6.png" width="274.00" height="38.00" transform="matrix(1.00, 0.00, -0.00, -1.00, 62.0, 538.0)"></image><g><clipPath id="clip0x6000094adbc0"><path d="M 52.4 276.2 L 971.6 276.2 L 971.6 555.6 L 52.4 555.6 Z M 52.4 276.2 "></path></clipPath><g clip-path="url(#clip0x6000094adbc0)"><text xml:space="preserve" font-family="HelveticaNeue-Light,Helvetica Neue" font-size="32.4" fill="#FEFFFE" transform="matrix(1.00, 0.00, -0.00, -1.00, 66.0, 513.8)">y</text><text xml:space="preserve" font-family="HelveticaNeue-Light,Helvetica Neue" font-size="32.4" fill="#FEFFFE" transform="matrix(1.00, 0.00, -0.00, -1.00, 81.0, 513.8)">o</text><text xml:space="preserve" font-family="HelveticaNeue-Light,Helvetica Neue" font-size="32.4" fill="#FEFFFE" transform="matrix(1.00, 0.00, -0.00, -1.00, 99.0, 513.8)"> </text><text xml:space="preserve" font-family="HelveticaNeue-Light,Helvetica Neue" font-size="32.4" fill="#FEFFFE" transform="matrix(1.00, 0.00, -0.00, -1.00, 108.0, 513.8)">e</text><text xml:space="preserve" font-family="HelveticaNeue-Light,Helvetica Neue" font-size="32.4" fill="#FEFFFE" transform="matrix(1.00, 0.00, -0.00, -1.00, 124.8, 513.8)">x</text><text xml:space="preserve" font-family="HelveticaNeue-Light,Helvetica Neue" font-size="32.4" fill="#FEFFFE" transform="matrix(1.00, 0.00, -0.00, -1.00, 140.4, 513.8)">p</text><text xml:space="preserve" font-family="HelveticaNeue-Light,Helvetica Neue" font-size="32.4" fill="#FEFFFE" transform="matrix(1.00, 0.00, -0.00, -1.00, 159.0, 513.8)">r</text><text xml:space="preserve" font-family="HelveticaNeue-Light,Helvetica Neue" font-size="32.4" fill="#FEFFFE" transform="matrix(1.00, 0.00, -0.00, -1.00, 168.6, 513.8)">e</text><text xml:space="preserve" font-family="HelveticaNeue-Light,Helvetica Neue" font-size="32.4" fill="#FEFFFE" transform="matrix(1.00, 0.00, -0.00, -1.00, 185.5, 513.8)">s</text><text xml:space="preserve" font-family="HelveticaNeue-Light,Helvetica Neue" font-size="32.4" fill="#FEFFFE" transform="matrix(1.00, 0.00, -0.00, -1.00, 201.0, 513.8)">s</text><text xml:space="preserve" font-family="HelveticaNeue-Light,Helvetica Neue" font-size="32.4" fill="#FEFFFE" transform="matrix(1.00, 0.00, -0.00, -1.00, 216.6, 513.8)">-</text><text xml:space="preserve" font-family="HelveticaNeue-Light,Helvetica Neue" font-size="32.4" fill="#FEFFFE" transform="matrix(1.00, 0.00, -0.00, -1.00, 228.6, 513.8)">a</text><text xml:space="preserve" font-family="HelveticaNeue-Light,Helvetica Neue" font-size="32.4" fill="#FEFFFE" transform="matrix(1.00, 0.00, -0.00, -1.00, 245.4, 513.8)">n</text><text xml:space="preserve" font-family="HelveticaNeue-Light,Helvetica Neue" font-size="32.4" fill="#FEFFFE" transform="matrix(1.00, 0.00, -0.00, -1.00, 262.8, 513.8)">g</text><text xml:space="preserve" font-family="HelveticaNeue-Light,Helvetica Neue" font-size="32.4" fill="#FEFFFE" transform="matrix(1.00, 0.00, -0.00, -1.00, 280.8, 513.8)">u</text><text xml:space="preserve" font-family="HelveticaNeue-Light,Helvetica Neue" font-size="32.4" fill="#FEFFFE" transform="matrix(1.00, 0.00, -0.00, -1.00, 298.2, 513.8)">l</text><text xml:space="preserve" font-family="HelveticaNeue-Light,Helvetica Neue" font-size="32.4" fill="#FEFFFE" transform="matrix(1.00, 0.00, -0.00, -1.00, 304.2, 513.8)">a</text><text xml:space="preserve" font-family="HelveticaNeue-Light,Helvetica Neue" font-size="32.4" fill="#FEFFFE" transform="matrix(1.00, 0.00, -0.00, -1.00, 321.1, 513.8)">r</text><text xml:space="preserve" font-family="HelveticaNeue-Light,Helvetica Neue" font-size="32.4" fill="#FEFFFE" transform="matrix(1.00, 0.00, -0.00, -1.00, 331.3, 513.8)"> </text><text xml:space="preserve" font-family="HelveticaNeue-Light,Helvetica Neue" font-size="32.4" fill="#FEFFFE" transform="matrix(1.00, 0.00, -0.00, -1.00, 340.3, 513.8)"> </text><text xml:space="preserve" font-family="HelveticaNeue-Light,Helvetica Neue" font-size="32.4" fill="#FEFFFE" transform="matrix(1.00, 0.00, -0.00, -1.00, 349.3, 513.8)"> </text></g></g><image xlink:href="BF45D7BB27C101DABA0ED95DE2B23E12.png" width="460.00" height="39.00" transform="matrix(1.00, 0.00, -0.00, -1.00, 353.0, 539.0)"></image><g><clipPath id="clip0x60800b0af900"><path d="M 52.4 276.2 L 971.6 276.2 L 971.6 555.6 L 52.4 555.6 Z M 52.4 276.2 "></path></clipPath><g clip-path="url(#clip0x60800b0af900)"><text xml:space="preserve" font-family="HelveticaNeue-Light,Helvetica Neue" font-size="32.4" fill="#A6AAA8" transform="matrix(1.00, 0.00, -0.00, -1.00, 358.3, 513.8)">/</text><text xml:space="preserve" font-family="HelveticaNeue-Light,Helvetica Neue" font-size="32.4" fill="#A6AAA8" transform="matrix(1.00, 0.00, -0.00, -1.00, 369.1, 513.8)">/</text><text xml:space="preserve" font-family="HelveticaNeue-Light,Helvetica Neue" font-size="32.4" fill="#A6AAA8" transform="matrix(1.00, 0.00, -0.00, -1.00, 379.9, 513.8)"> </text><text xml:space="preserve" font-family="HelveticaNeue-Light,Helvetica Neue" font-size="32.4" fill="#A6AAA8" transform="matrix(1.00, 0.00, -0.00, -1.00, 388.9, 513.8)">A</text><text xml:space="preserve" font-family="HelveticaNeue-Light,Helvetica Neue" font-size="32.4" fill="#A6AAA8" transform="matrix(1.00, 0.00, -0.00, -1.00, 409.3, 513.8)">n</text><text xml:space="preserve" font-family="HelveticaNeue-Light,Helvetica Neue" font-size="32.4" fill="#A6AAA8" transform="matrix(1.00, 0.00, -0.00, -1.00, 426.7, 513.8)">g</text><text xml:space="preserve" font-family="HelveticaNeue-Light,Helvetica Neue" font-size="32.4" fill="#A6AAA8" transform="matrix(1.00, 0.00, -0.00, -1.00, 444.7, 513.8)">u</text><text xml:space="preserve" font-family="HelveticaNeue-Light,Helvetica Neue" font-size="32.4" fill="#A6AAA8" transform="matrix(1.00, 0.00, -0.00, -1.00, 462.1, 513.8)">l</text><text xml:space="preserve" font-family="HelveticaNeue-Light,Helvetica Neue" font-size="32.4" fill="#A6AAA8" transform="matrix(1.00, 0.00, -0.00, -1.00, 468.1, 513.8)">a</text><text xml:space="preserve" font-family="HelveticaNeue-Light,Helvetica Neue" font-size="32.4" fill="#A6AAA8" transform="matrix(1.00, 0.00, -0.00, -1.00, 484.9, 513.8)">r</text><text xml:space="preserve" font-family="HelveticaNeue-Light,Helvetica Neue" font-size="32.4" fill="#A6AAA8" transform="matrix(1.00, 0.00, -0.00, -1.00, 495.1, 513.8)">J</text><text xml:space="preserve" font-family="HelveticaNeue-Light,Helvetica Neue" font-size="32.4" fill="#A6AAA8" transform="matrix(1.00, 0.00, -0.00, -1.00, 511.3, 513.8)">S</text><text xml:space="preserve" font-family="HelveticaNeue-Light,Helvetica Neue" font-size="32.4" fill="#A6AAA8" transform="matrix(1.00, 0.00, -0.00, -1.00, 531.7, 513.8)"> </text><text xml:space="preserve" font-family="HelveticaNeue-Light,Helvetica Neue" font-size="32.4" fill="#A6AAA8" transform="matrix(1.00, 0.00, -0.00, -1.00, 540.7, 513.8)">+</text><text xml:space="preserve" font-family="HelveticaNeue-Light,Helvetica Neue" font-size="32.4" fill="#A6AAA8" transform="matrix(1.00, 0.00, -0.00, -1.00, 560.2, 513.8)"> </text><text xml:space="preserve" font-family="HelveticaNeue-Light,Helvetica Neue" font-size="32.4" fill="#A6AAA8" transform="matrix(1.00, 0.00, -0.00, -1.00, 569.2, 513.8)">E</text><text xml:space="preserve" font-family="HelveticaNeue-Light,Helvetica Neue" font-size="32.4" fill="#A6AAA8" transform="matrix(1.00, 0.00, -0.00, -1.00, 588.4, 513.8)">x</text><text xml:space="preserve" font-family="HelveticaNeue-Light,Helvetica Neue" font-size="32.4" fill="#A6AAA8" transform="matrix(1.00, 0.00, -0.00, -1.00, 604.0, 513.8)">p</text><text xml:space="preserve" font-family="HelveticaNeue-Light,Helvetica Neue" font-size="32.4" fill="#A6AAA8" transform="matrix(1.00, 0.00, -0.00, -1.00, 622.6, 513.8)">r</text><text xml:space="preserve" font-family="HelveticaNeue-Light,Helvetica Neue" font-size="32.4" fill="#A6AAA8" transform="matrix(1.00, 0.00, -0.00, -1.00, 632.2, 513.8)">e</text><text xml:space="preserve" font-family="HelveticaNeue-Light,Helvetica Neue" font-size="32.4" fill="#A6AAA8" transform="matrix(1.00, 0.00, -0.00, -1.00, 649.0, 513.8)">s</text><text xml:space="preserve" font-family="HelveticaNeue-Light,Helvetica Neue" font-size="32.4" fill="#A6AAA8" transform="matrix(1.00, 0.00, -0.00, -1.00, 664.6, 513.8)">s</text><text xml:space="preserve" font-family="HelveticaNeue-Light,Helvetica Neue" font-size="32.4" fill="#A6AAA8" transform="matrix(1.00, 0.00, -0.00, -1.00, 680.2, 513.8)"> </text><text xml:space="preserve" font-family="HelveticaNeue-Light,Helvetica Neue" font-size="32.4" fill="#A6AAA8" transform="matrix(1.00, 0.00, -0.00, -1.00, 689.2, 513.8)">b</text><text xml:space="preserve" font-family="HelveticaNeue-Light,Helvetica Neue" font-size="32.4" fill="#A6AAA8" transform="matrix(1.00, 0.00, -0.00, -1.00, 707.8, 513.8)">a</text><text xml:space="preserve" font-family="HelveticaNeue-Light,Helvetica Neue" font-size="32.4" fill="#A6AAA8" transform="matrix(1.00, 0.00, -0.00, -1.00, 724.6, 513.8)">c</text><text xml:space="preserve" font-family="HelveticaNeue-Light,Helvetica Neue" font-size="32.4" fill="#A6AAA8" transform="matrix(1.00, 0.00, -0.00, -1.00, 741.4, 513.8)">k</text><text xml:space="preserve" font-family="HelveticaNeue-Light,Helvetica Neue" font-size="32.4" fill="#A6AAA8" transform="matrix(1.00, 0.00, -0.00, -1.00, 757.6, 513.8)">e</text><text xml:space="preserve" font-family="HelveticaNeue-Light,Helvetica Neue" font-size="32.4" fill="#A6AAA8" transform="matrix(1.00, 0.00, -0.00, -1.00, 774.4, 513.8)">n</text><text xml:space="preserve" font-family="HelveticaNeue-Light,Helvetica Neue" font-size="32.4" fill="#A6AAA8" transform="matrix(1.00, 0.00, -0.00, -1.00, 791.8, 513.8)">d</text></g></g><g><clipPath id="clip0x60800b0b0620"><path d="M 52.4 276.2 L 971.6 276.2 L 971.6 555.6 L 52.4 555.6 Z M 52.4 276.2 "></path></clipPath><g clip-path="url(#clip0x60800b0b0620)"><text xml:space="preserve" font-family="HelveticaNeue-Light,Helvetica Neue" font-size="32.4" fill="#FEFFFE" transform="matrix(1.00, 0.00, -0.00, -1.00, 810.4, 513.8)"> </text></g></g><image xlink:href="A68B9609E8DDE14A7162DCBBC34D5F5A.png" width="144.00" height="38.00" transform="matrix(1.00, 0.00, -0.00, -1.00, 62.0, 467.0)"></image><g><clipPath id="clip0x6000094ae640"><path d="M 52.4 276.2 L 971.6 276.2 L 971.6 555.6 L 52.4 555.6 Z M 52.4 276.2 "></path></clipPath><g clip-path="url(#clip0x6000094ae640)"><text xml:space="preserve" font-family="HelveticaNeue-Light,Helvetica Neue" font-size="32.4" fill="#FEFFFE" transform="matrix(1.00, 0.00, -0.00, -1.00, 66.0, 442.4)">y</text><text xml:space="preserve" font-family="HelveticaNeue-Light,Helvetica Neue" font-size="32.4" fill="#FEFFFE" transform="matrix(1.00, 0.00, -0.00, -1.00, 81.0, 442.4)">o</text><text xml:space="preserve" font-family="HelveticaNeue-Light,Helvetica Neue" font-size="32.4" fill="#FEFFFE" transform="matrix(1.00, 0.00, -0.00, -1.00, 99.0, 442.4)"> </text><text xml:space="preserve" font-family="HelveticaNeue-Light,Helvetica Neue" font-size="32.4" fill="#FEFFFE" transform="matrix(1.00, 0.00, -0.00, -1.00, 108.0, 442.4)">j</text><text xml:space="preserve" font-family="HelveticaNeue-Light,Helvetica Neue" font-size="32.4" fill="#FEFFFE" transform="matrix(1.00, 0.00, -0.00, -1.00, 114.0, 442.4)">e</text><text xml:space="preserve" font-family="HelveticaNeue-Light,Helvetica Neue" font-size="32.4" fill="#FEFFFE" transform="matrix(1.00, 0.00, -0.00, -1.00, 130.8, 442.4)">k</text><text xml:space="preserve" font-family="HelveticaNeue-Light,Helvetica Neue" font-size="32.4" fill="#FEFFFE" transform="matrix(1.00, 0.00, -0.00, -1.00, 147.0, 442.4)">y</text><text xml:space="preserve" font-family="HelveticaNeue-Light,Helvetica Neue" font-size="32.4" fill="#FEFFFE" transform="matrix(1.00, 0.00, -0.00, -1.00, 162.0, 442.4)">l</text><text xml:space="preserve" font-family="HelveticaNeue-Light,Helvetica Neue" font-size="32.4" fill="#FEFFFE" transform="matrix(1.00, 0.00, -0.00, -1.00, 168.0, 442.4)">l</text><text xml:space="preserve" font-family="HelveticaNeue-Light,Helvetica Neue" font-size="32.4" fill="#FEFFFE" transform="matrix(1.00, 0.00, -0.00, -1.00, 174.0, 442.4)">r</text><text xml:space="preserve" font-family="HelveticaNeue-Light,Helvetica Neue" font-size="32.4" fill="#FEFFFE" transform="matrix(1.00, 0.00, -0.00, -1.00, 184.2, 442.4)">b</text><text xml:space="preserve" font-family="HelveticaNeue-Light,Helvetica Neue" font-size="32.4" fill="#FEFFFE" transform="matrix(1.00, 0.00, -0.00, -1.00, 202.8, 442.4)"> </text><text xml:space="preserve" font-family="HelveticaNeue-Light,Helvetica Neue" font-size="32.4" fill="#FEFFFE" transform="matrix(1.00, 0.00, -0.00, -1.00, 211.8, 442.4)"> </text><text xml:space="preserve" font-family="HelveticaNeue-Light,Helvetica Neue" font-size="32.4" fill="#FEFFFE" transform="matrix(1.00, 0.00, -0.00, -1.00, 220.8, 442.4)"> </text><text xml:space="preserve" font-family="HelveticaNeue-Light,Helvetica Neue" font-size="32.4" fill="#FEFFFE" transform="matrix(1.00, 0.00, -0.00, -1.00, 229.8, 442.4)"> </text></g></g><image xlink:href="8869506F68EEFC63BBC885503B9F121F.png" width="308.00" height="40.00" transform="matrix(1.00, 0.00, -0.00, -1.00, 234.0, 468.0)"></image><g><clipPath id="clip0x60800b0b0980"><path d="M 52.4 276.2 L 971.6 276.2 L 971.6 555.6 L 52.4 555.6 Z M 52.4 276.2 "></path></clipPath><g clip-path="url(#clip0x60800b0b0980)"><text xml:space="preserve" font-family="HelveticaNeue-Light,Helvetica Neue" font-size="32.4" fill="#A6AAA8" transform="matrix(1.00, 0.00, -0.00, -1.00, 238.9, 442.4)">/</text><text xml:space="preserve" font-family="HelveticaNeue-Light,Helvetica Neue" font-size="32.4" fill="#A6AAA8" transform="matrix(1.00, 0.00, -0.00, -1.00, 249.6, 442.4)">/</text><text xml:space="preserve" font-family="HelveticaNeue-Light,Helvetica Neue" font-size="32.4" fill="#A6AAA8" transform="matrix(1.00, 0.00, -0.00, -1.00, 260.4, 442.4)"> </text><text xml:space="preserve" font-family="HelveticaNeue-Light,Helvetica Neue" font-size="32.4" fill="#A6AAA8" transform="matrix(1.00, 0.00, -0.00, -1.00, 269.4, 442.4)">B</text><text xml:space="preserve" font-family="HelveticaNeue-Light,Helvetica Neue" font-size="32.4" fill="#A6AAA8" transform="matrix(1.00, 0.00, -0.00, -1.00, 291.1, 442.4)">l</text><text xml:space="preserve" font-family="HelveticaNeue-Light,Helvetica Neue" font-size="32.4" fill="#A6AAA8" transform="matrix(1.00, 0.00, -0.00, -1.00, 297.0, 442.4)">o</text><text xml:space="preserve" font-family="HelveticaNeue-Light,Helvetica Neue" font-size="32.4" fill="#A6AAA8" transform="matrix(1.00, 0.00, -0.00, -1.00, 315.1, 442.4)">g</text><text xml:space="preserve" font-family="HelveticaNeue-Light,Helvetica Neue" font-size="32.4" fill="#A6AAA8" transform="matrix(1.00, 0.00, -0.00, -1.00, 333.1, 442.4)">g</text><text xml:space="preserve" font-family="HelveticaNeue-Light,Helvetica Neue" font-size="32.4" fill="#A6AAA8" transform="matrix(1.00, 0.00, -0.00, -1.00, 351.1, 442.4)">i</text><text xml:space="preserve" font-family="HelveticaNeue-Light,Helvetica Neue" font-size="32.4" fill="#A6AAA8" transform="matrix(1.00, 0.00, -0.00, -1.00, 357.1, 442.4)">n</text><text xml:space="preserve" font-family="HelveticaNeue-Light,Helvetica Neue" font-size="32.4" fill="#A6AAA8" transform="matrix(1.00, 0.00, -0.00, -1.00, 374.5, 442.4)">g</text><text xml:space="preserve" font-family="HelveticaNeue-Light,Helvetica Neue" font-size="32.4" fill="#A6AAA8" transform="matrix(1.00, 0.00, -0.00, -1.00, 392.5, 442.4)"> </text><text xml:space="preserve" font-family="HelveticaNeue-Light,Helvetica Neue" font-size="32.4" fill="#A6AAA8" transform="matrix(1.00, 0.00, -0.00, -1.00, 401.5, 442.4)">o</text><text xml:space="preserve" font-family="HelveticaNeue-Light,Helvetica Neue" font-size="32.4" fill="#A6AAA8" transform="matrix(1.00, 0.00, -0.00, -1.00, 419.5, 442.4)">n</text><text xml:space="preserve" font-family="HelveticaNeue-Light,Helvetica Neue" font-size="32.4" fill="#A6AAA8" transform="matrix(1.00, 0.00, -0.00, -1.00, 436.9, 442.4)"> </text><text xml:space="preserve" font-family="HelveticaNeue-Light,Helvetica Neue" font-size="32.4" fill="#A6AAA8" transform="matrix(1.00, 0.00, -0.00, -1.00, 445.9, 442.4)">G</text><text xml:space="preserve" font-family="HelveticaNeue-Light,Helvetica Neue" font-size="32.4" fill="#A6AAA8" transform="matrix(1.00, 0.00, -0.00, -1.00, 469.9, 442.4)">i</text><text xml:space="preserve" font-family="HelveticaNeue-Light,Helvetica Neue" font-size="32.4" fill="#A6AAA8" transform="matrix(1.00, 0.00, -0.00, -1.00, 475.9, 442.4)">t</text><text xml:space="preserve" font-family="HelveticaNeue-Light,Helvetica Neue" font-size="32.4" fill="#A6AAA8" transform="matrix(1.00, 0.00, -0.00, -1.00, 485.5, 442.4)">h</text><text xml:space="preserve" font-family="HelveticaNeue-Light,Helvetica Neue" font-size="32.4" fill="#A6AAA8" transform="matrix(1.00, 0.00, -0.00, -1.00, 502.9, 442.4)">u</text><text xml:space="preserve" font-family="HelveticaNeue-Light,Helvetica Neue" font-size="32.4" fill="#A6AAA8" transform="matrix(1.00, 0.00, -0.00, -1.00, 520.3, 442.4)">b</text></g></g><g><clipPath id="clip0x60800b0b1340"><path d="M 52.4 276.2 L 971.6 276.2 L 971.6 555.6 L 52.4 555.6 Z M 52.4 276.2 "></path></clipPath><g clip-path="url(#clip0x60800b0b1340)"><text xml:space="preserve" font-family="HelveticaNeue-Light,Helvetica Neue" font-size="32.4" fill="#FEFFFE" transform="matrix(1.00, 0.00, -0.00, -1.00, 538.9, 442.4)"> </text></g></g><image xlink:href="5D5336042F214B1C40D80AA6D1650656.png" width="299.00" height="39.00" transform="matrix(1.00, 0.00, -0.00, -1.00, 62.0, 396.0)"></image><g><clipPath id="clip0x60800b0b14c0"><path d="M 52.4 276.2 L 971.6 276.2 L 971.6 555.6 L 52.4 555.6 Z M 52.4 276.2 "></path></clipPath><g clip-path="url(#clip0x60800b0b14c0)"><text xml:space="preserve" font-family="HelveticaNeue-Light,Helvetica Neue" font-size="32.4" fill="#FEFFFE" transform="matrix(1.00, 0.00, -0.00, -1.00, 66.0, 371.0)">y</text><text xml:space="preserve" font-family="HelveticaNeue-Light,Helvetica Neue" font-size="32.4" fill="#FEFFFE" transform="matrix(1.00, 0.00, -0.00, -1.00, 81.0, 371.0)">o</text><text xml:space="preserve" font-family="HelveticaNeue-Light,Helvetica Neue" font-size="32.4" fill="#FEFFFE" transform="matrix(1.00, 0.00, -0.00, -1.00, 99.0, 371.0)"> </text><text xml:space="preserve" font-family="HelveticaNeue-Light,Helvetica Neue" font-size="32.4" fill="#FEFFFE" transform="matrix(1.00, 0.00, -0.00, -1.00, 108.0, 371.0)">c</text><text xml:space="preserve" font-family="HelveticaNeue-Light,Helvetica Neue" font-size="32.4" fill="#FEFFFE" transform="matrix(1.00, 0.00, -0.00, -1.00, 124.8, 371.0)">h</text><text xml:space="preserve" font-family="HelveticaNeue-Light,Helvetica Neue" font-size="32.4" fill="#FEFFFE" transform="matrix(1.00, 0.00, -0.00, -1.00, 142.2, 371.0)">r</text><text xml:space="preserve" font-family="HelveticaNeue-Light,Helvetica Neue" font-size="32.4" fill="#FEFFFE" transform="matrix(1.00, 0.00, -0.00, -1.00, 151.9, 371.0)">o</text><text xml:space="preserve" font-family="HelveticaNeue-Light,Helvetica Neue" font-size="32.4" fill="#FEFFFE" transform="matrix(1.00, 0.00, -0.00, -1.00, 169.9, 371.0)">m</text><text xml:space="preserve" font-family="HelveticaNeue-Light,Helvetica Neue" font-size="32.4" fill="#FEFFFE" transform="matrix(1.00, 0.00, -0.00, -1.00, 196.9, 371.0)">e</text><text xml:space="preserve" font-family="HelveticaNeue-Light,Helvetica Neue" font-size="32.4" fill="#FEFFFE" transform="matrix(1.00, 0.00, -0.00, -1.00, 213.7, 371.0)">-</text><text xml:space="preserve" font-family="HelveticaNeue-Light,Helvetica Neue" font-size="32.4" fill="#FEFFFE" transform="matrix(1.00, 0.00, -0.00, -1.00, 225.7, 371.0)">e</text><text xml:space="preserve" font-family="HelveticaNeue-Light,Helvetica Neue" font-size="32.4" fill="#FEFFFE" transform="matrix(1.00, 0.00, -0.00, -1.00, 242.5, 371.0)">x</text><text xml:space="preserve" font-family="HelveticaNeue-Light,Helvetica Neue" font-size="32.4" fill="#FEFFFE" transform="matrix(1.00, 0.00, -0.00, -1.00, 258.1, 371.0)">t</text><text xml:space="preserve" font-family="HelveticaNeue-Light,Helvetica Neue" font-size="32.4" fill="#FEFFFE" transform="matrix(1.00, 0.00, -0.00, -1.00, 267.7, 371.0)">e</text><text xml:space="preserve" font-family="HelveticaNeue-Light,Helvetica Neue" font-size="32.4" fill="#FEFFFE" transform="matrix(1.00, 0.00, -0.00, -1.00, 284.5, 371.0)">n</text><text xml:space="preserve" font-family="HelveticaNeue-Light,Helvetica Neue" font-size="32.4" fill="#FEFFFE" transform="matrix(1.00, 0.00, -0.00, -1.00, 301.9, 371.0)">s</text><text xml:space="preserve" font-family="HelveticaNeue-Light,Helvetica Neue" font-size="32.4" fill="#FEFFFE" transform="matrix(1.00, 0.00, -0.00, -1.00, 317.5, 371.0)">i</text><text xml:space="preserve" font-family="HelveticaNeue-Light,Helvetica Neue" font-size="32.4" fill="#FEFFFE" transform="matrix(1.00, 0.00, -0.00, -1.00, 323.5, 371.0)">o</text><text xml:space="preserve" font-family="HelveticaNeue-Light,Helvetica Neue" font-size="32.4" fill="#FEFFFE" transform="matrix(1.00, 0.00, -0.00, -1.00, 341.5, 371.0)">n</text><text xml:space="preserve" font-family="HelveticaNeue-Light,Helvetica Neue" font-size="32.4" fill="#FEFFFE" transform="matrix(1.00, 0.00, -0.00, -1.00, 358.9, 371.0)"> </text></g></g><image xlink:href="6B5689258D34AA6D09D9969092183F1E.png" width="142.00" height="38.00" transform="matrix(1.00, 0.00, -0.00, -1.00, 62.0, 324.0)"></image><g><clipPath id="clip0x60800b0b1e20"><path d="M 52.4 276.2 L 971.6 276.2 L 971.6 555.6 L 52.4 555.6 Z M 52.4 276.2 "></path></clipPath><g clip-path="url(#clip0x60800b0b1e20)"><text xml:space="preserve" font-family="HelveticaNeue-Light,Helvetica Neue" font-size="32.4" fill="#FEFFFE" transform="matrix(1.00, 0.00, -0.00, -1.00, 66.0, 299.6)">y</text><text xml:space="preserve" font-family="HelveticaNeue-Light,Helvetica Neue" font-size="32.4" fill="#FEFFFE" transform="matrix(1.00, 0.00, -0.00, -1.00, 81.0, 299.6)">o</text><text xml:space="preserve" font-family="HelveticaNeue-Light,Helvetica Neue" font-size="32.4" fill="#FEFFFE" transform="matrix(1.00, 0.00, -0.00, -1.00, 99.0, 299.6)"> </text><text xml:space="preserve" font-family="HelveticaNeue-Light,Helvetica Neue" font-size="32.4" fill="#FEFFFE" transform="matrix(1.00, 0.00, -0.00, -1.00, 108.0, 299.6)">m</text><text xml:space="preserve" font-family="HelveticaNeue-Light,Helvetica Neue" font-size="32.4" fill="#FEFFFE" transform="matrix(1.00, 0.00, -0.00, -1.00, 135.0, 299.6)">o</text><text xml:space="preserve" font-family="HelveticaNeue-Light,Helvetica Neue" font-size="32.4" fill="#FEFFFE" transform="matrix(1.00, 0.00, -0.00, -1.00, 153.0, 299.6)">b</text><text xml:space="preserve" font-family="HelveticaNeue-Light,Helvetica Neue" font-size="32.4" fill="#FEFFFE" transform="matrix(1.00, 0.00, -0.00, -1.00, 171.6, 299.6)">i</text><text xml:space="preserve" font-family="HelveticaNeue-Light,Helvetica Neue" font-size="32.4" fill="#FEFFFE" transform="matrix(1.00, 0.00, -0.00, -1.00, 177.6, 299.6)">l</text><text xml:space="preserve" font-family="HelveticaNeue-Light,Helvetica Neue" font-size="32.4" fill="#FEFFFE" transform="matrix(1.00, 0.00, -0.00, -1.00, 183.6, 299.6)">e</text></g></g><image xlink:href="52ADE445A9C08E9371F55F85F7088D81.png" width="232.00" height="40.00" transform="matrix(1.00, 0.00, -0.00, -1.00, 64.0, 228.0)"></image><text xml:space="preserve" font-family="HelveticaNeue-Light,Helvetica Neue" font-size="42.0" fill="#FEFFFE" transform="matrix(1.00, 0.00, -0.00, -1.00, 66.6, 196.1)">G</text><text xml:space="preserve" font-family="HelveticaNeue-Light,Helvetica Neue" font-size="42.0" fill="#FEFFFE" transform="matrix(1.00, 0.00, -0.00, -1.00, 97.7, 196.1)">e</text><text xml:space="preserve" font-family="HelveticaNeue-Light,Helvetica Neue" font-size="42.0" fill="#FEFFFE" transform="matrix(1.00, 0.00, -0.00, -1.00, 119.5, 196.1)">t</text><text xml:space="preserve" font-family="HelveticaNeue-Light,Helvetica Neue" font-size="42.0" fill="#FEFFFE" transform="matrix(1.00, 0.00, -0.00, -1.00, 132.0, 196.1)"> </text><text xml:space="preserve" font-family="HelveticaNeue-Light,Helvetica Neue" font-size="42.0" fill="#FEFFFE" transform="matrix(1.00, 0.00, -0.00, -1.00, 143.6, 196.1)">m</text><text xml:space="preserve" font-family="HelveticaNeue-Light,Helvetica Neue" font-size="42.0" fill="#FEFFFE" transform="matrix(1.00, 0.00, -0.00, -1.00, 178.6, 196.1)">o</text><text xml:space="preserve" font-family="HelveticaNeue-Light,Helvetica Neue" font-size="42.0" fill="#FEFFFE" transform="matrix(1.00, 0.00, -0.00, -1.00, 202.0, 196.1)">r</text><text xml:space="preserve" font-family="HelveticaNeue-Light,Helvetica Neue" font-size="42.0" fill="#FEFFFE" transform="matrix(1.00, 0.00, -0.00, -1.00, 214.4, 196.1)">e</text><text xml:space="preserve" font-family="HelveticaNeue-Light,Helvetica Neue" font-size="42.0" fill="#FEFFFE" transform="matrix(1.00, 0.00, -0.00, -1.00, 236.2, 196.1)"> </text><text xml:space="preserve" font-family="HelveticaNeue-Light,Helvetica Neue" font-size="42.0" fill="#FEFFFE" transform="matrix(1.00, 0.00, -0.00, -1.00, 247.9, 196.1)">o</text><text xml:space="preserve" font-family="HelveticaNeue-Light,Helvetica Neue" font-size="42.0" fill="#FEFFFE" transform="matrix(1.00, 0.00, -0.00, -1.00, 271.3, 196.1)">n</text><text xml:space="preserve" font-family="HelveticaNeue-Light,Helvetica Neue" font-size="42.0" fill="#FEFFFE" transform="matrix(1.00, 0.00, -0.00, -1.00, 293.8, 196.1)"> </text><image xlink:href="6D9255667AFF165393DD9653636059A1.png" width="303.00" height="47.00" transform="matrix(1.00, 0.00, -0.00, -1.00, 303.0, 228.0)"></image><text xml:space="preserve" font-family="HelveticaNeue-Light,Helvetica Neue" font-size="42.0" fill="#FEFFFE" transform="matrix(1.00, 0.00, -0.00, -1.00, 305.5, 196.1)">h</text><text xml:space="preserve" font-family="HelveticaNeue-Light,Helvetica Neue" font-size="42.0" fill="#FEFFFE" transform="matrix(1.00, 0.00, -0.00, -1.00, 328.0, 196.1)">t</text><text xml:space="preserve" font-family="HelveticaNeue-Light,Helvetica Neue" font-size="42.0" fill="#FEFFFE" transform="matrix(1.00, 0.00, -0.00, -1.00, 340.5, 196.1)">t</text><text xml:space="preserve" font-family="HelveticaNeue-Light,Helvetica Neue" font-size="42.0" fill="#FEFFFE" transform="matrix(1.00, 0.00, -0.00, -1.00, 352.9, 196.1)">p</text><text xml:space="preserve" font-family="HelveticaNeue-Light,Helvetica Neue" font-size="42.0" fill="#FEFFFE" transform="matrix(1.00, 0.00, -0.00, -1.00, 377.0, 196.1)">:</text><text xml:space="preserve" font-family="HelveticaNeue-Light,Helvetica Neue" font-size="42.0" fill="#FEFFFE" transform="matrix(1.00, 0.00, -0.00, -1.00, 388.7, 196.1)">/</text><text xml:space="preserve" font-family="HelveticaNeue-Light,Helvetica Neue" font-size="42.0" fill="#FEFFFE" transform="matrix(1.00, 0.00, -0.00, -1.00, 402.7, 196.1)">/</text><text xml:space="preserve" font-family="HelveticaNeue-Light,Helvetica Neue" font-size="42.0" fill="#FEFFFE" transform="matrix(1.00, 0.00, -0.00, -1.00, 416.7, 196.1)">y</text><text xml:space="preserve" font-family="HelveticaNeue-Light,Helvetica Neue" font-size="42.0" fill="#FEFFFE" transform="matrix(1.00, 0.00, -0.00, -1.00, 436.1, 196.1)">e</text><text xml:space="preserve" font-family="HelveticaNeue-Light,Helvetica Neue" font-size="42.0" fill="#FEFFFE" transform="matrix(1.00, 0.00, -0.00, -1.00, 457.9, 196.1)">o</text><text xml:space="preserve" font-family="HelveticaNeue-Light,Helvetica Neue" font-size="42.0" fill="#FEFFFE" transform="matrix(1.00, 0.00, -0.00, -1.00, 481.3, 196.1)">m</text><text xml:space="preserve" font-family="HelveticaNeue-Light,Helvetica Neue" font-size="42.0" fill="#FEFFFE" transform="matrix(1.00, 0.00, -0.00, -1.00, 516.3, 196.1)">a</text><text xml:space="preserve" font-family="HelveticaNeue-Light,Helvetica Neue" font-size="42.0" fill="#FEFFFE" transform="matrix(1.00, 0.00, -0.00, -1.00, 538.0, 196.1)">n</text><text xml:space="preserve" font-family="HelveticaNeue-Light,Helvetica Neue" font-size="42.0" fill="#FEFFFE" transform="matrix(1.00, 0.00, -0.00, -1.00, 560.6, 196.1)">.</text><text xml:space="preserve" font-family="HelveticaNeue-Light,Helvetica Neue" font-size="42.0" fill="#FEFFFE" transform="matrix(1.00, 0.00, -0.00, -1.00, 572.3, 196.1)">i</text><text xml:space="preserve" font-family="HelveticaNeue-Light,Helvetica Neue" font-size="42.0" fill="#FEFFFE" transform="matrix(1.00, 0.00, -0.00, -1.00, 580.0, 196.1)">o</text><text xml:space="preserve" font-family="HelveticaNeue-Light,Helvetica Neue" font-size="42.0" fill="#FEFFFE" transform="matrix(1.00, 0.00, -0.00, -1.00, 603.4, 196.1)"> </text><g><clipPath id="clip0x6000094af2a0"><path d="M 304.5 189.8 L 603.4 189.8 L 603.4 193.9 L 304.5 193.9 Z M 304.5 189.8 "></path></clipPath><g clip-path="url(#clip0x6000094af2a0)"><path d="M 249.2 49.0 L 547.1 49.0 " fill="none" stroke="#FEFFFE" stroke-width="2.10" transform="matrix(1.00, 0.00, 0.00, -1.00, 56.3, 240.9)"></path></g></g></g></svg>