<?xml version="1.0" encoding="UTF-8" standalone="no"?><svg xmlns="http://www.w3.org/2000/svg" xmlns:xlink="http://www.w3.org/1999/xlink" clip-rule="evenodd" stroke-miterlimit="10" viewBox="0 0 1024 768"><desc>SVG generated by Keynote</desc><defs></defs><g transform="matrix(1.00, 0.00, -0.00, -1.00, 0.0, 768.0)"><g><clipPath id="clip0x6000010a18c0"><path d="M 0.0 768.0 L 1024.0 768.0 L 1024.0 0.0 L 0.0 0.0 Z M 0.0 768.0 "></path></clipPath><g clip-path="url(#clip0x6000010a18c0)"><image xlink:href="../../AA67522E-33CB-4827-90AD-B35304285A38/assets/527288347077A8BC66C9A53B775387A8.jpeg" width="2048.00" height="1536.00" transform="matrix(0.50, 0.00, -0.00, -0.50, 0.0, 768.0)"></image></g></g><text xml:space="preserve" font-family="GillSans-Light,Gill Sans" font-size="72.0" fill="#525252" transform="matrix(1.00, 0.00, -0.00, -1.00, 201.6, 628.2)">W</text><text xml:space="preserve" font-family="GillSans-Light,Gill Sans" font-size="72.0" fill="#525252" transform="matrix(1.00, 0.00, -0.00, -1.00, 275.8, 628.2)">H</text><text xml:space="preserve" font-family="GillSans-Light,Gill Sans" font-size="72.0" fill="#525252" transform="matrix(1.00, 0.00, -0.00, -1.00, 327.6, 628.2)">A</text><text xml:space="preserve" font-family="GillSans-Light,Gill Sans" font-size="72.0" fill="#525252" transform="matrix(1.00, 0.00, -0.00, -1.00, 368.4, 628.2)">T</text><text xml:space="preserve" font-family="GillSans-Light,Gill Sans" font-size="72.0" fill="#525252" transform="matrix(1.00, 0.00, -0.00, -1.00, 409.7, 628.2)"> </text><text xml:space="preserve" font-family="GillSans-Light,Gill Sans" font-size="72.0" fill="#525252" transform="matrix(1.00, 0.00, -0.00, -1.00, 429.7, 628.2)">I</text><text xml:space="preserve" font-family="GillSans-Light,Gill Sans" font-size="72.0" fill="#525252" transform="matrix(1.00, 0.00, -0.00, -1.00, 444.7, 628.2)">S</text><text xml:space="preserve" font-family="GillSans-Light,Gill Sans" font-size="72.0" fill="#525252" transform="matrix(1.00, 0.00, -0.00, -1.00, 478.5, 628.2)"> </text><text xml:space="preserve" font-family="GillSans-Light,Gill Sans" font-size="72.0" fill="#525252" transform="matrix(1.00, 0.00, -0.00, -1.00, 498.4, 628.2)">G</text><text xml:space="preserve" font-family="GillSans-Light,Gill Sans" font-size="72.0" fill="#525252" transform="matrix(1.00, 0.00, -0.00, -1.00, 550.2, 628.2)">I</text><text xml:space="preserve" font-family="GillSans-Light,Gill Sans" font-size="72.0" fill="#525252" transform="matrix(1.00, 0.00, -0.00, -1.00, 565.2, 628.2)">T</text><text xml:space="preserve" font-family="GillSans-Light,Gill Sans" font-size="72.0" fill="#525252" transform="matrix(1.00, 0.00, -0.00, -1.00, 606.5, 628.2)"> </text><text xml:space="preserve" font-family="GillSans-Light,Gill Sans" font-size="72.0" fill="#525252" transform="matrix(1.00, 0.00, -0.00, -1.00, 626.5, 628.2)">F</text><text xml:space="preserve" font-family="GillSans-Light,Gill Sans" font-size="72.0" fill="#525252" transform="matrix(1.00, 0.00, -0.00, -1.00, 658.0, 628.2)">L</text><text xml:space="preserve" font-family="GillSans-Light,Gill Sans" font-size="72.0" fill="#525252" transform="matrix(1.00, 0.00, -0.00, -1.00, 691.8, 628.2)">O</text><text xml:space="preserve" font-family="GillSans-Light,Gill Sans" font-size="72.0" fill="#525252" transform="matrix(1.00, 0.00, -0.00, -1.00, 748.2, 628.2)">W</text><text xml:space="preserve" font-family="GillSans-Light,Gill Sans" font-size="32.0" fill="#525252" transform="matrix(1.00, 0.00, -0.00, -1.00, 32.0, 393.1)">•</text><text xml:space="preserve" font-family="GillSans-Light,Gill Sans" font-size="39.0" fill="#525252" transform="matrix(1.00, 0.00, -0.00, -1.00, 73.0, 391.3)">W</text><text xml:space="preserve" font-family="GillSans-Light,Gill Sans" font-size="39.0" fill="#525252" transform="matrix(1.00, 0.00, -0.00, -1.00, 110.5, 391.3)">o</text><text xml:space="preserve" font-family="GillSans-Light,Gill Sans" font-size="39.0" fill="#525252" transform="matrix(1.00, 0.00, -0.00, -1.00, 131.6, 391.3)">r</text><text xml:space="preserve" font-family="GillSans-Light,Gill Sans" font-size="39.0" fill="#525252" transform="matrix(1.00, 0.00, -0.00, -1.00, 146.2, 391.3)">k</text><text xml:space="preserve" font-family="GillSans-Light,Gill Sans" font-size="39.0" fill="#525252" transform="matrix(1.00, 0.00, -0.00, -1.00, 162.8, 391.3)">ﬂ</text><text xml:space="preserve" font-family="GillSans-Light,Gill Sans" font-size="39.0" fill="#525252" transform="matrix(1.00, 0.00, -0.00, -1.00, 181.5, 391.3)">o</text><text xml:space="preserve" font-family="GillSans-Light,Gill Sans" font-size="39.0" fill="#525252" transform="matrix(1.00, 0.00, -0.00, -1.00, 202.0, 391.3)">w</text><text xml:space="preserve" font-family="GillSans-Light,Gill Sans" font-size="39.0" fill="#525252" transform="matrix(1.00, 0.00, -0.00, -1.00, 229.6, 391.3)"> </text><text xml:space="preserve" font-family="GillSans-Light,Gill Sans" font-size="39.0" fill="#525252" transform="matrix(1.00, 0.00, -0.00, -1.00, 240.5, 391.3)">f</text><text xml:space="preserve" font-family="GillSans-Light,Gill Sans" font-size="39.0" fill="#525252" transform="matrix(1.00, 0.00, -0.00, -1.00, 249.5, 391.3)">o</text><text xml:space="preserve" font-family="GillSans-Light,Gill Sans" font-size="39.0" fill="#525252" transform="matrix(1.00, 0.00, -0.00, -1.00, 270.6, 391.3)">r</text><text xml:space="preserve" font-family="GillSans-Light,Gill Sans" font-size="39.0" fill="#525252" transform="matrix(1.00, 0.00, -0.00, -1.00, 283.6, 391.3)"> </text><text xml:space="preserve" font-family="GillSans-Light,Gill Sans" font-size="39.0" fill="#525252" transform="matrix(1.00, 0.00, -0.00, -1.00, 294.4, 391.3)">d</text><text xml:space="preserve" font-family="GillSans-Light,Gill Sans" font-size="39.0" fill="#525252" transform="matrix(1.00, 0.00, -0.00, -1.00, 314.3, 391.3)">e</text><text xml:space="preserve" font-family="GillSans-Light,Gill Sans" font-size="39.0" fill="#525252" transform="matrix(1.00, 0.00, -0.00, -1.00, 333.0, 391.3)">v</text><text xml:space="preserve" font-family="GillSans-Light,Gill Sans" font-size="39.0" fill="#525252" transform="matrix(1.00, 0.00, -0.00, -1.00, 349.0, 391.3)">e</text><text xml:space="preserve" font-family="GillSans-Light,Gill Sans" font-size="39.0" fill="#525252" transform="matrix(1.00, 0.00, -0.00, -1.00, 367.7, 391.3)">l</text><text xml:space="preserve" font-family="GillSans-Light,Gill Sans" font-size="39.0" fill="#525252" transform="matrix(1.00, 0.00, -0.00, -1.00, 375.0, 391.3)">o</text><text xml:space="preserve" font-family="GillSans-Light,Gill Sans" font-size="39.0" fill="#525252" transform="matrix(1.00, 0.00, -0.00, -1.00, 396.2, 391.3)">p</text><text xml:space="preserve" font-family="GillSans-Light,Gill Sans" font-size="39.0" fill="#525252" transform="matrix(1.00, 0.00, -0.00, -1.00, 416.0, 391.3)">m</text><text xml:space="preserve" font-family="GillSans-Light,Gill Sans" font-size="39.0" fill="#525252" transform="matrix(1.00, 0.00, -0.00, -1.00, 446.1, 391.3)">e</text><text xml:space="preserve" font-family="GillSans-Light,Gill Sans" font-size="39.0" fill="#525252" transform="matrix(1.00, 0.00, -0.00, -1.00, 464.8, 391.3)">n</text><text xml:space="preserve" font-family="GillSans-Light,Gill Sans" font-size="39.0" fill="#525252" transform="matrix(1.00, 0.00, -0.00, -1.00, 483.9, 391.3)">t</text><text xml:space="preserve" font-family="GillSans-Light,Gill Sans" font-size="39.0" fill="#525252" transform="matrix(1.00, 0.00, -0.00, -1.00, 495.7, 391.3)"> </text><text xml:space="preserve" font-family="GillSans-Light,Gill Sans" font-size="39.0" fill="#525252" transform="matrix(1.00, 0.00, -0.00, -1.00, 506.5, 391.3)">t</text><text xml:space="preserve" font-family="GillSans-Light,Gill Sans" font-size="39.0" fill="#525252" transform="matrix(1.00, 0.00, -0.00, -1.00, 518.3, 391.3)">e</text><text xml:space="preserve" font-family="GillSans-Light,Gill Sans" font-size="39.0" fill="#525252" transform="matrix(1.00, 0.00, -0.00, -1.00, 536.9, 391.3)">a</text><text xml:space="preserve" font-family="GillSans-Light,Gill Sans" font-size="39.0" fill="#525252" transform="matrix(1.00, 0.00, -0.00, -1.00, 553.6, 391.3)">m</text><text xml:space="preserve" font-family="GillSans-Light,Gill Sans" font-size="39.0" fill="#525252" transform="matrix(1.00, 0.00, -0.00, -1.00, 583.6, 391.3)"> </text><text xml:space="preserve" font-family="GillSans-Light,Gill Sans" font-size="39.0" fill="#525252" transform="matrix(1.00, 0.00, -0.00, -1.00, 594.5, 391.3)">u</text><text xml:space="preserve" font-family="GillSans-Light,Gill Sans" font-size="39.0" fill="#525252" transform="matrix(1.00, 0.00, -0.00, -1.00, 613.6, 391.3)">s</text><text xml:space="preserve" font-family="GillSans-Light,Gill Sans" font-size="39.0" fill="#525252" transform="matrix(1.00, 0.00, -0.00, -1.00, 627.4, 391.3)">i</text><text xml:space="preserve" font-family="GillSans-Light,Gill Sans" font-size="39.0" fill="#525252" transform="matrix(1.00, 0.00, -0.00, -1.00, 634.7, 391.3)">n</text><text xml:space="preserve" font-family="GillSans-Light,Gill Sans" font-size="39.0" fill="#525252" transform="matrix(1.00, 0.00, -0.00, -1.00, 653.9, 391.3)">g</text><text xml:space="preserve" font-family="GillSans-Light,Gill Sans" font-size="39.0" fill="#525252" transform="matrix(1.00, 0.00, -0.00, -1.00, 670.5, 391.3)"> </text><text xml:space="preserve" font-family="GillSans-Light,Gill Sans" font-size="39.0" fill="#525252" transform="matrix(1.00, 0.00, -0.00, -1.00, 681.3, 391.3)">G</text><text xml:space="preserve" font-family="GillSans-Light,Gill Sans" font-size="39.0" fill="#525252" transform="matrix(1.00, 0.00, -0.00, -1.00, 709.4, 391.3)">I</text><text xml:space="preserve" font-family="GillSans-Light,Gill Sans" font-size="39.0" fill="#525252" transform="matrix(1.00, 0.00, -0.00, -1.00, 717.5, 391.3)">T</text><text xml:space="preserve" font-family="GillSans-Light,Gill Sans" font-size="39.0" fill="#525252" transform="matrix(1.00, 0.00, -0.00, -1.00, 735.0, 391.3)">.</text><text xml:space="preserve" font-family="GillSans-Light,Gill Sans" font-size="39.0" fill="#525252" transform="matrix(1.00, 0.00, -0.00, -1.00, 741.9, 391.3)">	</text><text xml:space="preserve" font-family="GillSans-Light,Gill Sans" font-size="39.0" fill="#525252" transform="matrix(1.00, 0.00, -0.00, -1.00, 769.9, 391.3)">
</text><text xml:space="preserve" font-family="GillSans-Light,Gill Sans" font-size="39.0" fill="#525252" transform="matrix(1.00, 0.00, -0.00, -1.00, 769.9, 391.3)"></text><text xml:space="preserve" font-family="GillSans-Light,Gill Sans" font-size="32.0" fill="#525252" transform="matrix(1.00, 0.00, -0.00, -1.00, 32.0, 294.3)">•</text><text xml:space="preserve" font-family="GillSans-Light,Gill Sans" font-size="39.0" fill="#525252" transform="matrix(1.00, 0.00, -0.00, -1.00, 73.0, 292.5)">B</text><text xml:space="preserve" font-family="GillSans-Light,Gill Sans" font-size="39.0" fill="#525252" transform="matrix(1.00, 0.00, -0.00, -1.00, 93.7, 292.5)">r</text><text xml:space="preserve" font-family="GillSans-Light,Gill Sans" font-size="39.0" fill="#525252" transform="matrix(1.00, 0.00, -0.00, -1.00, 107.7, 292.5)">a</text><text xml:space="preserve" font-family="GillSans-Light,Gill Sans" font-size="39.0" fill="#525252" transform="matrix(1.00, 0.00, -0.00, -1.00, 124.3, 292.5)">n</text><text xml:space="preserve" font-family="GillSans-Light,Gill Sans" font-size="39.0" fill="#525252" transform="matrix(1.00, 0.00, -0.00, -1.00, 143.4, 292.5)">c</text><text xml:space="preserve" font-family="GillSans-Light,Gill Sans" font-size="39.0" fill="#525252" transform="matrix(1.00, 0.00, -0.00, -1.00, 159.7, 292.5)">h</text><text xml:space="preserve" font-family="GillSans-Light,Gill Sans" font-size="39.0" fill="#525252" transform="matrix(1.00, 0.00, -0.00, -1.00, 178.8, 292.5)">i</text><text xml:space="preserve" font-family="GillSans-Light,Gill Sans" font-size="39.0" fill="#525252" transform="matrix(1.00, 0.00, -0.00, -1.00, 186.1, 292.5)">n</text><text xml:space="preserve" font-family="GillSans-Light,Gill Sans" font-size="39.0" fill="#525252" transform="matrix(1.00, 0.00, -0.00, -1.00, 205.3, 292.5)">g</text><text xml:space="preserve" font-family="GillSans-Light,Gill Sans" font-size="39.0" fill="#525252" transform="matrix(1.00, 0.00, -0.00, -1.00, 221.9, 292.5)"> </text><text xml:space="preserve" font-family="GillSans-Light,Gill Sans" font-size="39.0" fill="#525252" transform="matrix(1.00, 0.00, -0.00, -1.00, 232.7, 292.5)">s</text><text xml:space="preserve" font-family="GillSans-Light,Gill Sans" font-size="39.0" fill="#525252" transform="matrix(1.00, 0.00, -0.00, -1.00, 246.5, 292.5)">t</text><text xml:space="preserve" font-family="GillSans-Light,Gill Sans" font-size="39.0" fill="#525252" transform="matrix(1.00, 0.00, -0.00, -1.00, 258.3, 292.5)">r</text><text xml:space="preserve" font-family="GillSans-Light,Gill Sans" font-size="39.0" fill="#525252" transform="matrix(1.00, 0.00, -0.00, -1.00, 272.2, 292.5)">a</text><text xml:space="preserve" font-family="GillSans-Light,Gill Sans" font-size="39.0" fill="#525252" transform="matrix(1.00, 0.00, -0.00, -1.00, 288.9, 292.5)">t</text><text xml:space="preserve" font-family="GillSans-Light,Gill Sans" font-size="39.0" fill="#525252" transform="matrix(1.00, 0.00, -0.00, -1.00, 300.6, 292.5)">e</text><text xml:space="preserve" font-family="GillSans-Light,Gill Sans" font-size="39.0" fill="#525252" transform="matrix(1.00, 0.00, -0.00, -1.00, 319.3, 292.5)">g</text><text xml:space="preserve" font-family="GillSans-Light,Gill Sans" font-size="39.0" fill="#525252" transform="matrix(1.00, 0.00, -0.00, -1.00, 336.0, 292.5)">y</text><text xml:space="preserve" font-family="GillSans-Light,Gill Sans" font-size="39.0" fill="#525252" transform="matrix(1.00, 0.00, -0.00, -1.00, 348.7, 292.5)">.</text><text xml:space="preserve" font-family="GillSans-Light,Gill Sans" font-size="39.0" fill="#525252" transform="matrix(1.00, 0.00, -0.00, -1.00, 355.6, 292.5)">	</text><text xml:space="preserve" font-family="GillSans-Light,Gill Sans" font-size="39.0" fill="#525252" transform="matrix(1.00, 0.00, -0.00, -1.00, 383.6, 292.5)">
</text><text xml:space="preserve" font-family="GillSans-Light,Gill Sans" font-size="39.0" fill="#525252" transform="matrix(1.00, 0.00, -0.00, -1.00, 383.6, 292.5)"></text><text xml:space="preserve" font-family="GillSans-Light,Gill Sans" font-size="32.0" fill="#525252" transform="matrix(1.00, 0.00, -0.00, -1.00, 32.0, 195.5)">•</text><text xml:space="preserve" font-family="GillSans-Light,Gill Sans" font-size="39.0" fill="#525252" transform="matrix(1.00, 0.00, -0.00, -1.00, 73.0, 193.7)">R</text><text xml:space="preserve" font-family="GillSans-Light,Gill Sans" font-size="39.0" fill="#525252" transform="matrix(1.00, 0.00, -0.00, -1.00, 95.4, 193.7)">e</text><text xml:space="preserve" font-family="GillSans-Light,Gill Sans" font-size="39.0" fill="#525252" transform="matrix(1.00, 0.00, -0.00, -1.00, 114.0, 193.7)">l</text><text xml:space="preserve" font-family="GillSans-Light,Gill Sans" font-size="39.0" fill="#525252" transform="matrix(1.00, 0.00, -0.00, -1.00, 121.4, 193.7)">e</text><text xml:space="preserve" font-family="GillSans-Light,Gill Sans" font-size="39.0" fill="#525252" transform="matrix(1.00, 0.00, -0.00, -1.00, 140.1, 193.7)">a</text><text xml:space="preserve" font-family="GillSans-Light,Gill Sans" font-size="39.0" fill="#525252" transform="matrix(1.00, 0.00, -0.00, -1.00, 156.7, 193.7)">s</text><text xml:space="preserve" font-family="GillSans-Light,Gill Sans" font-size="39.0" fill="#525252" transform="matrix(1.00, 0.00, -0.00, -1.00, 170.5, 193.7)">e</text><text xml:space="preserve" font-family="GillSans-Light,Gill Sans" font-size="39.0" fill="#525252" transform="matrix(1.00, 0.00, -0.00, -1.00, 189.2, 193.7)"> </text><text xml:space="preserve" font-family="GillSans-Light,Gill Sans" font-size="39.0" fill="#525252" transform="matrix(1.00, 0.00, -0.00, -1.00, 200.0, 193.7)">m</text><text xml:space="preserve" font-family="GillSans-Light,Gill Sans" font-size="39.0" fill="#525252" transform="matrix(1.00, 0.00, -0.00, -1.00, 230.1, 193.7)">a</text><text xml:space="preserve" font-family="GillSans-Light,Gill Sans" font-size="39.0" fill="#525252" transform="matrix(1.00, 0.00, -0.00, -1.00, 246.7, 193.7)">n</text><text xml:space="preserve" font-family="GillSans-Light,Gill Sans" font-size="39.0" fill="#525252" transform="matrix(1.00, 0.00, -0.00, -1.00, 265.8, 193.7)">a</text><text xml:space="preserve" font-family="GillSans-Light,Gill Sans" font-size="39.0" fill="#525252" transform="matrix(1.00, 0.00, -0.00, -1.00, 282.5, 193.7)">g</text><text xml:space="preserve" font-family="GillSans-Light,Gill Sans" font-size="39.0" fill="#525252" transform="matrix(1.00, 0.00, -0.00, -1.00, 299.1, 193.7)">e</text><text xml:space="preserve" font-family="GillSans-Light,Gill Sans" font-size="39.0" fill="#525252" transform="matrix(1.00, 0.00, -0.00, -1.00, 317.8, 193.7)">m</text><text xml:space="preserve" font-family="GillSans-Light,Gill Sans" font-size="39.0" fill="#525252" transform="matrix(1.00, 0.00, -0.00, -1.00, 347.9, 193.7)">e</text><text xml:space="preserve" font-family="GillSans-Light,Gill Sans" font-size="39.0" fill="#525252" transform="matrix(1.00, 0.00, -0.00, -1.00, 366.5, 193.7)">n</text><text xml:space="preserve" font-family="GillSans-Light,Gill Sans" font-size="39.0" fill="#525252" transform="matrix(1.00, 0.00, -0.00, -1.00, 385.7, 193.7)">t</text><text xml:space="preserve" font-family="GillSans-Light,Gill Sans" font-size="39.0" fill="#525252" transform="matrix(1.00, 0.00, -0.00, -1.00, 397.4, 193.7)">.</text></g></svg>