<?xml version="1.0" encoding="UTF-8" standalone="no"?><svg xmlns="http://www.w3.org/2000/svg" xmlns:xlink="http://www.w3.org/1999/xlink" clip-rule="evenodd" stroke-miterlimit="10" viewBox="0 0 1024 768"><desc>SVG generated by Keynote</desc><defs></defs><g transform="matrix(1.00, 0.00, -0.00, -1.00, 0.0, 768.0)"><g><clipPath id="clip0x6000012b2000"><path d="M 0.0 768.0 L 1024.0 768.0 L 1024.0 0.0 L 0.0 0.0 Z M 0.0 768.0 "></path></clipPath><g clip-path="url(#clip0x6000012b2000)"><image xlink:href="../../AA67522E-33CB-4827-90AD-B35304285A38/assets/527288347077A8BC66C9A53B775387A8.jpeg" width="2048.00" height="1536.00" transform="matrix(0.50, 0.00, -0.00, -0.50, 0.0, 768.0)"></image></g></g><text xml:space="preserve" font-family="GillSans-Bold,Gill Sans" font-weight="bold" font-size="44.0" fill="#525252" transform="matrix(1.00, 0.00, -0.00, -1.00, 89.5, 643.3)">d</text><text xml:space="preserve" font-family="GillSans-Bold,Gill Sans" font-weight="bold" font-size="44.0" fill="#525252" transform="matrix(1.00, 0.00, -0.00, -1.00, 117.6, 643.3)">e</text><text xml:space="preserve" font-family="GillSans-Bold,Gill Sans" font-weight="bold" font-size="44.0" fill="#525252" transform="matrix(1.00, 0.00, -0.00, -1.00, 143.8, 643.3)">v</text><text xml:space="preserve" font-family="GillSans-Bold,Gill Sans" font-weight="bold" font-size="44.0" fill="#525252" transform="matrix(1.00, 0.00, -0.00, -1.00, 168.8, 643.3)">e</text><text xml:space="preserve" font-family="GillSans-Bold,Gill Sans" font-weight="bold" font-size="44.0" fill="#525252" transform="matrix(1.00, 0.00, -0.00, -1.00, 195.1, 643.3)">l</text><text xml:space="preserve" font-family="GillSans-Bold,Gill Sans" font-weight="bold" font-size="44.0" fill="#525252" transform="matrix(1.00, 0.00, -0.00, -1.00, 207.9, 643.3)">o</text><text xml:space="preserve" font-family="GillSans-Bold,Gill Sans" font-weight="bold" font-size="44.0" fill="#525252" transform="matrix(1.00, 0.00, -0.00, -1.00, 236.1, 643.3)">p</text><text xml:space="preserve" font-family="GillSans-Bold,Gill Sans" font-weight="bold" font-size="44.0" fill="#525252" transform="matrix(1.00, 0.00, -0.00, -1.00, 264.2, 643.3)"> </text><text xml:space="preserve" font-family="GillSans-Bold,Gill Sans" font-weight="bold" font-size="44.0" fill="#525252" transform="matrix(1.00, 0.00, -0.00, -1.00, 277.2, 643.3)">b</text><text xml:space="preserve" font-family="GillSans-Bold,Gill Sans" font-weight="bold" font-size="44.0" fill="#525252" transform="matrix(1.00, 0.00, -0.00, -1.00, 305.3, 643.3)">r</text><text xml:space="preserve" font-family="GillSans-Bold,Gill Sans" font-weight="bold" font-size="44.0" fill="#525252" transform="matrix(1.00, 0.00, -0.00, -1.00, 326.4, 643.3)">a</text><text xml:space="preserve" font-family="GillSans-Bold,Gill Sans" font-weight="bold" font-size="44.0" fill="#525252" transform="matrix(1.00, 0.00, -0.00, -1.00, 352.1, 643.3)">n</text><text xml:space="preserve" font-family="GillSans-Bold,Gill Sans" font-weight="bold" font-size="44.0" fill="#525252" transform="matrix(1.00, 0.00, -0.00, -1.00, 380.1, 643.3)">c</text><text xml:space="preserve" font-family="GillSans-Bold,Gill Sans" font-weight="bold" font-size="44.0" fill="#525252" transform="matrix(1.00, 0.00, -0.00, -1.00, 402.6, 643.3)">h</text><image xlink:href="../../42079842-18DD-4D93-8412-D214A020ECBA/assets/51A7A96D792EFCEA16AF4ACBDA3D78EB.png" width="84.00" height="90.00" transform="matrix(0.14, 0.00, -0.00, -0.14, 32.0, 562.1)"></image><text xml:space="preserve" font-family="GillSans-Light,Gill Sans" font-size="38.0" fill="#525252" transform="matrix(1.00, 0.00, -0.00, -1.00, 65.9, 546.1)">L</text><text xml:space="preserve" font-family="GillSans-Light,Gill Sans" font-size="38.0" fill="#525252" transform="matrix(1.00, 0.00, -0.00, -1.00, 83.7, 546.1)">a</text><text xml:space="preserve" font-family="GillSans-Light,Gill Sans" font-size="38.0" fill="#525252" transform="matrix(1.00, 0.00, -0.00, -1.00, 99.9, 546.1)">t</text><text xml:space="preserve" font-family="GillSans-Light,Gill Sans" font-size="38.0" fill="#525252" transform="matrix(1.00, 0.00, -0.00, -1.00, 111.4, 546.1)">e</text><text xml:space="preserve" font-family="GillSans-Light,Gill Sans" font-size="38.0" fill="#525252" transform="matrix(1.00, 0.00, -0.00, -1.00, 129.6, 546.1)">s</text><text xml:space="preserve" font-family="GillSans-Light,Gill Sans" font-size="38.0" fill="#525252" transform="matrix(1.00, 0.00, -0.00, -1.00, 143.0, 546.1)">t</text><text xml:space="preserve" font-family="GillSans-Light,Gill Sans" font-size="38.0" fill="#525252" transform="matrix(1.00, 0.00, -0.00, -1.00, 154.5, 546.1)"> </text><text xml:space="preserve" font-family="GillSans-Light,Gill Sans" font-size="38.0" fill="#525252" transform="matrix(1.00, 0.00, -0.00, -1.00, 165.0, 546.1)">d</text><text xml:space="preserve" font-family="GillSans-Light,Gill Sans" font-size="38.0" fill="#525252" transform="matrix(1.00, 0.00, -0.00, -1.00, 184.4, 546.1)">e</text><text xml:space="preserve" font-family="GillSans-Light,Gill Sans" font-size="38.0" fill="#525252" transform="matrix(1.00, 0.00, -0.00, -1.00, 202.6, 546.1)">v</text><text xml:space="preserve" font-family="GillSans-Light,Gill Sans" font-size="38.0" fill="#525252" transform="matrix(1.00, 0.00, -0.00, -1.00, 218.2, 546.1)">e</text><text xml:space="preserve" font-family="GillSans-Light,Gill Sans" font-size="38.0" fill="#525252" transform="matrix(1.00, 0.00, -0.00, -1.00, 236.4, 546.1)">l</text><text xml:space="preserve" font-family="GillSans-Light,Gill Sans" font-size="38.0" fill="#525252" transform="matrix(1.00, 0.00, -0.00, -1.00, 243.6, 546.1)">o</text><text xml:space="preserve" font-family="GillSans-Light,Gill Sans" font-size="38.0" fill="#525252" transform="matrix(1.00, 0.00, -0.00, -1.00, 264.2, 546.1)">p</text><text xml:space="preserve" font-family="GillSans-Light,Gill Sans" font-size="38.0" fill="#525252" transform="matrix(1.00, 0.00, -0.00, -1.00, 283.5, 546.1)">m</text><text xml:space="preserve" font-family="GillSans-Light,Gill Sans" font-size="38.0" fill="#525252" transform="matrix(1.00, 0.00, -0.00, -1.00, 312.8, 546.1)">e</text><text xml:space="preserve" font-family="GillSans-Light,Gill Sans" font-size="38.0" fill="#525252" transform="matrix(1.00, 0.00, -0.00, -1.00, 331.0, 546.1)">n</text><text xml:space="preserve" font-family="GillSans-Light,Gill Sans" font-size="38.0" fill="#525252" transform="matrix(1.00, 0.00, -0.00, -1.00, 349.7, 546.1)">t</text><text xml:space="preserve" font-family="GillSans-Light,Gill Sans" font-size="38.0" fill="#525252" transform="matrix(1.00, 0.00, -0.00, -1.00, 361.1, 546.1)"> </text><text xml:space="preserve" font-family="GillSans-Light,Gill Sans" font-size="38.0" fill="#525252" transform="matrix(1.00, 0.00, -0.00, -1.00, 371.7, 546.1)">c</text><text xml:space="preserve" font-family="GillSans-Light,Gill Sans" font-size="38.0" fill="#525252" transform="matrix(1.00, 0.00, -0.00, -1.00, 387.5, 546.1)">h</text><text xml:space="preserve" font-family="GillSans-Light,Gill Sans" font-size="38.0" fill="#525252" transform="matrix(1.00, 0.00, -0.00, -1.00, 406.2, 546.1)">a</text><text xml:space="preserve" font-family="GillSans-Light,Gill Sans" font-size="38.0" fill="#525252" transform="matrix(1.00, 0.00, -0.00, -1.00, 422.4, 546.1)">n</text><text xml:space="preserve" font-family="GillSans-Light,Gill Sans" font-size="38.0" fill="#525252" transform="matrix(1.00, 0.00, -0.00, -1.00, 441.0, 546.1)">g</text><text xml:space="preserve" font-family="GillSans-Light,Gill Sans" font-size="38.0" fill="#525252" transform="matrix(1.00, 0.00, -0.00, -1.00, 457.2, 546.1)">e</text><text xml:space="preserve" font-family="GillSans-Light,Gill Sans" font-size="38.0" fill="#525252" transform="matrix(1.00, 0.00, -0.00, -1.00, 475.4, 546.1)">s</text><text xml:space="preserve" font-family="GillSans-Bold,Gill Sans" font-weight="bold" font-size="38.0" fill="#525252" transform="matrix(1.00, 0.00, -0.00, -1.00, 488.9, 546.1)">	</text><text xml:space="preserve" font-family="GillSans-Bold,Gill Sans" font-weight="bold" font-size="38.0" fill="#525252" transform="matrix(1.00, 0.00, -0.00, -1.00, 516.9, 546.1)">
</text><text xml:space="preserve" font-family="GillSans-Bold,Gill Sans" font-weight="bold" font-size="38.0" fill="#525252" transform="matrix(1.00, 0.00, -0.00, -1.00, 516.9, 546.1)"></text><image xlink:href="../../42079842-18DD-4D93-8412-D214A020ECBA/assets/51A7A96D792EFCEA16AF4ACBDA3D78EB.png" width="84.00" height="90.00" transform="matrix(0.14, 0.00, -0.00, -0.14, 32.0, 495.6)"></image><text xml:space="preserve" font-family="GillSans-Light,Gill Sans" font-size="38.0" fill="#525252" transform="matrix(1.00, 0.00, -0.00, -1.00, 65.9, 479.0)">W</text><text xml:space="preserve" font-family="GillSans-Light,Gill Sans" font-size="38.0" fill="#525252" transform="matrix(1.00, 0.00, -0.00, -1.00, 105.0, 479.0)">h</text><text xml:space="preserve" font-family="GillSans-Light,Gill Sans" font-size="38.0" fill="#525252" transform="matrix(1.00, 0.00, -0.00, -1.00, 123.7, 479.0)">e</text><text xml:space="preserve" font-family="GillSans-Light,Gill Sans" font-size="38.0" fill="#525252" transform="matrix(1.00, 0.00, -0.00, -1.00, 141.9, 479.0)">r</text><text xml:space="preserve" font-family="GillSans-Light,Gill Sans" font-size="38.0" fill="#525252" transform="matrix(1.00, 0.00, -0.00, -1.00, 154.5, 479.0)">e</text><text xml:space="preserve" font-family="GillSans-Light,Gill Sans" font-size="38.0" fill="#525252" transform="matrix(1.00, 0.00, -0.00, -1.00, 172.7, 479.0)"> </text><text xml:space="preserve" font-family="GillSans-SemiBold,Gill Sans" font-weight="bold" font-size="38.0" fill="#525252" transform="matrix(1.00, 0.00, -0.00, -1.00, 183.3, 479.0)">n</text><text xml:space="preserve" font-family="GillSans-SemiBold,Gill Sans" font-weight="bold" font-size="38.0" fill="#525252" transform="matrix(1.00, 0.00, -0.00, -1.00, 203.8, 479.0)">i</text><text xml:space="preserve" font-family="GillSans-SemiBold,Gill Sans" font-weight="bold" font-size="38.0" fill="#525252" transform="matrix(1.00, 0.00, -0.00, -1.00, 213.3, 479.0)">g</text><text xml:space="preserve" font-family="GillSans-SemiBold,Gill Sans" font-weight="bold" font-size="38.0" fill="#525252" transform="matrix(1.00, 0.00, -0.00, -1.00, 231.9, 479.0)">h</text><text xml:space="preserve" font-family="GillSans-SemiBold,Gill Sans" font-weight="bold" font-size="38.0" fill="#525252" transform="matrix(1.00, 0.00, -0.00, -1.00, 252.5, 479.0)">t</text><text xml:space="preserve" font-family="GillSans-SemiBold,Gill Sans" font-weight="bold" font-size="38.0" fill="#525252" transform="matrix(1.00, 0.00, -0.00, -1.00, 266.5, 479.0)">l</text><text xml:space="preserve" font-family="GillSans-SemiBold,Gill Sans" font-weight="bold" font-size="38.0" fill="#525252" transform="matrix(1.00, 0.00, -0.00, -1.00, 275.9, 479.0)">y</text><text xml:space="preserve" font-family="GillSans-SemiBold,Gill Sans" font-weight="bold" font-size="38.0" fill="#525252" transform="matrix(1.00, 0.00, -0.00, -1.00, 294.1, 479.0)"> </text><text xml:space="preserve" font-family="GillSans-SemiBold,Gill Sans" font-weight="bold" font-size="38.0" fill="#525252" transform="matrix(1.00, 0.00, -0.00, -1.00, 304.6, 479.0)">b</text><text xml:space="preserve" font-family="GillSans-SemiBold,Gill Sans" font-weight="bold" font-size="38.0" fill="#525252" transform="matrix(1.00, 0.00, -0.00, -1.00, 325.5, 479.0)">u</text><text xml:space="preserve" font-family="GillSans-SemiBold,Gill Sans" font-weight="bold" font-size="38.0" fill="#525252" transform="matrix(1.00, 0.00, -0.00, -1.00, 346.0, 479.0)">i</text><text xml:space="preserve" font-family="GillSans-SemiBold,Gill Sans" font-weight="bold" font-size="38.0" fill="#525252" transform="matrix(1.00, 0.00, -0.00, -1.00, 355.4, 479.0)">l</text><text xml:space="preserve" font-family="GillSans-SemiBold,Gill Sans" font-weight="bold" font-size="38.0" fill="#525252" transform="matrix(1.00, 0.00, -0.00, -1.00, 364.9, 479.0)">d</text><text xml:space="preserve" font-family="GillSans-SemiBold,Gill Sans" font-weight="bold" font-size="38.0" fill="#525252" transform="matrix(1.00, 0.00, -0.00, -1.00, 385.7, 479.0)">s</text><text xml:space="preserve" font-family="GillSans-Light,Gill Sans" font-size="38.0" fill="#525252" transform="matrix(1.00, 0.00, -0.00, -1.00, 401.0, 479.0)"> </text><text xml:space="preserve" font-family="GillSans-Light,Gill Sans" font-size="38.0" fill="#525252" transform="matrix(1.00, 0.00, -0.00, -1.00, 411.6, 479.0)">c</text><text xml:space="preserve" font-family="GillSans-Light,Gill Sans" font-size="38.0" fill="#525252" transform="matrix(1.00, 0.00, -0.00, -1.00, 427.4, 479.0)">a</text><text xml:space="preserve" font-family="GillSans-Light,Gill Sans" font-size="38.0" fill="#525252" transform="matrix(1.00, 0.00, -0.00, -1.00, 443.6, 479.0)">m</text><text xml:space="preserve" font-family="GillSans-Light,Gill Sans" font-size="38.0" fill="#525252" transform="matrix(1.00, 0.00, -0.00, -1.00, 472.9, 479.0)">e</text><text xml:space="preserve" font-family="GillSans-Light,Gill Sans" font-size="38.0" fill="#525252" transform="matrix(1.00, 0.00, -0.00, -1.00, 491.1, 479.0)"> </text><text xml:space="preserve" font-family="GillSans-Light,Gill Sans" font-size="38.0" fill="#525252" transform="matrix(1.00, 0.00, -0.00, -1.00, 501.7, 479.0)">f</text><text xml:space="preserve" font-family="GillSans-Light,Gill Sans" font-size="38.0" fill="#525252" transform="matrix(1.00, 0.00, -0.00, -1.00, 510.8, 479.0)">r</text><text xml:space="preserve" font-family="GillSans-Light,Gill Sans" font-size="38.0" fill="#525252" transform="matrix(1.00, 0.00, -0.00, -1.00, 523.5, 479.0)">o</text><text xml:space="preserve" font-family="GillSans-Light,Gill Sans" font-size="38.0" fill="#525252" transform="matrix(1.00, 0.00, -0.00, -1.00, 544.1, 479.0)">m</text><text xml:space="preserve" font-family="GillSans-Light,Gill Sans" font-size="38.0" fill="#525252" transform="matrix(1.00, 0.00, -0.00, -1.00, 573.4, 479.0)">	</text><text xml:space="preserve" font-family="GillSans-Light,Gill Sans" font-size="38.0" fill="#525252" transform="matrix(1.00, 0.00, -0.00, -1.00, 601.4, 479.0)">
</text><text xml:space="preserve" font-family="GillSans-Light,Gill Sans" font-size="38.0" fill="#525252" transform="matrix(1.00, 0.00, -0.00, -1.00, 601.4, 479.0)"></text><image xlink:href="../../42079842-18DD-4D93-8412-D214A020ECBA/assets/51A7A96D792EFCEA16AF4ACBDA3D78EB.png" width="84.00" height="90.00" transform="matrix(0.14, 0.00, -0.00, -0.14, 32.0, 428.6)"></image><text xml:space="preserve" font-family="GillSans-Light,Gill Sans" font-size="38.0" fill="#525252" transform="matrix(1.00, 0.00, -0.00, -1.00, 65.9, 412.6)">A</text><text xml:space="preserve" font-family="GillSans-Light,Gill Sans" font-size="38.0" fill="#525252" transform="matrix(1.00, 0.00, -0.00, -1.00, 91.2, 412.6)">l</text><text xml:space="preserve" font-family="GillSans-Light,Gill Sans" font-size="38.0" fill="#525252" transform="matrix(1.00, 0.00, -0.00, -1.00, 98.4, 412.6)">s</text><text xml:space="preserve" font-family="GillSans-Light,Gill Sans" font-size="38.0" fill="#525252" transform="matrix(1.00, 0.00, -0.00, -1.00, 111.8, 412.6)">o</text><text xml:space="preserve" font-family="GillSans-Light,Gill Sans" font-size="38.0" fill="#525252" transform="matrix(1.00, 0.00, -0.00, -1.00, 132.4, 412.6)"> </text><text xml:space="preserve" font-family="GillSans-Light,Gill Sans" font-size="38.0" fill="#525252" transform="matrix(1.00, 0.00, -0.00, -1.00, 143.0, 412.6)">c</text><text xml:space="preserve" font-family="GillSans-Light,Gill Sans" font-size="38.0" fill="#525252" transform="matrix(1.00, 0.00, -0.00, -1.00, 158.8, 412.6)">a</text><text xml:space="preserve" font-family="GillSans-Light,Gill Sans" font-size="38.0" fill="#525252" transform="matrix(1.00, 0.00, -0.00, -1.00, 175.0, 412.6)">l</text><text xml:space="preserve" font-family="GillSans-Light,Gill Sans" font-size="38.0" fill="#525252" transform="matrix(1.00, 0.00, -0.00, -1.00, 182.2, 412.6)">l</text><text xml:space="preserve" font-family="GillSans-Light,Gill Sans" font-size="38.0" fill="#525252" transform="matrix(1.00, 0.00, -0.00, -1.00, 189.3, 412.6)">e</text><text xml:space="preserve" font-family="GillSans-Light,Gill Sans" font-size="38.0" fill="#525252" transform="matrix(1.00, 0.00, -0.00, -1.00, 207.5, 412.6)">d</text><text xml:space="preserve" font-family="GillSans-Light,Gill Sans" font-size="38.0" fill="#525252" transform="matrix(1.00, 0.00, -0.00, -1.00, 226.9, 412.6)"> </text><text xml:space="preserve" font-family="GillSans-Light,Gill Sans" font-size="38.0" fill="#525252" transform="matrix(1.00, 0.00, -0.00, -1.00, 237.4, 412.6)">i</text><text xml:space="preserve" font-family="GillSans-Light,Gill Sans" font-size="38.0" fill="#525252" transform="matrix(1.00, 0.00, -0.00, -1.00, 244.6, 412.6)">n</text><text xml:space="preserve" font-family="GillSans-Light,Gill Sans" font-size="38.0" fill="#525252" transform="matrix(1.00, 0.00, -0.00, -1.00, 263.2, 412.6)">t</text><text xml:space="preserve" font-family="GillSans-Light,Gill Sans" font-size="38.0" fill="#525252" transform="matrix(1.00, 0.00, -0.00, -1.00, 274.7, 412.6)">e</text><text xml:space="preserve" font-family="GillSans-Light,Gill Sans" font-size="38.0" fill="#525252" transform="matrix(1.00, 0.00, -0.00, -1.00, 292.9, 412.6)">g</text><text xml:space="preserve" font-family="GillSans-Light,Gill Sans" font-size="38.0" fill="#525252" transform="matrix(1.00, 0.00, -0.00, -1.00, 309.1, 412.6)">r</text><text xml:space="preserve" font-family="GillSans-Light,Gill Sans" font-size="38.0" fill="#525252" transform="matrix(1.00, 0.00, -0.00, -1.00, 322.7, 412.6)">a</text><text xml:space="preserve" font-family="GillSans-Light,Gill Sans" font-size="38.0" fill="#525252" transform="matrix(1.00, 0.00, -0.00, -1.00, 338.9, 412.6)">t</text><text xml:space="preserve" font-family="GillSans-Light,Gill Sans" font-size="38.0" fill="#525252" transform="matrix(1.00, 0.00, -0.00, -1.00, 350.3, 412.6)">i</text><text xml:space="preserve" font-family="GillSans-Light,Gill Sans" font-size="38.0" fill="#525252" transform="matrix(1.00, 0.00, -0.00, -1.00, 357.5, 412.6)">o</text><text xml:space="preserve" font-family="GillSans-Light,Gill Sans" font-size="38.0" fill="#525252" transform="matrix(1.00, 0.00, -0.00, -1.00, 378.1, 412.6)">n</text><text xml:space="preserve" font-family="GillSans-Light,Gill Sans" font-size="38.0" fill="#525252" transform="matrix(1.00, 0.00, -0.00, -1.00, 396.7, 412.6)"> </text><text xml:space="preserve" font-family="GillSans-Light,Gill Sans" font-size="38.0" fill="#525252" transform="matrix(1.00, 0.00, -0.00, -1.00, 407.3, 412.6)">b</text><text xml:space="preserve" font-family="GillSans-Light,Gill Sans" font-size="38.0" fill="#525252" transform="matrix(1.00, 0.00, -0.00, -1.00, 426.6, 412.6)">r</text><text xml:space="preserve" font-family="GillSans-Light,Gill Sans" font-size="38.0" fill="#525252" transform="matrix(1.00, 0.00, -0.00, -1.00, 440.2, 412.6)">a</text><text xml:space="preserve" font-family="GillSans-Light,Gill Sans" font-size="38.0" fill="#525252" transform="matrix(1.00, 0.00, -0.00, -1.00, 456.4, 412.6)">n</text><text xml:space="preserve" font-family="GillSans-Light,Gill Sans" font-size="38.0" fill="#525252" transform="matrix(1.00, 0.00, -0.00, -1.00, 475.1, 412.6)">c</text><text xml:space="preserve" font-family="GillSans-Light,Gill Sans" font-size="38.0" fill="#525252" transform="matrix(1.00, 0.00, -0.00, -1.00, 490.9, 412.6)">h</text><g><clipPath id="clip0x6080010b3da0"><path d="M 598.0 649.0 L 1100.0 649.0 L 1100.0 -119.0 L 598.0 -119.0 Z M 598.4 649.0 "></path></clipPath><g clip-path="url(#clip0x6080010b3da0)"><image xlink:href="../../1BE07342-73D2-4CCA-A88B-3B071AF56A27/assets/F5F8ACDB3ED0883DB2F1EAF0FAD7DE02.png" width="611.00" height="815.00" transform="matrix(0.94, 0.00, -0.00, -0.94, 524.6, 649.0)"></image></g></g><path d="M 0.1 0.5 L 103.1 0.5 L 103.1 55.5 L 0.1 55.5 Z M 0.0 0.0 " fill="none" stroke="#A51601" stroke-width="7.00" transform="matrix(1.00, 0.00, 0.00, -1.00, 681.4, 648.0)"></path></g></svg>