<?xml version="1.0" encoding="UTF-8" standalone="no"?><svg xmlns="http://www.w3.org/2000/svg" xmlns:xlink="http://www.w3.org/1999/xlink" clip-rule="evenodd" stroke-miterlimit="10" viewBox="0 0 1024 768"><desc>SVG generated by Keynote</desc><defs></defs><g transform="matrix(1.00, 0.00, -0.00, -1.00, 0.0, 768.0)"><g><clipPath id="clip0x6080012a8640"><path d="M 0.0 768.0 L 1024.0 768.0 L 1024.0 0.0 L 0.0 0.0 Z M 0.0 768.0 "></path></clipPath><g clip-path="url(#clip0x6080012a8640)"><image xlink:href="../../AA67522E-33CB-4827-90AD-B35304285A38/assets/527288347077A8BC66C9A53B775387A8.jpeg" width="2048.00" height="1536.00" transform="matrix(0.50, 0.00, -0.00, -0.50, 0.0, 768.0)"></image></g></g><text xml:space="preserve" font-family="GillSans-Bold,Gill Sans" font-weight="bold" font-size="44.0" fill="#525252" transform="matrix(1.00, 0.00, -0.00, -1.00, 73.8, 643.3)">r</text><text xml:space="preserve" font-family="GillSans-Bold,Gill Sans" font-weight="bold" font-size="44.0" fill="#525252" transform="matrix(1.00, 0.00, -0.00, -1.00, 93.7, 643.3)">e</text><text xml:space="preserve" font-family="GillSans-Bold,Gill Sans" font-weight="bold" font-size="44.0" fill="#525252" transform="matrix(1.00, 0.00, -0.00, -1.00, 119.9, 643.3)">l</text><text xml:space="preserve" font-family="GillSans-Bold,Gill Sans" font-weight="bold" font-size="44.0" fill="#525252" transform="matrix(1.00, 0.00, -0.00, -1.00, 133.4, 643.3)">e</text><text xml:space="preserve" font-family="GillSans-Bold,Gill Sans" font-weight="bold" font-size="44.0" fill="#525252" transform="matrix(1.00, 0.00, -0.00, -1.00, 159.6, 643.3)">a</text><text xml:space="preserve" font-family="GillSans-Bold,Gill Sans" font-weight="bold" font-size="44.0" fill="#525252" transform="matrix(1.00, 0.00, -0.00, -1.00, 184.8, 643.3)">s</text><text xml:space="preserve" font-family="GillSans-Bold,Gill Sans" font-weight="bold" font-size="44.0" fill="#525252" transform="matrix(1.00, 0.00, -0.00, -1.00, 206.1, 643.3)">e</text><text xml:space="preserve" font-family="GillSans-Bold,Gill Sans" font-weight="bold" font-size="44.0" fill="#525252" transform="matrix(1.00, 0.00, -0.00, -1.00, 232.3, 643.3)"> </text><text xml:space="preserve" font-family="GillSans-Bold,Gill Sans" font-weight="bold" font-size="44.0" fill="#525252" transform="matrix(1.00, 0.00, -0.00, -1.00, 245.4, 643.3)">b</text><text xml:space="preserve" font-family="GillSans-Bold,Gill Sans" font-weight="bold" font-size="44.0" fill="#525252" transform="matrix(1.00, 0.00, -0.00, -1.00, 273.4, 643.3)">r</text><text xml:space="preserve" font-family="GillSans-Bold,Gill Sans" font-weight="bold" font-size="44.0" fill="#525252" transform="matrix(1.00, 0.00, -0.00, -1.00, 294.5, 643.3)">a</text><text xml:space="preserve" font-family="GillSans-Bold,Gill Sans" font-weight="bold" font-size="44.0" fill="#525252" transform="matrix(1.00, 0.00, -0.00, -1.00, 320.2, 643.3)">n</text><text xml:space="preserve" font-family="GillSans-Bold,Gill Sans" font-weight="bold" font-size="44.0" fill="#525252" transform="matrix(1.00, 0.00, -0.00, -1.00, 348.2, 643.3)">c</text><text xml:space="preserve" font-family="GillSans-Bold,Gill Sans" font-weight="bold" font-size="44.0" fill="#525252" transform="matrix(1.00, 0.00, -0.00, -1.00, 370.7, 643.3)">h</text><text xml:space="preserve" font-family="GillSans-Bold,Gill Sans" font-weight="bold" font-size="44.0" fill="#525252" transform="matrix(1.00, 0.00, -0.00, -1.00, 398.7, 643.3)">e</text><text xml:space="preserve" font-family="GillSans-Bold,Gill Sans" font-weight="bold" font-size="44.0" fill="#525252" transform="matrix(1.00, 0.00, -0.00, -1.00, 425.0, 643.3)">s</text><image xlink:href="../../42079842-18DD-4D93-8412-D214A020ECBA/assets/51A7A96D792EFCEA16AF4ACBDA3D78EB.png" width="84.00" height="90.00" transform="matrix(0.13, 0.00, -0.00, -0.13, 32.0, 559.8)"></image><text xml:space="preserve" font-family="GillSans-Light,Gill Sans" font-size="35.0" fill="#525252" transform="matrix(1.00, 0.00, -0.00, -1.00, 65.9, 545.0)">B</text><text xml:space="preserve" font-family="GillSans-Light,Gill Sans" font-size="35.0" fill="#525252" transform="matrix(1.00, 0.00, -0.00, -1.00, 84.4, 545.0)">r</text><text xml:space="preserve" font-family="GillSans-Light,Gill Sans" font-size="35.0" fill="#525252" transform="matrix(1.00, 0.00, -0.00, -1.00, 97.0, 545.0)">a</text><text xml:space="preserve" font-family="GillSans-Light,Gill Sans" font-size="35.0" fill="#525252" transform="matrix(1.00, 0.00, -0.00, -1.00, 111.9, 545.0)">n</text><text xml:space="preserve" font-family="GillSans-Light,Gill Sans" font-size="35.0" fill="#525252" transform="matrix(1.00, 0.00, -0.00, -1.00, 129.1, 545.0)">c</text><text xml:space="preserve" font-family="GillSans-Light,Gill Sans" font-size="35.0" fill="#525252" transform="matrix(1.00, 0.00, -0.00, -1.00, 143.7, 545.0)">h</text><text xml:space="preserve" font-family="GillSans-Light,Gill Sans" font-size="35.0" fill="#525252" transform="matrix(1.00, 0.00, -0.00, -1.00, 160.8, 545.0)"> </text><text xml:space="preserve" font-family="GillSans-Light,Gill Sans" font-size="35.0" fill="#525252" transform="matrix(1.00, 0.00, -0.00, -1.00, 170.5, 545.0)">o</text><text xml:space="preserve" font-family="GillSans-Light,Gill Sans" font-size="35.0" fill="#525252" transform="matrix(1.00, 0.00, -0.00, -1.00, 189.5, 545.0)">f</text><text xml:space="preserve" font-family="GillSans-Light,Gill Sans" font-size="35.0" fill="#525252" transform="matrix(1.00, 0.00, -0.00, -1.00, 197.9, 545.0)">f</text><text xml:space="preserve" font-family="GillSans-Light,Gill Sans" font-size="35.0" fill="#525252" transform="matrix(1.00, 0.00, -0.00, -1.00, 206.3, 545.0)"> </text><text xml:space="preserve" font-family="GillSans-Light,Gill Sans" font-size="35.0" fill="#525252" transform="matrix(1.00, 0.00, -0.00, -1.00, 216.1, 545.0)">f</text><text xml:space="preserve" font-family="GillSans-Light,Gill Sans" font-size="35.0" fill="#525252" transform="matrix(1.00, 0.00, -0.00, -1.00, 224.5, 545.0)">r</text><text xml:space="preserve" font-family="GillSans-Light,Gill Sans" font-size="35.0" fill="#525252" transform="matrix(1.00, 0.00, -0.00, -1.00, 236.1, 545.0)">o</text><text xml:space="preserve" font-family="GillSans-Light,Gill Sans" font-size="35.0" fill="#525252" transform="matrix(1.00, 0.00, -0.00, -1.00, 255.1, 545.0)">m</text><text xml:space="preserve" font-family="GillSans-Light,Gill Sans" font-size="35.0" fill="#525252" transform="matrix(1.00, 0.00, -0.00, -1.00, 282.1, 545.0)"> </text><text xml:space="preserve" font-family="GillSans-Italic,Gill Sans" font-style="italic" font-size="35.0" fill="#525252" transform="matrix(1.00, 0.00, -0.00, -1.00, 291.8, 545.0)">d</text><text xml:space="preserve" font-family="GillSans-Italic,Gill Sans" font-style="italic" font-size="35.0" fill="#525252" transform="matrix(1.00, 0.00, -0.00, -1.00, 308.2, 545.0)">e</text><text xml:space="preserve" font-family="GillSans-Italic,Gill Sans" font-style="italic" font-size="35.0" fill="#525252" transform="matrix(1.00, 0.00, -0.00, -1.00, 323.0, 545.0)">v</text><text xml:space="preserve" font-family="GillSans-Italic,Gill Sans" font-style="italic" font-size="35.0" fill="#525252" transform="matrix(1.00, 0.00, -0.00, -1.00, 336.2, 545.0)">e</text><text xml:space="preserve" font-family="GillSans-Italic,Gill Sans" font-style="italic" font-size="35.0" fill="#525252" transform="matrix(1.00, 0.00, -0.00, -1.00, 351.5, 545.0)">l</text><text xml:space="preserve" font-family="GillSans-Italic,Gill Sans" font-style="italic" font-size="35.0" fill="#525252" transform="matrix(1.00, 0.00, -0.00, -1.00, 358.1, 545.0)">o</text><text xml:space="preserve" font-family="GillSans-Italic,Gill Sans" font-style="italic" font-size="35.0" fill="#525252" transform="matrix(1.00, 0.00, -0.00, -1.00, 373.8, 545.0)">p</text><text xml:space="preserve" font-family="GillSans-Light,Gill Sans" font-size="35.0" fill="#525252" transform="matrix(1.00, 0.00, -0.00, -1.00, 390.9, 545.0)"> </text><text xml:space="preserve" font-family="GillSans-Light,Gill Sans" font-size="35.0" fill="#525252" transform="matrix(1.00, 0.00, -0.00, -1.00, 400.6, 545.0)">w</text><text xml:space="preserve" font-family="GillSans-Light,Gill Sans" font-size="35.0" fill="#525252" transform="matrix(1.00, 0.00, -0.00, -1.00, 425.4, 545.0)">h</text><text xml:space="preserve" font-family="GillSans-Light,Gill Sans" font-size="35.0" fill="#525252" transform="matrix(1.00, 0.00, -0.00, -1.00, 442.6, 545.0)">e</text><text xml:space="preserve" font-family="GillSans-Light,Gill Sans" font-size="35.0" fill="#525252" transform="matrix(1.00, 0.00, -0.00, -1.00, 459.3, 545.0)">n</text><text xml:space="preserve" font-family="GillSans-Light,Gill Sans" font-size="35.0" fill="#525252" transform="matrix(1.00, 0.00, -0.00, -1.00, 476.5, 545.0)"> </text><text xml:space="preserve" font-family="GillSans-Light,Gill Sans" font-size="35.0" fill="#525252" transform="matrix(1.00, 0.00, -0.00, -1.00, 486.2, 545.0)">a</text><text xml:space="preserve" font-family="GillSans-Light,Gill Sans" font-size="35.0" fill="#525252" transform="matrix(1.00, 0.00, -0.00, -1.00, 501.1, 545.0)">l</text><text xml:space="preserve" font-family="GillSans-Light,Gill Sans" font-size="35.0" fill="#525252" transform="matrix(1.00, 0.00, -0.00, -1.00, 507.7, 545.0)">l</text><text xml:space="preserve" font-family="GillSans-Light,Gill Sans" font-size="35.0" fill="#525252" transform="matrix(1.00, 0.00, -0.00, -1.00, 514.3, 545.0)"> </text><text xml:space="preserve" font-family="GillSans-Italic,Gill Sans" font-style="italic" font-size="35.0" fill="#525252" transform="matrix(1.00, 0.00, -0.00, -1.00, 65.9, 484.6)">f</text><text xml:space="preserve" font-family="GillSans-Italic,Gill Sans" font-style="italic" font-size="35.0" fill="#525252" transform="matrix(1.00, 0.00, -0.00, -1.00, 74.8, 484.6)">e</text><text xml:space="preserve" font-family="GillSans-Italic,Gill Sans" font-style="italic" font-size="35.0" fill="#525252" transform="matrix(1.00, 0.00, -0.00, -1.00, 90.2, 484.6)">a</text><text xml:space="preserve" font-family="GillSans-Italic,Gill Sans" font-style="italic" font-size="35.0" fill="#525252" transform="matrix(1.00, 0.00, -0.00, -1.00, 106.6, 484.6)">t</text><text xml:space="preserve" font-family="GillSans-Italic,Gill Sans" font-style="italic" font-size="35.0" fill="#525252" transform="matrix(1.00, 0.00, -0.00, -1.00, 116.4, 484.6)">u</text><text xml:space="preserve" font-family="GillSans-Italic,Gill Sans" font-style="italic" font-size="35.0" fill="#525252" transform="matrix(1.00, 0.00, -0.00, -1.00, 132.8, 484.6)">r</text><text xml:space="preserve" font-family="GillSans-Italic,Gill Sans" font-style="italic" font-size="35.0" fill="#525252" transform="matrix(1.00, 0.00, -0.00, -1.00, 143.4, 484.6)">e</text><text xml:space="preserve" font-family="GillSans-Italic,Gill Sans" font-style="italic" font-size="35.0" fill="#525252" transform="matrix(1.00, 0.00, -0.00, -1.00, 158.8, 484.6)">s</text><text xml:space="preserve" font-family="GillSans-Light,Gill Sans" font-size="35.0" fill="#525252" transform="matrix(1.00, 0.00, -0.00, -1.00, 171.2, 484.6)"> </text><text xml:space="preserve" font-family="GillSans-Light,Gill Sans" font-size="35.0" fill="#525252" transform="matrix(1.00, 0.00, -0.00, -1.00, 180.9, 484.6)">t</text><text xml:space="preserve" font-family="GillSans-Light,Gill Sans" font-size="35.0" fill="#525252" transform="matrix(1.00, 0.00, -0.00, -1.00, 191.4, 484.6)">o</text><text xml:space="preserve" font-family="GillSans-Light,Gill Sans" font-size="35.0" fill="#525252" transform="matrix(1.00, 0.00, -0.00, -1.00, 210.4, 484.6)"> </text><text xml:space="preserve" font-family="GillSans-Light,Gill Sans" font-size="35.0" fill="#525252" transform="matrix(1.00, 0.00, -0.00, -1.00, 220.1, 484.6)">b</text><text xml:space="preserve" font-family="GillSans-Light,Gill Sans" font-size="35.0" fill="#525252" transform="matrix(1.00, 0.00, -0.00, -1.00, 238.0, 484.6)">e</text><text xml:space="preserve" font-family="GillSans-Light,Gill Sans" font-size="35.0" fill="#525252" transform="matrix(1.00, 0.00, -0.00, -1.00, 254.7, 484.6)"> </text><text xml:space="preserve" font-family="GillSans-Light,Gill Sans" font-size="35.0" fill="#525252" transform="matrix(1.00, 0.00, -0.00, -1.00, 264.4, 484.6)">r</text><text xml:space="preserve" font-family="GillSans-Light,Gill Sans" font-size="35.0" fill="#525252" transform="matrix(1.00, 0.00, -0.00, -1.00, 276.1, 484.6)">e</text><text xml:space="preserve" font-family="GillSans-Light,Gill Sans" font-size="35.0" fill="#525252" transform="matrix(1.00, 0.00, -0.00, -1.00, 292.9, 484.6)">l</text><text xml:space="preserve" font-family="GillSans-Light,Gill Sans" font-size="35.0" fill="#525252" transform="matrix(1.00, 0.00, -0.00, -1.00, 299.4, 484.6)">e</text><text xml:space="preserve" font-family="GillSans-Light,Gill Sans" font-size="35.0" fill="#525252" transform="matrix(1.00, 0.00, -0.00, -1.00, 316.2, 484.6)">a</text><text xml:space="preserve" font-family="GillSans-Light,Gill Sans" font-size="35.0" fill="#525252" transform="matrix(1.00, 0.00, -0.00, -1.00, 331.1, 484.6)">s</text><text xml:space="preserve" font-family="GillSans-Light,Gill Sans" font-size="35.0" fill="#525252" transform="matrix(1.00, 0.00, -0.00, -1.00, 343.5, 484.6)">e</text><text xml:space="preserve" font-family="GillSans-Light,Gill Sans" font-size="35.0" fill="#525252" transform="matrix(1.00, 0.00, -0.00, -1.00, 360.3, 484.6)">d</text><text xml:space="preserve" font-family="GillSans-Light,Gill Sans" font-size="35.0" fill="#525252" transform="matrix(1.00, 0.00, -0.00, -1.00, 378.1, 484.6)"> </text><text xml:space="preserve" font-family="GillSans-Light,Gill Sans" font-size="35.0" fill="#525252" transform="matrix(1.00, 0.00, -0.00, -1.00, 387.8, 484.6)">a</text><text xml:space="preserve" font-family="GillSans-Light,Gill Sans" font-size="35.0" fill="#525252" transform="matrix(1.00, 0.00, -0.00, -1.00, 402.8, 484.6)">r</text><text xml:space="preserve" font-family="GillSans-Light,Gill Sans" font-size="35.0" fill="#525252" transform="matrix(1.00, 0.00, -0.00, -1.00, 414.4, 484.6)">e</text><text xml:space="preserve" font-family="GillSans-Light,Gill Sans" font-size="35.0" fill="#525252" transform="matrix(1.00, 0.00, -0.00, -1.00, 431.2, 484.6)"> </text><text xml:space="preserve" font-family="GillSans-Light,Gill Sans" font-size="35.0" fill="#525252" transform="matrix(1.00, 0.00, -0.00, -1.00, 440.9, 484.6)">m</text><text xml:space="preserve" font-family="GillSans-Light,Gill Sans" font-size="35.0" fill="#525252" transform="matrix(1.00, 0.00, -0.00, -1.00, 467.9, 484.6)">e</text><text xml:space="preserve" font-family="GillSans-Light,Gill Sans" font-size="35.0" fill="#525252" transform="matrix(1.00, 0.00, -0.00, -1.00, 484.7, 484.6)">r</text><text xml:space="preserve" font-family="GillSans-Light,Gill Sans" font-size="35.0" fill="#525252" transform="matrix(1.00, 0.00, -0.00, -1.00, 497.2, 484.6)">g</text><text xml:space="preserve" font-family="GillSans-Light,Gill Sans" font-size="35.0" fill="#525252" transform="matrix(1.00, 0.00, -0.00, -1.00, 512.1, 484.6)">e</text><text xml:space="preserve" font-family="GillSans-Light,Gill Sans" font-size="35.0" fill="#525252" transform="matrix(1.00, 0.00, -0.00, -1.00, 528.9, 484.6)">d</text><text xml:space="preserve" font-family="GillSans-Light,Gill Sans" font-size="35.0" fill="#525252" transform="matrix(1.00, 0.00, -0.00, -1.00, 546.7, 484.6)"> </text><text xml:space="preserve" font-family="GillSans-Light,Gill Sans" font-size="35.0" fill="#525252" transform="matrix(1.00, 0.00, -0.00, -1.00, 65.9, 424.2)">i</text><text xml:space="preserve" font-family="GillSans-Light,Gill Sans" font-size="35.0" fill="#525252" transform="matrix(1.00, 0.00, -0.00, -1.00, 72.4, 424.2)">n</text><text xml:space="preserve" font-family="GillSans-Light,Gill Sans" font-size="35.0" fill="#525252" transform="matrix(1.00, 0.00, -0.00, -1.00, 89.6, 424.2)">t</text><text xml:space="preserve" font-family="GillSans-Light,Gill Sans" font-size="35.0" fill="#525252" transform="matrix(1.00, 0.00, -0.00, -1.00, 100.2, 424.2)">o</text><text xml:space="preserve" font-family="GillSans-Light,Gill Sans" font-size="35.0" fill="#525252" transform="matrix(1.00, 0.00, -0.00, -1.00, 119.1, 424.2)"> </text><text xml:space="preserve" font-family="GillSans-Italic,Gill Sans" font-style="italic" font-size="35.0" fill="#525252" transform="matrix(1.00, 0.00, -0.00, -1.00, 128.9, 424.2)">d</text><text xml:space="preserve" font-family="GillSans-Italic,Gill Sans" font-style="italic" font-size="35.0" fill="#525252" transform="matrix(1.00, 0.00, -0.00, -1.00, 145.3, 424.2)">e</text><text xml:space="preserve" font-family="GillSans-Italic,Gill Sans" font-style="italic" font-size="35.0" fill="#525252" transform="matrix(1.00, 0.00, -0.00, -1.00, 160.1, 424.2)">v</text><text xml:space="preserve" font-family="GillSans-Italic,Gill Sans" font-style="italic" font-size="35.0" fill="#525252" transform="matrix(1.00, 0.00, -0.00, -1.00, 173.2, 424.2)">e</text><text xml:space="preserve" font-family="GillSans-Italic,Gill Sans" font-style="italic" font-size="35.0" fill="#525252" transform="matrix(1.00, 0.00, -0.00, -1.00, 188.5, 424.2)">l</text><text xml:space="preserve" font-family="GillSans-Italic,Gill Sans" font-style="italic" font-size="35.0" fill="#525252" transform="matrix(1.00, 0.00, -0.00, -1.00, 195.1, 424.2)">o</text><text xml:space="preserve" font-family="GillSans-Italic,Gill Sans" font-style="italic" font-size="35.0" fill="#525252" transform="matrix(1.00, 0.00, -0.00, -1.00, 210.8, 424.2)">p</text><text xml:space="preserve" font-family="GillSans-Light,Gill Sans" font-size="35.0" fill="#525252" transform="matrix(1.00, 0.00, -0.00, -1.00, 228.0, 424.2)"> </text><text xml:space="preserve" font-family="GillSans-Light,Gill Sans" font-size="35.0" fill="#525252" transform="matrix(1.00, 0.00, -0.00, -1.00, 237.7, 424.2)">(</text><text xml:space="preserve" font-family="GillSans-Italic,Gill Sans" font-style="italic" font-size="35.0" fill="#525252" transform="matrix(1.00, 0.00, -0.00, -1.00, 249.3, 424.2)">F</text><text xml:space="preserve" font-family="GillSans-Italic,Gill Sans" font-style="italic" font-size="35.0" fill="#525252" transform="matrix(1.00, 0.00, -0.00, -1.00, 263.4, 424.2)">e</text><text xml:space="preserve" font-family="GillSans-Italic,Gill Sans" font-style="italic" font-size="35.0" fill="#525252" transform="matrix(1.00, 0.00, -0.00, -1.00, 278.7, 424.2)">a</text><text xml:space="preserve" font-family="GillSans-Italic,Gill Sans" font-style="italic" font-size="35.0" fill="#525252" transform="matrix(1.00, 0.00, -0.00, -1.00, 295.2, 424.2)">t</text><text xml:space="preserve" font-family="GillSans-Italic,Gill Sans" font-style="italic" font-size="35.0" fill="#525252" transform="matrix(1.00, 0.00, -0.00, -1.00, 305.0, 424.2)">u</text><text xml:space="preserve" font-family="GillSans-Italic,Gill Sans" font-style="italic" font-size="35.0" fill="#525252" transform="matrix(1.00, 0.00, -0.00, -1.00, 321.4, 424.2)">r</text><text xml:space="preserve" font-family="GillSans-Italic,Gill Sans" font-style="italic" font-size="35.0" fill="#525252" transform="matrix(1.00, 0.00, -0.00, -1.00, 332.0, 424.2)">e</text><text xml:space="preserve" font-family="GillSans-Italic,Gill Sans" font-style="italic" font-size="35.0" fill="#525252" transform="matrix(1.00, 0.00, -0.00, -1.00, 347.4, 424.2)">s</text><text xml:space="preserve" font-family="GillSans-Light,Gill Sans" font-size="35.0" fill="#525252" transform="matrix(1.00, 0.00, -0.00, -1.00, 359.7, 424.2)"> </text><text xml:space="preserve" font-family="GillSans-Light,Gill Sans" font-size="35.0" fill="#525252" transform="matrix(1.00, 0.00, -0.00, -1.00, 369.5, 424.2)">f</text><text xml:space="preserve" font-family="GillSans-Light,Gill Sans" font-size="35.0" fill="#525252" transform="matrix(1.00, 0.00, -0.00, -1.00, 377.5, 424.2)">o</text><text xml:space="preserve" font-family="GillSans-Light,Gill Sans" font-size="35.0" fill="#525252" transform="matrix(1.00, 0.00, -0.00, -1.00, 396.5, 424.2)">r</text><text xml:space="preserve" font-family="GillSans-Light,Gill Sans" font-size="35.0" fill="#525252" transform="matrix(1.00, 0.00, -0.00, -1.00, 408.2, 424.2)"> </text><text xml:space="preserve" font-family="LucidaGrande,Lucida Grande" font-size="35.0" fill="#525252" transform="matrix(1.00, 0.00, -0.00, -1.00, 417.9, 424.2)"> </text><text xml:space="preserve" font-family="GillSans-Light,Gill Sans" font-size="35.0" fill="#525252" transform="matrix(1.00, 0.00, -0.00, -1.00, 65.9, 362.4)">f</text><text xml:space="preserve" font-family="GillSans-Light,Gill Sans" font-size="35.0" fill="#525252" transform="matrix(1.00, 0.00, -0.00, -1.00, 74.3, 362.4)">u</text><text xml:space="preserve" font-family="GillSans-Light,Gill Sans" font-size="35.0" fill="#525252" transform="matrix(1.00, 0.00, -0.00, -1.00, 91.4, 362.4)">t</text><text xml:space="preserve" font-family="GillSans-Light,Gill Sans" font-size="35.0" fill="#525252" transform="matrix(1.00, 0.00, -0.00, -1.00, 102.0, 362.4)">u</text><text xml:space="preserve" font-family="GillSans-Light,Gill Sans" font-size="35.0" fill="#525252" transform="matrix(1.00, 0.00, -0.00, -1.00, 119.2, 362.4)">r</text><text xml:space="preserve" font-family="GillSans-Light,Gill Sans" font-size="35.0" fill="#525252" transform="matrix(1.00, 0.00, -0.00, -1.00, 130.8, 362.4)">e</text><text xml:space="preserve" font-family="GillSans-Light,Gill Sans" font-size="35.0" fill="#525252" transform="matrix(1.00, 0.00, -0.00, -1.00, 147.6, 362.4)"> </text><text xml:space="preserve" font-family="GillSans-Light,Gill Sans" font-size="35.0" fill="#525252" transform="matrix(1.00, 0.00, -0.00, -1.00, 157.3, 362.4)">r</text><text xml:space="preserve" font-family="GillSans-Light,Gill Sans" font-size="35.0" fill="#525252" transform="matrix(1.00, 0.00, -0.00, -1.00, 169.0, 362.4)">e</text><text xml:space="preserve" font-family="GillSans-Light,Gill Sans" font-size="35.0" fill="#525252" transform="matrix(1.00, 0.00, -0.00, -1.00, 185.7, 362.4)">l</text><text xml:space="preserve" font-family="GillSans-Light,Gill Sans" font-size="35.0" fill="#525252" transform="matrix(1.00, 0.00, -0.00, -1.00, 192.3, 362.4)">e</text><text xml:space="preserve" font-family="GillSans-Light,Gill Sans" font-size="35.0" fill="#525252" transform="matrix(1.00, 0.00, -0.00, -1.00, 209.1, 362.4)">a</text><text xml:space="preserve" font-family="GillSans-Light,Gill Sans" font-size="35.0" fill="#525252" transform="matrix(1.00, 0.00, -0.00, -1.00, 224.0, 362.4)">s</text><text xml:space="preserve" font-family="GillSans-Light,Gill Sans" font-size="35.0" fill="#525252" transform="matrix(1.00, 0.00, -0.00, -1.00, 236.4, 362.4)">e</text><text xml:space="preserve" font-family="GillSans-Light,Gill Sans" font-size="35.0" fill="#525252" transform="matrix(1.00, 0.00, -0.00, -1.00, 253.2, 362.4)">s</text><text xml:space="preserve" font-family="GillSans-Light,Gill Sans" font-size="35.0" fill="#525252" transform="matrix(1.00, 0.00, -0.00, -1.00, 265.5, 362.4)"> </text><text xml:space="preserve" font-family="GillSans-Light,Gill Sans" font-size="35.0" fill="#525252" transform="matrix(1.00, 0.00, -0.00, -1.00, 275.3, 362.4)">m</text><text xml:space="preserve" font-family="GillSans-Light,Gill Sans" font-size="35.0" fill="#525252" transform="matrix(1.00, 0.00, -0.00, -1.00, 302.2, 362.4)">a</text><text xml:space="preserve" font-family="GillSans-Light,Gill Sans" font-size="35.0" fill="#525252" transform="matrix(1.00, 0.00, -0.00, -1.00, 316.6, 362.4)">y</text><text xml:space="preserve" font-family="GillSans-Light,Gill Sans" font-size="35.0" fill="#525252" transform="matrix(1.00, 0.00, -0.00, -1.00, 331.2, 362.4)"> </text><text xml:space="preserve" font-family="GillSans-SemiBold,Gill Sans" font-weight="bold" font-size="35.0" fill="#EA3C43" transform="matrix(1.00, 0.00, -0.00, -1.00, 341.0, 362.4)">n</text><text xml:space="preserve" font-family="GillSans-SemiBold,Gill Sans" font-weight="bold" font-size="35.0" fill="#EA3C43" transform="matrix(1.00, 0.00, -0.00, -1.00, 359.9, 362.4)">o</text><text xml:space="preserve" font-family="GillSans-SemiBold,Gill Sans" font-weight="bold" font-size="35.0" fill="#EA3C43" transform="matrix(1.00, 0.00, -0.00, -1.00, 380.0, 362.4)">t</text><text xml:space="preserve" font-family="GillSans-Light,Gill Sans" font-size="35.0" fill="#525252" transform="matrix(1.00, 0.00, -0.00, -1.00, 392.9, 362.4)"> </text><text xml:space="preserve" font-family="GillSans-Light,Gill Sans" font-size="35.0" fill="#525252" transform="matrix(1.00, 0.00, -0.00, -1.00, 402.6, 362.4)">b</text><text xml:space="preserve" font-family="GillSans-Light,Gill Sans" font-size="35.0" fill="#525252" transform="matrix(1.00, 0.00, -0.00, -1.00, 420.5, 362.4)">e</text><text xml:space="preserve" font-family="GillSans-Light,Gill Sans" font-size="35.0" fill="#525252" transform="matrix(1.00, 0.00, -0.00, -1.00, 437.2, 362.4)"> </text><text xml:space="preserve" font-family="LucidaGrande,Lucida Grande" font-size="35.0" fill="#525252" transform="matrix(1.00, 0.00, -0.00, -1.00, 447.0, 362.4)"> </text><text xml:space="preserve" font-family="GillSans-Light,Gill Sans" font-size="35.0" fill="#525252" transform="matrix(1.00, 0.00, -0.00, -1.00, 65.9, 300.7)">m</text><text xml:space="preserve" font-family="GillSans-Light,Gill Sans" font-size="35.0" fill="#525252" transform="matrix(1.00, 0.00, -0.00, -1.00, 92.9, 300.7)">e</text><text xml:space="preserve" font-family="GillSans-Light,Gill Sans" font-size="35.0" fill="#525252" transform="matrix(1.00, 0.00, -0.00, -1.00, 109.6, 300.7)">r</text><text xml:space="preserve" font-family="GillSans-Light,Gill Sans" font-size="35.0" fill="#525252" transform="matrix(1.00, 0.00, -0.00, -1.00, 122.1, 300.7)">g</text><text xml:space="preserve" font-family="GillSans-Light,Gill Sans" font-size="35.0" fill="#525252" transform="matrix(1.00, 0.00, -0.00, -1.00, 137.1, 300.7)">e</text><text xml:space="preserve" font-family="GillSans-Light,Gill Sans" font-size="35.0" fill="#525252" transform="matrix(1.00, 0.00, -0.00, -1.00, 153.8, 300.7)">d</text><text xml:space="preserve" font-family="GillSans-Light,Gill Sans" font-size="35.0" fill="#525252" transform="matrix(1.00, 0.00, -0.00, -1.00, 171.7, 300.7)"> </text><text xml:space="preserve" font-family="GillSans-Light,Gill Sans" font-size="35.0" fill="#525252" transform="matrix(1.00, 0.00, -0.00, -1.00, 181.4, 300.7)">i</text><text xml:space="preserve" font-family="GillSans-Light,Gill Sans" font-size="35.0" fill="#525252" transform="matrix(1.00, 0.00, -0.00, -1.00, 188.0, 300.7)">n</text><text xml:space="preserve" font-family="GillSans-Light,Gill Sans" font-size="35.0" fill="#525252" transform="matrix(1.00, 0.00, -0.00, -1.00, 205.1, 300.7)">t</text><text xml:space="preserve" font-family="GillSans-Light,Gill Sans" font-size="35.0" fill="#525252" transform="matrix(1.00, 0.00, -0.00, -1.00, 215.7, 300.7)">o</text><text xml:space="preserve" font-family="GillSans-Light,Gill Sans" font-size="35.0" fill="#525252" transform="matrix(1.00, 0.00, -0.00, -1.00, 234.7, 300.7)"> </text><text xml:space="preserve" font-family="GillSans-Italic,Gill Sans" font-style="italic" font-size="35.0" fill="#525252" transform="matrix(1.00, 0.00, -0.00, -1.00, 244.4, 300.7)">d</text><text xml:space="preserve" font-family="GillSans-Italic,Gill Sans" font-style="italic" font-size="35.0" fill="#525252" transform="matrix(1.00, 0.00, -0.00, -1.00, 260.8, 300.7)">e</text><text xml:space="preserve" font-family="GillSans-Italic,Gill Sans" font-style="italic" font-size="35.0" fill="#525252" transform="matrix(1.00, 0.00, -0.00, -1.00, 275.6, 300.7)">v</text><text xml:space="preserve" font-family="GillSans-Italic,Gill Sans" font-style="italic" font-size="35.0" fill="#525252" transform="matrix(1.00, 0.00, -0.00, -1.00, 288.8, 300.7)">e</text><text xml:space="preserve" font-family="GillSans-Italic,Gill Sans" font-style="italic" font-size="35.0" fill="#525252" transform="matrix(1.00, 0.00, -0.00, -1.00, 304.1, 300.7)">l</text><text xml:space="preserve" font-family="GillSans-Italic,Gill Sans" font-style="italic" font-size="35.0" fill="#525252" transform="matrix(1.00, 0.00, -0.00, -1.00, 310.7, 300.7)">o</text><text xml:space="preserve" font-family="GillSans-Italic,Gill Sans" font-style="italic" font-size="35.0" fill="#525252" transform="matrix(1.00, 0.00, -0.00, -1.00, 326.4, 300.7)">p</text><text xml:space="preserve" font-family="GillSans-Light,Gill Sans" font-size="35.0" fill="#525252" transform="matrix(1.00, 0.00, -0.00, -1.00, 343.5, 300.7)"> </text><text xml:space="preserve" font-family="GillSans-Light,Gill Sans" font-size="35.0" fill="#525252" transform="matrix(1.00, 0.00, -0.00, -1.00, 353.2, 300.7)">a</text><text xml:space="preserve" font-family="GillSans-Light,Gill Sans" font-size="35.0" fill="#525252" transform="matrix(1.00, 0.00, -0.00, -1.00, 368.2, 300.7)">t</text><text xml:space="preserve" font-family="GillSans-Light,Gill Sans" font-size="35.0" fill="#525252" transform="matrix(1.00, 0.00, -0.00, -1.00, 378.7, 300.7)"> </text><text xml:space="preserve" font-family="GillSans-Light,Gill Sans" font-size="35.0" fill="#525252" transform="matrix(1.00, 0.00, -0.00, -1.00, 388.4, 300.7)">t</text><text xml:space="preserve" font-family="GillSans-Light,Gill Sans" font-size="35.0" fill="#525252" transform="matrix(1.00, 0.00, -0.00, -1.00, 399.0, 300.7)">h</text><text xml:space="preserve" font-family="GillSans-Light,Gill Sans" font-size="35.0" fill="#525252" transform="matrix(1.00, 0.00, -0.00, -1.00, 416.1, 300.7)">e</text><text xml:space="preserve" font-family="GillSans-Light,Gill Sans" font-size="35.0" fill="#525252" transform="matrix(1.00, 0.00, -0.00, -1.00, 432.9, 300.7)"> </text><text xml:space="preserve" font-family="GillSans-Light,Gill Sans" font-size="35.0" fill="#525252" transform="matrix(1.00, 0.00, -0.00, -1.00, 442.6, 300.7)">p</text><text xml:space="preserve" font-family="GillSans-Light,Gill Sans" font-size="35.0" fill="#525252" transform="matrix(1.00, 0.00, -0.00, -1.00, 460.5, 300.7)">o</text><text xml:space="preserve" font-family="GillSans-Light,Gill Sans" font-size="35.0" fill="#525252" transform="matrix(1.00, 0.00, -0.00, -1.00, 479.4, 300.7)">i</text><text xml:space="preserve" font-family="GillSans-Light,Gill Sans" font-size="35.0" fill="#525252" transform="matrix(1.00, 0.00, -0.00, -1.00, 486.0, 300.7)">n</text><text xml:space="preserve" font-family="GillSans-Light,Gill Sans" font-size="35.0" fill="#525252" transform="matrix(1.00, 0.00, -0.00, -1.00, 503.2, 300.7)">t</text><text xml:space="preserve" font-family="GillSans-Light,Gill Sans" font-size="35.0" fill="#525252" transform="matrix(1.00, 0.00, -0.00, -1.00, 513.7, 300.7)">.</text><text xml:space="preserve" font-family="GillSans-Light,Gill Sans" font-size="35.0" fill="#525252" transform="matrix(1.00, 0.00, -0.00, -1.00, 519.9, 300.7)">)</text><text xml:space="preserve" font-family="GillSans-Light,Gill Sans" font-size="35.0" fill="#525252" transform="matrix(1.00, 0.00, -0.00, -1.00, 531.6, 300.7)">.</text><text xml:space="preserve" font-family="GillSans-Light,Gill Sans" font-size="35.0" fill="#525252" transform="matrix(1.00, 0.00, -0.00, -1.00, 534.9, 300.7)"> </text><text xml:space="preserve" font-family="GillSans-Light,Gill Sans" font-size="35.0" fill="#525252" transform="matrix(1.00, 0.00, -0.00, -1.00, 544.7, 300.7)">	</text><text xml:space="preserve" font-family="GillSans-Light,Gill Sans" font-size="35.0" fill="#525252" transform="matrix(1.00, 0.00, -0.00, -1.00, 572.7, 300.7)">
</text><text xml:space="preserve" font-family="GillSans-Light,Gill Sans" font-size="35.0" fill="#525252" transform="matrix(1.00, 0.00, -0.00, -1.00, 572.7, 300.7)"></text><image xlink:href="../../42079842-18DD-4D93-8412-D214A020ECBA/assets/51A7A96D792EFCEA16AF4ACBDA3D78EB.png" width="84.00" height="90.00" transform="matrix(0.13, 0.00, -0.00, -0.13, 32.0, 256.1)"></image><text xml:space="preserve" font-family="GillSans-Light,Gill Sans" font-size="35.0" fill="#525252" transform="matrix(1.00, 0.00, -0.00, -1.00, 65.9, 241.6)">A</text><text xml:space="preserve" font-family="GillSans-Light,Gill Sans" font-size="35.0" fill="#525252" transform="matrix(1.00, 0.00, -0.00, -1.00, 89.2, 241.6)">l</text><text xml:space="preserve" font-family="GillSans-Light,Gill Sans" font-size="35.0" fill="#525252" transform="matrix(1.00, 0.00, -0.00, -1.00, 95.8, 241.6)">l</text><text xml:space="preserve" font-family="GillSans-Light,Gill Sans" font-size="35.0" fill="#525252" transform="matrix(1.00, 0.00, -0.00, -1.00, 102.4, 241.6)">o</text><text xml:space="preserve" font-family="GillSans-Light,Gill Sans" font-size="35.0" fill="#525252" transform="matrix(1.00, 0.00, -0.00, -1.00, 120.8, 241.6)">w</text><text xml:space="preserve" font-family="GillSans-Light,Gill Sans" font-size="35.0" fill="#525252" transform="matrix(1.00, 0.00, -0.00, -1.00, 145.6, 241.6)"> </text><text xml:space="preserve" font-family="GillSans-Light,Gill Sans" font-size="35.0" fill="#525252" transform="matrix(1.00, 0.00, -0.00, -1.00, 155.3, 241.6)">f</text><text xml:space="preserve" font-family="GillSans-Light,Gill Sans" font-size="35.0" fill="#525252" transform="matrix(1.00, 0.00, -0.00, -1.00, 163.4, 241.6)">o</text><text xml:space="preserve" font-family="GillSans-Light,Gill Sans" font-size="35.0" fill="#525252" transform="matrix(1.00, 0.00, -0.00, -1.00, 182.4, 241.6)">r</text><text xml:space="preserve" font-family="GillSans-Light,Gill Sans" font-size="35.0" fill="#525252" transform="matrix(1.00, 0.00, -0.00, -1.00, 194.0, 241.6)"> </text><text xml:space="preserve" font-family="GillSans-Light,Gill Sans" font-size="35.0" fill="#525252" transform="matrix(1.00, 0.00, -0.00, -1.00, 203.7, 241.6)">m</text><text xml:space="preserve" font-family="GillSans-Light,Gill Sans" font-size="35.0" fill="#525252" transform="matrix(1.00, 0.00, -0.00, -1.00, 230.7, 241.6)">i</text><text xml:space="preserve" font-family="GillSans-Light,Gill Sans" font-size="35.0" fill="#525252" transform="matrix(1.00, 0.00, -0.00, -1.00, 237.3, 241.6)">n</text><text xml:space="preserve" font-family="GillSans-Light,Gill Sans" font-size="35.0" fill="#525252" transform="matrix(1.00, 0.00, -0.00, -1.00, 254.5, 241.6)">o</text><text xml:space="preserve" font-family="GillSans-Light,Gill Sans" font-size="35.0" fill="#525252" transform="matrix(1.00, 0.00, -0.00, -1.00, 273.4, 241.6)">r</text><text xml:space="preserve" font-family="GillSans-Light,Gill Sans" font-size="35.0" fill="#525252" transform="matrix(1.00, 0.00, -0.00, -1.00, 285.1, 241.6)"> </text><text xml:space="preserve" font-family="GillSans-Light,Gill Sans" font-size="35.0" fill="#525252" transform="matrix(1.00, 0.00, -0.00, -1.00, 294.8, 241.6)">b</text><text xml:space="preserve" font-family="GillSans-Light,Gill Sans" font-size="35.0" fill="#525252" transform="matrix(1.00, 0.00, -0.00, -1.00, 312.3, 241.6)">u</text><text xml:space="preserve" font-family="GillSans-Light,Gill Sans" font-size="35.0" fill="#525252" transform="matrix(1.00, 0.00, -0.00, -1.00, 329.5, 241.6)">g</text><text xml:space="preserve" font-family="GillSans-Light,Gill Sans" font-size="35.0" fill="#525252" transform="matrix(1.00, 0.00, -0.00, -1.00, 344.4, 241.6)"> </text><text xml:space="preserve" font-family="GillSans-Light,Gill Sans" font-size="35.0" fill="#525252" transform="matrix(1.00, 0.00, -0.00, -1.00, 354.1, 241.6)">ﬁ</text><text xml:space="preserve" font-family="GillSans-Light,Gill Sans" font-size="35.0" fill="#525252" transform="matrix(1.00, 0.00, -0.00, -1.00, 370.9, 241.6)">x</text><text xml:space="preserve" font-family="GillSans-Light,Gill Sans" font-size="35.0" fill="#525252" transform="matrix(1.00, 0.00, -0.00, -1.00, 386.9, 241.6)">e</text><text xml:space="preserve" font-family="GillSans-Light,Gill Sans" font-size="35.0" fill="#525252" transform="matrix(1.00, 0.00, -0.00, -1.00, 403.7, 241.6)">s</text><text xml:space="preserve" font-family="GillSans-Light,Gill Sans" font-size="35.0" fill="#525252" transform="matrix(1.00, 0.00, -0.00, -1.00, 416.1, 241.6)"> </text><text xml:space="preserve" font-family="GillSans-Light,Gill Sans" font-size="35.0" fill="#525252" transform="matrix(1.00, 0.00, -0.00, -1.00, 425.8, 241.6)">a</text><text xml:space="preserve" font-family="GillSans-Light,Gill Sans" font-size="35.0" fill="#525252" transform="matrix(1.00, 0.00, -0.00, -1.00, 440.7, 241.6)">n</text><text xml:space="preserve" font-family="GillSans-Light,Gill Sans" font-size="35.0" fill="#525252" transform="matrix(1.00, 0.00, -0.00, -1.00, 457.9, 241.6)">d</text><text xml:space="preserve" font-family="GillSans-Light,Gill Sans" font-size="35.0" fill="#525252" transform="matrix(1.00, 0.00, -0.00, -1.00, 475.7, 241.6)"> </text><text xml:space="preserve" font-family="GillSans-Light,Gill Sans" font-size="35.0" fill="#525252" transform="matrix(1.00, 0.00, -0.00, -1.00, 65.9, 181.8)">p</text><text xml:space="preserve" font-family="GillSans-Light,Gill Sans" font-size="35.0" fill="#525252" transform="matrix(1.00, 0.00, -0.00, -1.00, 83.7, 181.8)">r</text><text xml:space="preserve" font-family="GillSans-Light,Gill Sans" font-size="35.0" fill="#525252" transform="matrix(1.00, 0.00, -0.00, -1.00, 95.4, 181.8)">e</text><text xml:space="preserve" font-family="GillSans-Light,Gill Sans" font-size="35.0" fill="#525252" transform="matrix(1.00, 0.00, -0.00, -1.00, 112.1, 181.8)">p</text><text xml:space="preserve" font-family="GillSans-Light,Gill Sans" font-size="35.0" fill="#525252" transform="matrix(1.00, 0.00, -0.00, -1.00, 130.0, 181.8)">a</text><text xml:space="preserve" font-family="GillSans-Light,Gill Sans" font-size="35.0" fill="#525252" transform="matrix(1.00, 0.00, -0.00, -1.00, 144.9, 181.8)">r</text><text xml:space="preserve" font-family="GillSans-Light,Gill Sans" font-size="35.0" fill="#525252" transform="matrix(1.00, 0.00, -0.00, -1.00, 157.4, 181.8)">i</text><text xml:space="preserve" font-family="GillSans-Light,Gill Sans" font-size="35.0" fill="#525252" transform="matrix(1.00, 0.00, -0.00, -1.00, 164.0, 181.8)">n</text><text xml:space="preserve" font-family="GillSans-Light,Gill Sans" font-size="35.0" fill="#525252" transform="matrix(1.00, 0.00, -0.00, -1.00, 181.2, 181.8)">g</text><text xml:space="preserve" font-family="GillSans-Light,Gill Sans" font-size="35.0" fill="#525252" transform="matrix(1.00, 0.00, -0.00, -1.00, 196.1, 181.8)"> </text><text xml:space="preserve" font-family="GillSans-Light,Gill Sans" font-size="35.0" fill="#525252" transform="matrix(1.00, 0.00, -0.00, -1.00, 205.8, 181.8)">m</text><text xml:space="preserve" font-family="GillSans-Light,Gill Sans" font-size="35.0" fill="#525252" transform="matrix(1.00, 0.00, -0.00, -1.00, 232.8, 181.8)">e</text><text xml:space="preserve" font-family="GillSans-Light,Gill Sans" font-size="35.0" fill="#525252" transform="matrix(1.00, 0.00, -0.00, -1.00, 249.6, 181.8)">t</text><text xml:space="preserve" font-family="GillSans-Light,Gill Sans" font-size="35.0" fill="#525252" transform="matrix(1.00, 0.00, -0.00, -1.00, 260.1, 181.8)">a</text><text xml:space="preserve" font-family="GillSans-Light,Gill Sans" font-size="35.0" fill="#525252" transform="matrix(1.00, 0.00, -0.00, -1.00, 275.0, 181.8)">-</text><text xml:space="preserve" font-family="GillSans-Light,Gill Sans" font-size="35.0" fill="#525252" transform="matrix(1.00, 0.00, -0.00, -1.00, 286.0, 181.8)">d</text><text xml:space="preserve" font-family="GillSans-Light,Gill Sans" font-size="35.0" fill="#525252" transform="matrix(1.00, 0.00, -0.00, -1.00, 303.8, 181.8)">a</text><text xml:space="preserve" font-family="GillSans-Light,Gill Sans" font-size="35.0" fill="#525252" transform="matrix(1.00, 0.00, -0.00, -1.00, 318.8, 181.8)">t</text><text xml:space="preserve" font-family="GillSans-Light,Gill Sans" font-size="35.0" fill="#525252" transform="matrix(1.00, 0.00, -0.00, -1.00, 329.3, 181.8)">a</text><text xml:space="preserve" font-family="GillSans-Light,Gill Sans" font-size="35.0" fill="#525252" transform="matrix(1.00, 0.00, -0.00, -1.00, 344.2, 181.8)"> </text><text xml:space="preserve" font-family="GillSans-Light,Gill Sans" font-size="35.0" fill="#525252" transform="matrix(1.00, 0.00, -0.00, -1.00, 354.0, 181.8)">f</text><text xml:space="preserve" font-family="GillSans-Light,Gill Sans" font-size="35.0" fill="#525252" transform="matrix(1.00, 0.00, -0.00, -1.00, 362.0, 181.8)">o</text><text xml:space="preserve" font-family="GillSans-Light,Gill Sans" font-size="35.0" fill="#525252" transform="matrix(1.00, 0.00, -0.00, -1.00, 381.0, 181.8)">r</text><text xml:space="preserve" font-family="GillSans-Light,Gill Sans" font-size="35.0" fill="#525252" transform="matrix(1.00, 0.00, -0.00, -1.00, 392.7, 181.8)"> </text><text xml:space="preserve" font-family="GillSans-Light,Gill Sans" font-size="35.0" fill="#525252" transform="matrix(1.00, 0.00, -0.00, -1.00, 402.4, 181.8)">a</text><text xml:space="preserve" font-family="GillSans-Light,Gill Sans" font-size="35.0" fill="#525252" transform="matrix(1.00, 0.00, -0.00, -1.00, 417.3, 181.8)"> </text><text xml:space="preserve" font-family="GillSans-Italic,Gill Sans" font-style="italic" font-size="35.0" fill="#525252" transform="matrix(1.00, 0.00, -0.00, -1.00, 427.1, 181.8)">r</text><text xml:space="preserve" font-family="GillSans-Italic,Gill Sans" font-style="italic" font-size="35.0" fill="#525252" transform="matrix(1.00, 0.00, -0.00, -1.00, 437.7, 181.8)">e</text><text xml:space="preserve" font-family="GillSans-Italic,Gill Sans" font-style="italic" font-size="35.0" fill="#525252" transform="matrix(1.00, 0.00, -0.00, -1.00, 453.1, 181.8)">l</text><text xml:space="preserve" font-family="GillSans-Italic,Gill Sans" font-style="italic" font-size="35.0" fill="#525252" transform="matrix(1.00, 0.00, -0.00, -1.00, 459.6, 181.8)">e</text><text xml:space="preserve" font-family="GillSans-Italic,Gill Sans" font-style="italic" font-size="35.0" fill="#525252" transform="matrix(1.00, 0.00, -0.00, -1.00, 475.0, 181.8)">a</text><text xml:space="preserve" font-family="GillSans-Italic,Gill Sans" font-style="italic" font-size="35.0" fill="#525252" transform="matrix(1.00, 0.00, -0.00, -1.00, 491.4, 181.8)">s</text><text xml:space="preserve" font-family="GillSans-Italic,Gill Sans" font-style="italic" font-size="35.0" fill="#525252" transform="matrix(1.00, 0.00, -0.00, -1.00, 503.8, 181.8)">e</text><text xml:space="preserve" font-family="GillSans-Light,Gill Sans" font-size="35.0" fill="#525252" transform="matrix(1.00, 0.00, -0.00, -1.00, 519.1, 181.8)"> </text><text xml:space="preserve" font-family="GillSans-Light,Gill Sans" font-size="35.0" fill="#525252" transform="matrix(1.00, 0.00, -0.00, -1.00, 65.9, 122.7)">(</text><text xml:space="preserve" font-family="GillSans-Light,Gill Sans" font-size="35.0" fill="#525252" transform="matrix(1.00, 0.00, -0.00, -1.00, 77.5, 122.7)">v</text><text xml:space="preserve" font-family="GillSans-Light,Gill Sans" font-size="35.0" fill="#525252" transform="matrix(1.00, 0.00, -0.00, -1.00, 91.9, 122.7)">e</text><text xml:space="preserve" font-family="GillSans-Light,Gill Sans" font-size="35.0" fill="#525252" transform="matrix(1.00, 0.00, -0.00, -1.00, 108.7, 122.7)">r</text><text xml:space="preserve" font-family="GillSans-Light,Gill Sans" font-size="35.0" fill="#525252" transform="matrix(1.00, 0.00, -0.00, -1.00, 121.7, 122.7)">s</text><text xml:space="preserve" font-family="GillSans-Light,Gill Sans" font-size="35.0" fill="#525252" transform="matrix(1.00, 0.00, -0.00, -1.00, 134.1, 122.7)">i</text><text xml:space="preserve" font-family="GillSans-Light,Gill Sans" font-size="35.0" fill="#525252" transform="matrix(1.00, 0.00, -0.00, -1.00, 140.7, 122.7)">o</text><text xml:space="preserve" font-family="GillSans-Light,Gill Sans" font-size="35.0" fill="#525252" transform="matrix(1.00, 0.00, -0.00, -1.00, 159.7, 122.7)">n</text><text xml:space="preserve" font-family="GillSans-Light,Gill Sans" font-size="35.0" fill="#525252" transform="matrix(1.00, 0.00, -0.00, -1.00, 176.8, 122.7)"> </text><text xml:space="preserve" font-family="GillSans-Light,Gill Sans" font-size="35.0" fill="#525252" transform="matrix(1.00, 0.00, -0.00, -1.00, 186.6, 122.7)">n</text><text xml:space="preserve" font-family="GillSans-Light,Gill Sans" font-size="35.0" fill="#525252" transform="matrix(1.00, 0.00, -0.00, -1.00, 203.4, 122.7)">u</text><text xml:space="preserve" font-family="GillSans-Light,Gill Sans" font-size="35.0" fill="#525252" transform="matrix(1.00, 0.00, -0.00, -1.00, 220.6, 122.7)">m</text><text xml:space="preserve" font-family="GillSans-Light,Gill Sans" font-size="35.0" fill="#525252" transform="matrix(1.00, 0.00, -0.00, -1.00, 247.5, 122.7)">b</text><text xml:space="preserve" font-family="GillSans-Light,Gill Sans" font-size="35.0" fill="#525252" transform="matrix(1.00, 0.00, -0.00, -1.00, 265.4, 122.7)">e</text><text xml:space="preserve" font-family="GillSans-Light,Gill Sans" font-size="35.0" fill="#525252" transform="matrix(1.00, 0.00, -0.00, -1.00, 282.1, 122.7)">r</text><text xml:space="preserve" font-family="GillSans-Light,Gill Sans" font-size="35.0" fill="#525252" transform="matrix(1.00, 0.00, -0.00, -1.00, 290.7, 122.7)">,</text><text xml:space="preserve" font-family="GillSans-Light,Gill Sans" font-size="35.0" fill="#525252" transform="matrix(1.00, 0.00, -0.00, -1.00, 294.0, 122.7)"> </text><text xml:space="preserve" font-family="GillSans-Light,Gill Sans" font-size="35.0" fill="#525252" transform="matrix(1.00, 0.00, -0.00, -1.00, 303.7, 122.7)">b</text><text xml:space="preserve" font-family="GillSans-Light,Gill Sans" font-size="35.0" fill="#525252" transform="matrix(1.00, 0.00, -0.00, -1.00, 321.2, 122.7)">u</text><text xml:space="preserve" font-family="GillSans-Light,Gill Sans" font-size="35.0" fill="#525252" transform="matrix(1.00, 0.00, -0.00, -1.00, 338.4, 122.7)">i</text><text xml:space="preserve" font-family="GillSans-Light,Gill Sans" font-size="35.0" fill="#525252" transform="matrix(1.00, 0.00, -0.00, -1.00, 345.0, 122.7)">l</text><text xml:space="preserve" font-family="GillSans-Light,Gill Sans" font-size="35.0" fill="#525252" transform="matrix(1.00, 0.00, -0.00, -1.00, 351.6, 122.7)">d</text><text xml:space="preserve" font-family="GillSans-Light,Gill Sans" font-size="35.0" fill="#525252" transform="matrix(1.00, 0.00, -0.00, -1.00, 369.4, 122.7)"> </text><text xml:space="preserve" font-family="GillSans-Light,Gill Sans" font-size="35.0" fill="#525252" transform="matrix(1.00, 0.00, -0.00, -1.00, 379.1, 122.7)">d</text><text xml:space="preserve" font-family="GillSans-Light,Gill Sans" font-size="35.0" fill="#525252" transform="matrix(1.00, 0.00, -0.00, -1.00, 396.9, 122.7)">a</text><text xml:space="preserve" font-family="GillSans-Light,Gill Sans" font-size="35.0" fill="#525252" transform="matrix(1.00, 0.00, -0.00, -1.00, 411.9, 122.7)">t</text><text xml:space="preserve" font-family="GillSans-Light,Gill Sans" font-size="35.0" fill="#525252" transform="matrix(1.00, 0.00, -0.00, -1.00, 422.4, 122.7)">e</text><text xml:space="preserve" font-family="GillSans-Light,Gill Sans" font-size="35.0" fill="#525252" transform="matrix(1.00, 0.00, -0.00, -1.00, 439.2, 122.7)">s</text><text xml:space="preserve" font-family="GillSans-Light,Gill Sans" font-size="35.0" fill="#525252" transform="matrix(1.00, 0.00, -0.00, -1.00, 451.6, 122.7)">,</text><text xml:space="preserve" font-family="GillSans-Light,Gill Sans" font-size="35.0" fill="#525252" transform="matrix(1.00, 0.00, -0.00, -1.00, 455.0, 122.7)"> </text><text xml:space="preserve" font-family="GillSans-Light,Gill Sans" font-size="35.0" fill="#525252" transform="matrix(1.00, 0.00, -0.00, -1.00, 464.7, 122.7)">e</text><text xml:space="preserve" font-family="GillSans-Light,Gill Sans" font-size="35.0" fill="#525252" transform="matrix(1.00, 0.00, -0.00, -1.00, 481.4, 122.7)">t</text><text xml:space="preserve" font-family="GillSans-Light,Gill Sans" font-size="35.0" fill="#525252" transform="matrix(1.00, 0.00, -0.00, -1.00, 492.0, 122.7)">c</text><text xml:space="preserve" font-family="GillSans-Light,Gill Sans" font-size="35.0" fill="#525252" transform="matrix(1.00, 0.00, -0.00, -1.00, 507.5, 122.7)">.</text><text xml:space="preserve" font-family="GillSans-Light,Gill Sans" font-size="35.0" fill="#525252" transform="matrix(1.00, 0.00, -0.00, -1.00, 513.6, 122.7)">)</text><text xml:space="preserve" font-family="GillSans-Light,Gill Sans" font-size="35.0" fill="#525252" transform="matrix(1.00, 0.00, -0.00, -1.00, 525.3, 122.7)">.</text><g><clipPath id="clip0x6080012a83a0"><path d="M 484.0 559.0 L 1019.0 559.0 L 1019.0 54.0 L 484.0 54.0 Z M 484.3 559.0 "></path></clipPath><g clip-path="url(#clip0x6080012a83a0)"><g><clipPath id="clip0x6080012b66e0"><path d="M 690.5 559.0 C 689.2 556.3 697.3 557.8 691.5 556.0 C 690.9 544.7 691.1 538.8 691.5 527.0 C 699.2 528.3 715.6 523.1 719.5 528.0 C 728.7 523.5 740.6 527.8 750.5 528.0 C 762.5 525.9 751.2 533.2 755.5 533.0 C 758.6 537.0 756.0 537.6 752.9 537.5 C 753.2 537.8 753.4 538.7 753.5 541.0 C 761.5 543.9 747.9 542.8 747.5 541.0 C 752.5 544.4 734.5 539.0 740.0 547.0 L 740.0 559.0 L 690.5 559.0 Z M 789.6 544.4 C 784.3 543.5 788.3 531.3 786.5 527.0 L 848.0 527.0 L 848.0 533.0 C 854.0 528.3 854.0 541.7 848.0 537.0 L 848.0 543.0 L 792.5 544.0 C 791.3 544.4 790.4 544.5 789.6 544.4 Z M 595.5 544.0 L 594.5 531.0 C 602.6 529.8 592.9 530.4 595.5 527.0 L 651.5 526.0 C 651.8 527.0 654.5 529.0 655.5 529.0 C 659.3 514.3 661.1 538.8 659.5 539.0 C 656.5 536.7 657.0 543.3 660.0 541.0 L 660.0 543.0 L 595.5 544.0 Z M 883.5 544.0 L 882.5 527.0 L 932.0 527.0 L 932.0 543.0 L 883.5 544.0 Z M 750.4 541.3 C 750.8 540.8 751.6 538.1 752.3 537.4 C 748.4 537.2 744.2 536.0 750.5 539.0 C 750.2 541.1 750.2 541.6 750.4 541.3 Z M 632.5 520.2 C 631.5 520.4 628.9 520.0 623.5 519.0 C 622.8 518.7 620.8 516.7 620.5 516.0 C 615.8 505.9 624.9 510.6 619.5 505.0 C 624.0 505.1 621.8 494.1 618.5 493.0 C 615.5 498.3 617.6 492.8 617.7 488.9 C 622.6 486.2 620.5 473.4 611.5 479.0 C 613.2 471.1 608.3 457.5 613.5 452.0 C 605.6 453.3 614.5 440.6 614.5 449.0 C 617.2 440.5 620.1 457.5 619.5 444.0 C 621.5 452.2 621.0 441.1 619.5 441.0 C 632.2 437.6 599.4 441.2 607.5 437.0 C 601.8 432.6 607.9 445.5 595.5 438.0 C 604.4 453.9 580.3 439.3 586.5 454.0 C 580.7 464.9 578.5 443.5 578.5 455.0 C 577.4 446.9 568.5 462.9 568.5 453.0 C 558.6 457.5 541.7 453.4 529.5 453.0 C 526.8 459.1 524.5 451.0 520.5 455.0 C 521.1 449.1 507.8 459.8 505.1 453.5 C 504.4 455.7 491.9 450.6 500.5 454.0 C 491.7 455.4 490.8 453.3 484.5 455.0 C 484.4 428.4 484.4 401.8 484.3 375.2 C 486.8 375.6 490.5 377.8 490.5 379.0 C 487.3 374.2 498.6 372.1 496.5 377.0 C 528.3 374.3 562.0 376.1 594.5 375.0 C 594.2 378.7 598.8 385.1 593.5 386.0 C 600.7 388.8 585.6 394.4 595.5 394.0 C 599.6 408.7 591.2 388.6 591.5 398.0 C 596.6 398.9 596.7 404.5 591.5 407.0 C 598.1 406.7 593.3 415.1 593.4 419.6 C 592.2 417.7 591.9 422.5 593.5 424.0 C 586.7 424.3 599.5 424.0 599.5 423.0 C 602.3 429.2 610.4 418.3 611.5 425.0 C 586.2 425.9 621.5 425.9 603.5 429.0 C 610.6 430.1 617.8 431.5 622.5 429.0 C 629.4 419.7 611.6 430.9 619.5 419.0 C 626.0 420.6 612.9 403.7 622.5 406.0 C 621.5 397.2 619.7 401.8 619.5 390.0 C 624.5 392.7 622.1 377.8 620.5 385.0 C 616.5 371.2 623.9 383.4 619.5 375.0 C 612.2 382.4 606.7 358.9 614.5 363.0 C 607.9 359.0 612.4 344.0 610.5 335.0 C 616.2 343.4 627.7 323.7 619.5 325.0 C 627.3 322.9 614.6 321.2 621.5 321.0 C 619.0 311.9 621.4 301.5 620.5 292.0 C 619.6 287.2 623.7 276.0 614.5 278.0 C 604.5 277.0 621.5 276.0 611.5 275.0 C 611.3 263.0 610.8 251.0 610.5 239.0 C 623.6 243.1 618.4 236.8 619.5 229.0 C 629.6 229.1 611.5 229.0 621.5 225.0 C 621.1 232.1 627.4 223.0 622.5 224.0 C 619.5 227.2 618.2 221.5 620.3 221.6 C 616.0 219.7 624.7 215.3 619.5 215.0 C 628.3 211.6 616.9 214.3 619.5 210.0 C 627.9 209.9 616.8 210.7 619.5 207.0 C 625.9 206.4 616.1 195.9 621.5 196.0 C 610.5 195.3 631.7 187.4 619.5 188.0 C 619.9 178.2 624.8 173.1 611.5 173.0 C 612.9 168.3 614.3 165.6 611.5 162.0 C 614.5 164.3 614.5 157.7 611.5 160.0 L 610.5 128.0 C 617.8 127.4 620.0 126.9 623.5 123.0 C 611.7 118.2 627.0 119.3 624.5 114.0 C 614.3 121.8 623.8 113.9 619.5 114.0 C 623.0 106.3 605.1 114.5 613.5 105.0 C 608.0 94.3 612.7 76.0 610.5 63.0 L 621.5 63.0 C 623.9 59.5 624.8 57.8 625.0 57.1 C 625.4 61.3 623.7 65.6 625.5 58.8 C 624.9 65.5 635.4 59.5 638.5 62.0 C 638.5 63.0 639.2 63.0 639.5 62.0 C 649.1 59.3 638.9 85.9 646.5 79.0 C 658.1 76.5 647.7 85.3 649.5 87.0 C 658.0 86.4 661.4 88.2 667.5 88.0 C 687.4 82.7 664.8 91.4 675.5 91.0 C 670.3 97.3 682.3 91.7 680.5 98.0 C 684.2 95.2 695.7 92.9 693.5 99.0 C 698.5 104.1 691.9 91.4 699.5 99.0 C 695.2 106.4 712.8 106.8 707.5 98.0 C 716.0 104.2 708.8 95.3 716.5 97.0 C 707.9 95.6 720.0 96.1 717.5 92.0 C 706.3 88.4 725.2 89.9 720.5 86.0 C 712.1 91.0 719.1 72.9 716.5 71.0 C 718.0 53.8 717.7 77.8 718.5 78.0 C 725.1 76.0 716.3 60.1 722.5 55.0 C 724.6 68.5 719.8 87.0 726.5 97.0 C 731.7 91.2 744.0 92.6 740.8 103.6 C 742.3 101.5 748.1 104.1 743.5 108.0 C 751.0 110.0 737.6 93.4 754.5 103.0 C 754.3 105.4 758.2 104.3 763.5 103.0 C 761.5 97.7 769.5 99.0 768.5 95.0 C 771.6 98.5 776.5 90.3 779.5 98.0 C 776.2 90.4 787.8 100.6 783.5 96.0 C 788.1 91.1 782.6 102.0 788.5 96.0 C 790.9 95.6 802.0 94.7 795.5 91.0 C 804.6 93.6 798.7 79.2 810.5 88.0 C 818.4 91.0 806.7 69.7 814.5 71.0 C 809.3 65.6 819.1 63.3 814.5 55.0 C 820.8 59.8 815.7 74.4 817.5 82.0 C 818.6 80.2 824.1 78.0 822.5 82.0 C 819.0 78.4 817.9 86.4 821.5 84.0 C 819.4 94.2 824.0 81.9 827.5 85.0 C 817.4 79.9 834.9 81.1 834.5 83.0 C 836.2 86.5 844.4 79.9 837.5 80.0 C 842.6 80.2 850.8 79.4 859.5 79.0 C 857.3 63.0 861.6 76.8 869.5 72.0 C 884.8 82.2 869.7 64.6 877.5 67.0 C 867.1 59.8 895.4 67.9 883.5 54.0 L 916.5 54.0 C 916.8 55.3 918.8 58.7 919.5 59.0 C 918.3 71.8 927.3 46.8 923.5 67.0 C 917.6 63.5 921.2 69.4 923.5 70.0 C 919.4 69.1 929.3 83.5 919.5 78.0 C 904.3 77.8 922.8 82.0 912.5 85.0 C 919.8 84.7 917.6 103.7 908.0 94.0 L 908.0 190.0 C 908.7 190.0 910.2 192.0 910.5 193.0 C 923.0 178.7 908.5 216.5 921.5 207.0 C 921.1 212.6 927.9 202.7 926.5 209.0 C 938.2 210.9 925.2 194.7 933.5 196.0 C 936.4 191.9 927.4 195.5 933.5 193.0 C 924.5 186.4 938.5 190.6 931.5 188.0 C 925.2 179.9 951.3 185.7 939.5 182.0 C 937.9 172.8 944.1 180.1 946.5 178.0 C 938.9 174.4 954.4 174.7 952.2 176.3 C 955.1 176.1 951.9 183.7 954.5 180.0 C 964.9 179.0 945.7 177.6 958.5 177.0 C 951.1 173.5 973.2 176.8 973.5 175.0 C 965.6 178.9 982.5 174.0 981.5 175.0 C 980.5 180.6 985.9 179.5 982.5 175.0 C 1003.0 168.0 982.3 180.1 992.5 179.0 C 988.5 166.3 1001.4 189.8 1002.5 178.0 C 1004.8 168.8 1019.5 179.1 1006.5 179.0 C 1012.6 180.1 1013.8 186.7 1019.0 183.0 L 1019.0 239.0 C 1018.0 239.0 1016.2 237.7 1016.5 237.0 C 1012.5 238.1 998.3 238.9 990.5 239.0 C 993.3 234.4 980.0 245.9 981.5 237.0 C 976.4 242.2 961.9 234.5 954.5 239.0 C 953.4 237.4 945.4 239.3 939.5 239.3 C 941.8 237.5 941.1 232.0 936.5 234.0 C 942.2 229.4 918.2 231.2 934.5 228.0 C 926.0 225.1 937.2 223.2 931.5 221.0 C 930.6 226.9 919.7 212.8 920.5 223.0 C 912.7 217.0 932.0 217.9 917.5 218.0 C 923.6 229.1 899.2 216.9 907.5 231.0 C 915.2 224.0 919.4 245.7 911.5 242.0 C 912.9 232.1 905.2 243.1 907.5 245.0 C 911.8 241.4 912.3 250.6 908.0 247.0 L 908.0 514.0 L 905.5 514.0 C 915.3 522.3 889.5 517.8 899.5 510.0 C 902.1 510.5 900.1 493.9 899.5 489.0 C 905.0 491.1 894.0 484.0 902.5 486.0 C 898.8 483.4 899.4 476.2 899.5 470.0 C 906.3 471.8 891.8 465.8 901.5 466.0 C 896.5 466.4 899.5 451.9 900.5 461.0 C 909.4 461.1 889.5 451.5 899.5 447.0 C 909.6 446.2 889.2 436.6 901.5 433.0 C 897.1 434.4 908.9 419.0 899.5 424.0 C 903.6 420.1 898.3 415.4 901.5 415.0 C 894.7 412.3 903.3 407.8 899.5 405.0 C 906.5 405.7 900.9 397.9 899.5 398.0 C 897.8 385.6 903.6 397.1 899.5 389.0 C 905.3 391.3 892.6 383.4 901.5 384.0 C 898.7 376.6 901.4 362.5 899.5 353.0 C 907.0 351.3 890.6 351.2 900.5 346.0 C 903.5 348.3 903.5 341.7 900.5 344.0 C 894.6 337.5 907.4 344.5 901.5 338.0 C 896.0 340.1 905.7 332.2 899.5 334.0 C 898.3 324.9 905.5 333.1 899.5 321.0 C 904.7 320.9 894.6 312.2 902.5 313.0 C 895.9 312.5 908.2 308.6 899.5 309.0 C 905.3 298.6 896.7 308.4 899.5 295.0 C 906.9 307.6 894.9 278.3 900.5 288.0 C 908.2 283.9 892.0 287.2 899.5 280.0 C 908.1 278.4 892.4 271.1 902.5 270.0 C 904.9 265.8 894.7 269.6 901.5 267.0 C 892.8 262.2 903.9 266.0 902.5 262.0 C 895.6 262.1 904.3 256.7 899.5 252.0 C 907.9 252.3 895.8 241.0 892.5 246.0 C 896.2 239.9 889.9 241.6 888.3 238.6 C 885.6 240.9 877.6 237.1 883.5 231.0 C 876.1 234.3 885.2 225.8 879.5 228.0 C 882.9 235.7 866.6 227.9 875.5 234.0 C 868.5 230.8 873.6 241.1 868.5 239.0 C 872.7 232.0 855.8 238.7 867.5 238.0 C 860.4 242.2 854.5 233.6 851.5 239.0 C 861.9 254.4 834.5 242.6 841.5 246.0 C 834.6 254.3 839.4 238.6 836.5 246.0 C 817.7 238.4 836.6 264.2 818.5 254.0 L 819.5 327.0 C 831.3 315.1 824.8 347.8 828.5 335.0 C 846.3 332.2 825.2 336.7 833.5 338.0 C 829.1 339.9 837.2 351.8 829.5 352.0 C 827.3 358.8 837.2 345.2 832.5 358.0 C 837.9 349.0 830.8 360.8 834.5 360.0 C 839.5 364.2 828.5 360.9 834.6 362.8 C 832.9 363.0 832.9 368.2 834.5 365.0 C 840.9 373.4 828.0 364.6 831.5 373.0 C 843.7 376.4 824.5 369.5 827.5 378.0 C 823.6 375.6 833.3 391.7 818.5 383.0 L 819.5 415.0 C 826.0 417.0 840.7 409.0 833.5 423.0 C 840.9 424.7 836.3 434.8 843.5 434.0 C 840.6 437.4 844.0 444.5 843.5 451.0 C 842.8 449.7 841.5 451.7 841.5 454.0 C 844.7 449.7 843.0 475.8 841.5 463.0 C 838.2 465.5 837.3 467.0 837.6 467.8 C 836.5 468.7 836.0 469.9 838.5 470.0 C 834.6 474.8 845.9 489.0 837.5 487.0 C 836.7 479.3 834.4 492.6 833.9 498.1 C 833.5 498.5 833.4 498.9 833.8 499.7 C 833.7 500.6 833.7 501.2 834.1 500.1 C 834.4 500.6 834.6 501.1 835.5 502.0 C 828.7 501.8 828.8 503.9 819.0 502.0 L 819.0 519.0 C 806.8 523.7 815.3 506.8 812.5 502.0 C 811.4 502.5 810.8 502.4 810.3 502.1 C 808.6 503.2 802.2 504.8 803.5 500.0 C 789.4 503.7 799.7 493.2 786.5 500.0 C 797.0 501.9 773.8 506.1 773.5 500.5 C 769.7 503.2 758.1 504.2 766.5 502.0 C 757.5 503.0 771.0 486.3 755.5 495.0 L 756.5 439.0 L 739.5 439.0 C 740.1 444.0 743.8 451.3 733.5 448.0 C 726.5 443.4 729.8 457.6 725.5 448.0 C 726.8 452.0 721.2 464.4 725.5 464.0 C 722.7 473.0 725.3 485.3 724.5 497.0 C 723.6 505.6 727.0 504.8 725.5 516.0 C 723.8 516.3 721.8 515.7 722.5 515.0 C 715.0 516.1 715.4 509.4 717.5 507.0 C 714.3 509.1 714.8 503.1 717.5 504.0 C 718.9 494.2 714.4 492.4 715.5 483.0 C 723.9 484.1 706.3 480.4 717.5 480.0 C 710.5 478.7 726.1 471.5 715.5 470.0 C 717.5 462.3 716.1 458.8 716.5 453.0 C 724.4 454.3 709.1 439.6 707.5 447.0 C 706.9 452.3 706.5 457.4 699.5 453.0 C 705.3 441.4 691.0 448.9 687.5 449.0 C 703.7 452.7 679.1 460.5 678.5 453.0 C 674.9 458.8 665.4 452.2 661.5 454.0 C 641.0 462.4 666.8 454.3 657.5 460.0 C 665.2 464.8 648.8 460.8 647.3 462.2 C 646.6 457.8 641.5 472.2 644.5 475.0 C 636.0 474.4 647.7 475.3 643.5 479.0 C 629.2 465.5 639.8 491.2 633.5 482.0 C 630.5 483.2 640.6 491.5 640.5 487.0 C 650.1 484.4 642.0 503.1 639.5 494.0 C 634.5 488.9 641.1 501.6 633.5 494.0 C 633.3 500.6 635.3 507.8 634.5 517.0 C 633.8 517.0 633.2 513.0 633.5 511.0 C 624.9 514.8 635.7 519.7 632.5 520.2 Z M 834.1 500.1 C 834.0 500.0 833.8 499.8 833.8 499.7 C 833.8 499.3 833.8 498.6 833.9 498.1 C 834.1 497.9 834.5 497.6 834.8 497.1 C 834.5 498.3 834.2 499.6 834.1 500.1 Z M 834.8 497.1 C 835.0 496.1 835.2 495.5 835.5 494.0 C 835.5 495.6 835.2 496.5 834.8 497.1 Z M 837.6 467.8 C 838.7 466.8 840.4 466.5 839.8 468.9 C 838.7 468.8 837.8 468.5 837.6 467.8 Z M 839.8 468.9 C 842.2 469.2 845.0 468.5 839.5 470.0 C 839.7 469.5 839.7 469.3 839.8 468.9 Z M 939.5 239.3 C 938.6 240.0 937.3 240.1 935.5 239.0 C 936.6 239.3 938.0 239.3 939.5 239.3 Z M 593.4 419.6 C 593.7 420.1 594.1 420.6 594.5 422.0 C 593.7 421.5 593.5 420.7 593.4 419.6 Z M 617.7 488.9 C 616.2 489.7 614.2 489.7 611.5 488.0 C 616.6 484.0 617.7 486.0 617.7 488.9 Z M 805.5 502.0 C 807.8 501.5 809.0 501.4 809.8 501.5 C 808.8 499.3 810.5 494.7 808.5 501.0 C 803.5 503.8 809.0 490.9 805.5 502.0 Z M 726.5 487.0 C 734.9 483.3 720.5 480.1 727.5 479.0 C 729.0 484.6 735.9 487.4 726.5 487.0 Z M 840.4 479.0 C 840.2 478.9 839.9 478.6 839.5 478.0 C 839.3 477.0 839.9 475.4 840.7 474.2 C 840.3 476.2 841.2 479.4 840.4 479.0 Z M 840.7 474.2 C 840.8 473.6 840.9 473.0 841.4 472.8 C 841.5 472.9 841.4 472.9 841.5 473.0 C 841.2 473.1 840.9 473.7 840.7 474.2 Z M 841.4 472.8 C 839.5 470.0 845.8 470.1 843.5 473.0 C 842.5 472.5 841.9 472.6 841.4 472.8 Z M 656.8 452.2 C 657.3 452.3 657.5 452.3 657.5 452.1 C 657.5 452.1 657.5 452.0 657.5 452.0 C 657.5 451.6 656.7 450.5 656.1 449.3 C 656.0 449.1 655.9 448.9 655.8 448.7 C 655.7 448.5 655.7 448.3 655.6 448.1 C 655.5 447.8 655.5 447.6 655.5 447.3 C 655.5 447.2 655.5 447.1 655.6 447.0 C 655.7 446.8 656.0 446.7 656.3 446.7 C 656.4 446.6 656.5 446.5 656.8 446.5 C 657.4 446.5 658.3 446.6 659.5 447.0 C 658.9 449.7 674.8 447.2 679.5 446.0 C 678.5 443.6 678.3 445.0 677.1 443.6 C 676.7 443.2 676.2 442.4 675.5 441.0 C 685.5 440.3 667.5 433.7 668.5 439.0 C 668.6 435.0 651.9 445.7 658.5 432.0 C 671.5 434.7 663.7 429.4 675.5 431.0 C 674.6 434.4 678.2 432.4 681.5 431.1 C 682.4 430.7 683.2 430.4 683.9 430.3 C 686.2 429.8 687.7 430.5 686.5 435.0 C 686.8 433.3 687.8 432.3 689.2 431.8 C 689.4 431.7 689.6 431.6 689.8 431.5 C 690.3 431.4 690.8 431.3 691.3 431.3 C 696.2 431.0 703.3 433.2 706.0 431.2 C 706.1 431.1 706.4 431.1 706.5 431.0 C 706.5 430.8 706.6 430.5 706.7 430.3 C 706.8 430.0 706.9 429.5 707.0 429.0 C 707.4 427.5 708.0 426.0 708.5 426.0 C 708.0 425.8 707.8 425.6 707.4 425.3 C 707.3 423.8 706.3 420.4 706.4 417.4 C 707.4 415.8 708.3 414.4 709.2 413.2 C 710.3 413.5 710.4 412.9 710.0 411.9 C 710.1 411.6 710.5 411.2 710.5 411.0 C 710.1 411.1 709.9 411.0 709.6 411.0 C 708.2 408.4 705.5 405.1 708.5 409.0 C 707.4 407.3 710.2 406.6 711.1 406.9 C 710.9 407.3 710.9 407.5 710.5 408.0 C 716.1 412.3 716.9 401.5 716.5 400.0 C 715.2 400.6 714.1 401.0 713.1 401.3 C 698.6 405.8 717.1 377.2 701.5 383.0 C 708.6 371.8 693.6 390.4 692.5 382.0 C 696.0 367.3 674.9 378.6 668.5 375.0 C 669.6 370.9 669.1 368.6 667.5 367.4 C 666.7 366.8 665.6 366.4 664.4 366.3 C 658.3 365.5 647.9 369.3 643.5 367.0 C 647.4 378.3 636.4 368.8 634.5 376.0 C 634.2 377.2 634.1 378.6 634.0 380.0 C 634.0 381.3 634.0 382.5 634.0 383.7 C 634.0 384.4 633.8 384.9 633.8 385.5 C 633.7 386.4 633.6 387.2 633.2 387.8 C 633.0 388.2 632.7 388.6 632.3 388.8 C 632.7 388.9 632.9 389.1 633.1 389.3 C 633.2 389.4 633.2 389.4 633.2 389.5 C 633.4 389.7 633.4 390.1 633.4 390.5 C 633.4 390.6 633.4 390.6 633.4 390.7 C 633.4 392.0 632.9 393.4 632.7 394.2 C 632.7 394.5 632.5 394.9 632.6 394.9 C 632.7 395.1 633.1 394.7 634.5 393.0 C 634.2 394.2 634.1 395.4 634.0 396.4 C 633.7 403.5 638.2 404.8 630.5 399.0 C 630.2 399.6 630.1 400.4 630.0 401.3 C 629.9 402.1 630.0 403.0 630.0 404.0 C 630.3 403.1 630.9 402.6 632.5 403.0 C 632.3 403.9 632.2 404.6 632.3 405.3 C 632.3 405.5 632.4 405.6 632.4 405.7 C 632.6 406.2 632.7 406.7 632.9 407.2 C 634.6 410.2 638.5 410.7 630.8 411.9 C 630.9 413.5 630.9 414.8 630.9 416.2 C 630.9 417.3 631.1 418.5 631.0 419.3 C 630.9 420.0 630.7 420.6 630.4 421.1 C 630.4 421.3 630.3 421.6 630.2 421.8 C 629.8 422.4 629.3 422.8 628.5 423.0 C 631.7 431.9 632.2 420.2 631.5 415.0 C 639.5 410.1 631.6 428.7 634.5 431.0 C 635.8 431.3 637.5 431.2 639.2 431.0 C 641.0 430.8 642.8 430.5 644.2 430.5 C 647.0 430.4 648.5 431.3 645.5 436.0 C 635.3 432.5 656.1 447.8 635.5 439.0 C 634.7 437.1 634.2 436.4 633.9 436.2 C 633.8 436.1 633.6 436.0 633.6 436.1 C 633.5 436.1 633.5 436.1 633.5 436.1 C 633.3 436.6 633.4 438.0 633.6 439.6 C 633.8 441.6 634.0 443.8 634.1 445.4 C 634.3 445.1 634.4 445.1 634.5 445.2 C 634.5 445.2 634.5 445.1 634.5 445.2 C 634.6 445.2 634.7 445.4 634.8 445.7 C 634.9 446.2 635.0 447.0 635.2 447.9 C 635.2 447.9 635.2 447.9 635.2 448.0 C 635.3 448.4 635.4 448.7 635.6 449.1 C 635.6 449.2 635.7 449.4 635.7 449.5 C 635.9 449.8 636.1 449.9 636.3 450.0 C 636.4 450.0 636.4 450.1 636.5 450.2 C 636.8 450.2 637.0 450.0 637.3 449.8 C 637.5 449.6 637.6 449.6 637.8 449.5 C 638.2 449.0 638.8 448.2 639.5 447.0 C 646.0 440.1 644.3 455.6 648.5 451.0 C 648.8 451.1 649.4 451.0 650.0 450.9 C 649.1 450.7 648.2 450.3 647.4 449.8 C 646.7 449.4 646.1 449.0 645.8 448.6 C 645.8 448.5 645.8 448.5 645.8 448.5 C 645.6 448.3 645.5 448.0 645.5 447.8 C 645.5 447.8 645.6 447.7 645.6 447.7 C 645.7 447.5 645.9 447.4 646.1 447.3 C 646.5 447.1 647.2 446.9 648.5 447.0 C 648.2 447.4 648.0 447.7 648.0 448.0 C 647.7 449.9 652.5 449.6 650.5 447.0 C 658.5 446.8 650.9 446.3 654.5 451.0 C 655.6 451.6 656.3 452.0 656.8 452.2 Z M 649.4 440.6 C 648.2 440.5 646.9 440.0 645.5 439.0 C 643.0 433.6 654.1 440.9 647.5 433.0 C 649.2 431.7 650.6 430.9 651.8 430.5 C 652.6 430.2 653.4 430.1 654.0 430.2 C 654.1 430.2 654.3 430.2 654.4 430.3 C 654.9 430.5 655.4 430.8 655.7 431.2 C 655.7 431.3 655.7 431.4 655.8 431.5 C 655.9 431.8 656.0 432.2 656.1 432.7 C 656.1 433.2 656.1 433.7 656.0 434.2 C 656.0 434.6 655.9 435.0 655.8 435.3 C 655.7 435.8 655.5 436.3 655.2 436.8 C 655.0 437.2 654.8 437.6 654.5 437.9 C 654.1 438.5 653.6 438.9 653.1 439.3 C 652.8 439.5 652.6 439.7 652.4 439.9 C 652.2 440.0 652.0 440.0 651.8 440.1 C 651.1 440.4 650.3 440.6 649.4 440.6 Z M 745.6 431.9 C 747.8 431.5 750.1 429.5 752.3 428.8 C 738.7 427.9 770.2 427.1 748.5 426.0 C 746.0 418.1 758.0 428.8 758.5 422.0 C 753.1 421.1 760.3 415.4 762.5 415.0 C 761.7 420.2 771.4 408.0 770.5 417.0 C 776.3 411.9 790.3 418.9 798.5 415.0 C 797.8 426.7 800.2 399.8 807.5 415.0 C 802.9 422.4 818.3 410.2 812.2 407.4 C 815.6 407.6 814.0 381.9 810.5 391.0 C 806.7 380.4 809.7 400.4 801.5 391.0 C 803.6 383.0 791.9 396.0 787.5 390.0 C 789.6 384.5 778.2 390.5 781.5 384.0 C 780.0 392.8 774.2 376.0 768.5 385.0 C 768.2 373.5 759.7 394.7 762.5 380.0 C 762.5 388.7 749.0 380.1 755.5 374.0 C 755.8 375.3 757.8 375.3 758.5 374.0 C 751.4 371.8 759.6 367.8 755.5 368.0 C 755.3 361.4 758.1 361.0 755.5 354.0 C 761.9 355.4 752.3 346.4 750.5 350.0 C 756.3 341.2 740.0 357.7 747.5 343.0 C 735.6 334.7 743.9 356.6 736.5 354.0 C 735.4 344.4 733.2 360.6 739.5 356.0 C 738.8 356.2 736.6 365.4 735.8 361.8 C 732.0 366.7 720.5 377.6 736.5 365.0 C 745.3 365.2 736.5 385.8 740.5 384.0 C 735.5 391.7 747.9 403.1 730.5 400.0 C 725.6 410.9 736.5 406.2 739.5 409.0 C 741.8 413.6 734.2 408.4 736.5 413.0 C 745.2 407.5 735.0 433.1 742.5 431.0 C 743.5 432.0 744.5 432.2 745.6 431.9 Z M 773.1 391.6 C 772.4 391.7 771.6 391.5 770.5 391.0 C 770.5 390.3 771.8 389.0 772.5 389.0 C 773.2 378.9 777.7 391.1 773.1 391.6 Z M 706.5 376.0 C 707.2 371.8 704.8 364.9 711.5 366.0 C 699.3 361.9 715.5 362.9 711.5 358.0 C 709.4 356.3 709.3 364.5 707.5 357.0 C 710.2 357.8 707.6 343.8 700.5 351.0 C 701.4 345.7 689.6 341.2 683.5 343.0 C 691.2 340.6 673.8 341.9 676.5 338.0 C 666.0 339.1 663.4 330.0 652.5 330.0 C 653.2 330.7 652.5 332.0 651.5 332.0 C 651.1 332.6 651.0 333.1 651.0 333.4 C 650.6 330.2 640.5 331.3 650.5 330.0 C 643.7 323.7 644.9 333.8 648.5 335.0 C 640.9 327.1 642.3 352.1 644.5 343.0 C 654.2 338.3 650.6 350.8 653.5 353.0 C 657.8 355.3 653.2 348.7 657.5 351.0 C 660.2 357.2 641.4 351.9 655.5 355.0 C 656.9 363.7 670.2 356.7 675.5 359.0 C 680.0 364.7 680.0 372.2 690.5 367.0 C 690.0 369.2 696.4 372.2 694.5 368.0 C 703.5 363.7 695.7 372.6 699.5 372.0 C 696.7 378.7 707.2 372.9 706.5 376.0 Z M 651.0 333.4 C 651.2 335.3 657.8 332.5 650.5 335.0 C 650.9 334.4 651.1 333.8 651.0 333.4 Z M 680.5 364.0 C 677.7 362.2 676.9 354.3 683.5 360.0 C 673.0 362.5 690.5 362.7 680.5 364.0 Z M 729.5 364.0 C 730.4 363.3 730.7 363.3 731.4 362.8 C 730.4 361.7 730.3 351.7 729.5 364.0 Z M 732.0 362.4 C 732.7 362.0 733.4 361.5 733.9 361.2 C 733.6 361.2 733.2 361.2 732.5 361.0 C 732.3 361.8 732.2 362.1 732.0 362.4 Z M 734.5 360.8 C 734.9 360.5 735.5 360.1 735.8 360.0 C 735.6 358.9 735.5 358.4 735.5 356.0 C 729.0 351.8 735.4 358.9 734.5 360.8 Z M 704.1 343.5 C 704.8 343.5 705.3 343.3 705.5 343.0 L 706.5 343.0 C 705.1 337.9 710.5 323.4 707.5 324.0 C 717.8 307.2 684.9 324.8 696.5 317.0 C 710.6 315.2 690.8 314.8 691.5 311.0 C 682.2 312.8 677.9 305.9 668.5 305.0 C 666.2 299.1 633.1 305.3 656.5 299.0 C 653.0 298.7 642.3 296.8 650.5 299.0 C 641.0 296.1 653.0 311.1 639.5 303.0 C 641.5 294.5 636.5 300.3 635.5 294.0 L 634.5 319.0 C 636.8 326.6 655.0 308.0 650.5 319.0 C 653.8 316.7 655.3 324.2 651.5 322.0 C 649.4 326.7 663.3 328.2 655.5 325.0 C 656.3 314.4 662.1 337.1 662.5 327.0 C 681.2 328.2 655.9 327.5 667.5 331.0 C 679.1 328.6 678.3 338.2 689.5 336.0 C 678.7 338.9 709.7 334.6 695.5 338.0 C 685.2 337.2 699.4 343.7 704.1 343.5 Z M 745.7 337.4 C 745.9 337.6 746.1 337.6 746.5 337.4 C 747.0 337.2 747.6 336.8 748.5 336.0 L 756.5 335.0 C 753.0 337.3 773.3 336.5 763.5 327.0 C 777.1 327.5 795.7 326.0 806.5 328.0 C 817.5 328.8 810.2 315.5 811.5 308.0 C 818.1 310.3 803.7 297.9 813.5 299.0 C 811.1 288.3 813.2 275.5 812.5 264.0 C 814.6 280.2 813.8 251.2 811.5 263.0 C 799.1 268.6 813.7 255.9 806.5 258.0 C 801.9 271.3 804.7 257.1 797.5 258.0 C 803.9 262.4 790.2 266.6 792.5 261.0 C 790.1 263.7 770.2 267.0 787.5 268.0 C 788.7 276.6 779.2 260.7 780.5 271.0 C 772.1 268.4 774.4 272.7 763.5 271.0 C 768.4 280.2 759.8 276.0 756.5 277.0 C 757.1 286.4 749.2 272.5 749.5 279.0 C 731.2 272.0 742.9 292.9 739.5 301.0 C 739.2 300.0 737.8 300.0 737.5 301.0 C 730.2 299.9 746.1 305.3 736.5 305.0 C 745.2 305.7 735.3 314.3 731.5 310.0 C 730.2 326.2 726.3 297.0 724.5 316.0 C 718.8 324.9 738.1 314.6 739.5 318.0 L 740.5 336.0 C 747.9 329.3 744.6 336.5 745.7 337.4 Z M 674.7 302.2 C 674.9 302.3 675.5 302.3 676.5 302.0 C 676.5 301.0 677.8 299.0 678.5 299.0 C 677.4 298.6 676.7 298.2 676.2 297.8 C 675.3 299.6 673.9 301.6 674.7 302.2 Z M 667.5 299.0 C 672.8 296.0 675.3 295.1 676.3 295.2 C 678.3 293.9 682.3 292.5 679.5 289.0 C 677.9 299.3 671.2 284.1 676.5 284.0 C 675.3 283.6 675.1 281.7 675.7 281.1 C 666.1 276.2 683.3 275.7 675.5 274.0 C 679.3 263.1 670.4 271.8 666.5 271.0 C 668.9 266.6 658.9 276.2 659.5 268.0 C 665.9 264.1 654.6 264.3 656.5 261.0 C 645.0 257.9 651.0 265.2 651.5 266.0 C 655.9 274.6 641.4 266.4 643.5 273.0 C 630.6 272.6 651.5 273.2 640.5 276.0 C 648.4 280.5 637.9 277.6 637.5 275.0 C 642.6 284.8 625.1 271.7 634.5 287.0 C 649.6 298.4 637.2 276.7 645.5 279.0 C 645.4 289.7 644.8 276.5 649.5 279.0 C 642.5 283.6 659.1 286.6 648.5 289.0 C 655.6 292.1 644.0 297.7 659.5 297.0 C 657.5 290.9 669.3 297.4 667.5 299.0 Z M 739.0 272.7 C 739.8 272.5 740.7 272.0 741.5 271.0 L 755.5 271.0 C 745.8 252.5 778.3 272.9 771.5 260.0 C 779.2 259.0 770.6 259.1 771.5 256.0 C 777.8 255.2 781.6 254.2 785.5 258.0 C 776.9 252.5 798.8 258.2 796.5 255.0 C 796.2 252.7 798.2 247.3 799.5 247.0 C 813.0 263.1 788.0 233.6 806.5 247.0 C 809.1 255.8 814.8 242.4 811.5 241.0 C 819.9 236.0 804.3 229.9 813.5 223.0 C 818.6 220.7 803.3 207.0 813.5 207.0 C 810.8 200.5 813.5 193.9 814.5 189.0 C 805.1 188.2 818.6 183.5 812.5 185.0 C 810.8 174.1 814.6 167.8 813.5 156.0 C 803.3 159.0 824.1 143.6 811.5 143.0 C 812.8 132.8 816.2 114.9 811.5 108.0 C 815.9 97.2 799.8 105.6 796.5 102.0 C 793.7 103.9 774.1 97.5 779.5 105.0 C 776.5 101.9 773.7 107.0 778.5 106.0 C 781.8 118.3 771.4 105.1 774.5 110.0 C 769.8 112.2 758.9 107.9 763.5 110.0 C 753.1 109.0 759.7 112.6 746.5 111.0 C 753.0 123.0 733.5 112.9 739.5 127.0 C 734.3 116.2 728.3 140.4 729.5 130.0 C 717.9 126.9 726.6 138.7 723.5 143.0 L 746.5 144.0 C 746.8 146.3 752.2 151.0 754.5 151.0 C 754.4 158.4 756.8 167.2 753.5 171.0 C 746.5 168.3 751.2 184.9 755.5 184.0 C 756.9 193.9 752.8 176.5 753.5 189.0 C 745.8 186.2 766.3 204.3 752.5 202.0 C 760.5 203.6 750.6 202.3 751.5 206.0 C 761.2 207.7 744.7 206.4 752.5 212.0 C 743.1 214.6 757.6 216.0 753.5 209.0 C 758.3 206.9 758.3 219.1 753.5 217.0 C 760.3 231.6 740.6 214.6 751.5 231.0 C 749.2 224.3 757.9 221.5 753.5 228.0 C 766.4 233.4 751.5 232.2 750.1 234.6 C 748.3 228.8 749.0 242.5 745.5 242.0 C 756.1 249.1 734.0 245.2 733.5 247.0 C 732.0 237.2 730.4 253.6 724.5 245.0 C 722.5 253.5 726.4 254.3 723.5 261.0 C 726.5 258.9 726.9 259.8 726.4 261.7 C 726.6 260.9 727.2 260.5 728.5 261.0 C 737.9 256.8 721.1 271.8 730.5 270.0 C 728.0 260.3 733.2 274.2 739.0 272.7 Z M 750.1 234.6 C 750.2 235.0 750.3 235.3 750.5 236.0 C 749.9 235.4 749.9 235.0 750.1 234.6 Z M 693.5 271.4 C 694.1 271.4 694.7 271.3 695.5 271.0 C 702.2 271.1 708.9 271.1 715.5 270.0 C 714.7 266.2 725.4 252.3 717.5 251.0 C 723.9 239.9 704.6 249.8 701.5 247.0 C 702.4 244.3 696.4 243.8 698.5 247.0 C 692.7 242.5 691.5 247.2 688.5 249.0 C 698.2 246.9 685.2 271.7 693.5 271.4 Z M 726.2 271.2 C 728.0 270.4 725.9 264.8 726.2 262.2 C 725.1 265.7 721.8 271.9 724.5 271.0 C 725.3 271.3 725.8 271.4 726.2 271.2 Z M 670.2 258.0 C 667.3 250.3 675.4 259.4 675.5 255.0 C 686.9 238.2 651.4 254.0 661.5 243.0 C 656.2 236.0 661.3 221.3 659.5 212.0 C 652.6 215.6 659.7 203.6 656.5 203.0 C 667.9 197.8 645.0 199.6 651.5 193.0 C 661.5 188.6 641.3 188.2 651.5 179.0 C 655.5 180.8 651.7 176.4 651.5 176.0 C 648.6 159.7 658.2 191.2 654.5 167.0 C 651.2 178.5 650.1 159.4 651.5 160.0 C 654.9 160.0 647.3 144.9 660.5 151.0 C 667.2 136.3 649.8 145.7 644.5 143.0 L 643.5 159.0 C 644.8 157.4 631.3 156.4 635.5 163.0 C 630.0 162.5 641.0 169.3 632.5 166.0 C 635.1 170.5 638.2 166.3 643.5 168.0 C 649.3 179.3 635.3 170.2 634.5 177.0 C 614.5 186.1 652.1 185.0 632.5 189.0 C 640.4 190.6 631.9 206.5 634.5 212.0 C 634.2 210.3 632.2 207.0 631.5 207.0 C 635.0 214.4 631.0 226.5 635.5 232.0 C 629.1 251.9 652.1 226.6 643.5 247.0 C 657.0 241.3 645.6 254.3 652.5 255.0 C 649.3 258.5 664.1 252.5 667.5 255.0 C 667.5 255.8 668.8 257.1 670.2 258.0 Z M 656.5 203.0 C 656.2 202.9 656.0 202.8 655.5 203.0 C 643.8 205.1 659.1 194.2 656.5 203.0 Z M 818.0 241.6 C 818.3 241.5 818.7 241.4 819.5 241.0 C 826.0 235.9 832.7 243.2 835.5 238.0 C 850.5 229.3 832.3 239.9 835.5 234.0 C 835.6 235.8 842.1 225.0 841.5 233.0 C 843.0 226.6 846.5 234.5 847.5 232.0 C 856.5 232.3 860.7 231.1 863.5 223.0 C 872.9 223.2 879.8 227.3 876.5 216.0 C 890.5 220.4 878.5 197.0 882.5 191.0 L 899.5 191.0 C 888.2 180.1 907.7 182.7 900.5 180.0 C 902.8 174.9 895.6 157.2 901.5 156.0 C 894.2 153.5 903.4 150.4 901.5 147.0 C 899.5 142.7 898.0 135.4 901.5 130.0 C 888.9 127.5 911.1 124.8 899.5 125.0 C 905.1 124.3 895.5 122.2 900.8 120.2 C 898.6 119.6 901.1 97.5 901.5 108.0 C 906.5 110.0 903.1 100.0 899.5 102.0 C 907.8 87.7 887.9 101.6 892.5 91.0 C 895.7 96.2 896.5 83.1 894.5 90.0 C 889.5 86.5 904.0 80.4 892.5 84.0 C 893.5 92.5 879.2 85.8 882.1 79.2 C 878.6 81.4 870.3 75.8 867.5 79.0 C 867.2 85.2 864.5 87.8 856.5 87.0 C 862.5 87.0 853.0 79.5 853.5 85.0 C 848.0 87.3 832.3 87.3 830.5 91.0 C 840.7 99.4 820.8 90.9 819.5 95.0 L 818.5 235.0 C 826.1 235.4 816.4 241.8 818.0 241.6 Z M 753.8 239.3 C 753.1 239.5 752.0 239.4 750.5 239.0 C 750.1 227.6 759.4 238.5 753.8 239.3 Z M 688.5 142.3 C 696.8 143.2 708.7 140.8 716.5 141.9 L 715.5 134.0 C 725.9 129.9 699.5 119.6 707.5 134.0 C 697.2 135.1 694.8 133.2 684.5 134.0 C 686.5 143.1 682.3 138.5 677.8 136.8 C 681.8 136.1 683.4 135.6 672.5 136.0 C 675.2 131.4 664.0 135.4 670.5 136.0 C 655.0 139.8 680.4 138.3 681.5 140.0 C 683.2 141.4 685.6 142.1 688.5 142.3 Z M 677.8 136.8 C 675.8 137.2 674.2 137.5 671.5 138.0 C 673.3 135.7 675.6 136.0 677.8 136.8 Z M 643.8 135.3 C 644.1 135.4 644.3 135.3 644.5 135.0 L 653.0 135.0 C 650.6 133.0 649.7 127.4 653.5 129.0 C 651.2 126.0 657.8 126.0 655.5 129.0 C 660.5 126.7 674.6 127.9 683.5 127.0 C 683.5 125.7 684.8 123.0 685.5 123.0 C 678.3 121.7 694.6 114.8 690.5 122.0 C 696.4 123.1 687.6 112.7 693.5 111.0 C 686.4 112.4 688.5 107.9 683.5 111.0 C 694.2 95.4 667.5 107.4 667.2 102.3 C 665.6 107.3 659.3 98.8 664.5 101.0 C 671.9 94.4 659.3 101.7 661.5 95.0 C 658.6 94.2 646.2 89.7 650.5 102.0 C 644.7 90.2 641.3 113.4 640.5 104.0 C 636.2 99.6 640.8 107.6 636.5 105.0 C 632.4 112.2 642.1 104.3 635.5 113.0 C 629.8 108.5 637.2 124.6 630.5 122.0 C 628.0 135.9 638.3 116.3 633.5 114.0 C 640.6 111.9 630.5 127.0 635.5 127.0 C 639.8 124.5 642.2 134.6 643.8 135.3 Z M 559.6 98.5 C 559.0 98.5 558.3 98.3 557.5 98.0 C 553.8 94.9 561.1 88.3 555.5 87.0 C 557.3 82.2 555.3 74.7 557.5 74.0 C 555.7 71.9 554.8 45.8 557.5 58.0 C 563.6 46.8 560.8 69.9 563.5 71.0 C 563.3 71.4 553.8 73.9 561.5 74.0 C 554.4 82.8 570.8 72.9 562.5 83.0 C 555.6 73.6 568.7 99.1 559.6 98.5 Z M 514.9 95.4 C 514.6 95.4 514.1 95.3 513.5 95.0 C 511.9 93.5 509.7 79.8 509.5 92.0 C 502.4 94.1 512.5 79.0 507.5 79.0 C 515.9 78.6 509.5 75.3 509.5 73.0 C 499.8 74.9 512.5 54.4 508.5 70.0 C 511.1 72.7 512.0 69.6 511.7 66.6 C 511.6 66.7 512.1 66.9 512.0 67.0 L 512.0 66.5 C 511.7 64.2 510.4 61.9 508.5 62.0 C 508.4 57.1 508.8 54.8 509.2 54.0 L 510.2 54.0 C 511.3 55.3 512.5 60.3 512.3 63.8 L 514.5 55.0 L 515.5 81.0 C 523.4 70.3 516.9 92.1 518.5 92.0 C 513.1 88.9 517.1 95.3 514.9 95.4 Z M 620.7 58.0 C 619.7 58.1 619.1 57.4 619.5 55.0 C 620.7 54.3 621.6 54.1 622.3 54.0 L 623.1 54.0 C 624.3 54.2 624.7 55.5 624.9 56.9 C 624.9 55.9 622.4 58.0 620.7 58.0 Z M 620.7 58.0 "></path></clipPath><g clip-path="url(#clip0x6080012b66e0)"><image xlink:href="6DE1FD0DD5414A2C9C78EBDD416576DD.jpeg" width="535.00" height="505.00" transform="matrix(1.00, 0.00, -0.00, -1.00, 483.5, 559.0)"></image></g></g></g></g></g></svg>