<?xml version="1.0" encoding="UTF-8" standalone="no"?><svg xmlns="http://www.w3.org/2000/svg" xmlns:xlink="http://www.w3.org/1999/xlink" clip-rule="evenodd" stroke-miterlimit="10" viewBox="0 0 1024 768"><desc>SVG generated by Keynote</desc><defs><linearGradient id="gradSh1.3" x1="0.0" y1="0.0" x2="100.0" y2="0.0" gradientUnits="userSpaceOnUse" gradientTransform="matrix(0.00, -0.31, -0.31, 0.00, 806.5, 512.0)"><stop offset="0.00000" stop-color="#86B8C1"></stop><stop offset="0.00367" stop-color="#86B8C0"></stop><stop offset="0.10850" stop-color="#7FB2BA"></stop><stop offset="0.11877" stop-color="#7FB1BA"></stop><stop offset="1.00000" stop-color="#497E87"></stop></linearGradient><linearGradient id="gradSh1.4" x1="0.0" y1="0.0" x2="100.0" y2="0.0" gradientUnits="userSpaceOnUse" gradientTransform="matrix(0.00, -0.31, -0.31, 0.00, 806.5, 372.0)"><stop offset="0.00000" stop-color="#86B8C1"></stop><stop offset="0.00367" stop-color="#86B8C0"></stop><stop offset="0.10850" stop-color="#7FB2BA"></stop><stop offset="0.11877" stop-color="#7FB1BA"></stop><stop offset="1.00000" stop-color="#497E87"></stop></linearGradient><linearGradient id="gradSh1.5" x1="0.0" y1="0.0" x2="100.0" y2="0.0" gradientUnits="userSpaceOnUse" gradientTransform="matrix(0.00, -0.31, -0.31, 0.00, 806.5, 124.0)"><stop offset="0.00000" stop-color="#86B8C1"></stop><stop offset="0.00367" stop-color="#86B8C0"></stop><stop offset="0.10850" stop-color="#7FB2BA"></stop><stop offset="0.11877" stop-color="#7FB1BA"></stop><stop offset="1.00000" stop-color="#497E87"></stop></linearGradient></defs><g transform="matrix(1.00, 0.00, -0.00, -1.00, 0.0, 768.0)"><g><clipPath id="clip0x6000014b3200"><path d="M 0.0 768.0 L 1024.0 768.0 L 1024.0 0.0 L 0.0 0.0 Z M 0.0 768.0 "></path></clipPath><g clip-path="url(#clip0x6000014b3200)"><image xlink:href="../../AA67522E-33CB-4827-90AD-B35304285A38/assets/527288347077A8BC66C9A53B775387A8.jpeg" width="2048.00" height="1536.00" transform="matrix(0.50, 0.00, -0.00, -0.50, 0.0, 768.0)"></image></g></g><text xml:space="preserve" font-family="GillSans-Light,Gill Sans" font-size="72.0" fill="#525252" transform="matrix(1.00, 0.00, -0.00, -1.00, 233.4, 628.2)">W</text><text xml:space="preserve" font-family="GillSans-Light,Gill Sans" font-size="72.0" fill="#525252" transform="matrix(1.00, 0.00, -0.00, -1.00, 304.7, 628.2)">O</text><text xml:space="preserve" font-family="GillSans-Light,Gill Sans" font-size="72.0" fill="#525252" transform="matrix(1.00, 0.00, -0.00, -1.00, 364.0, 628.2)">R</text><text xml:space="preserve" font-family="GillSans-Light,Gill Sans" font-size="72.0" fill="#525252" transform="matrix(1.00, 0.00, -0.00, -1.00, 405.3, 628.2)">K</text><text xml:space="preserve" font-family="GillSans-Light,Gill Sans" font-size="72.0" fill="#525252" transform="matrix(1.00, 0.00, -0.00, -1.00, 443.5, 628.2)"> </text><text xml:space="preserve" font-family="GillSans-Light,Gill Sans" font-size="72.0" fill="#525252" transform="matrix(1.00, 0.00, -0.00, -1.00, 456.3, 628.2)">W</text><text xml:space="preserve" font-family="GillSans-Light,Gill Sans" font-size="72.0" fill="#525252" transform="matrix(1.00, 0.00, -0.00, -1.00, 530.5, 628.2)">I</text><text xml:space="preserve" font-family="GillSans-Light,Gill Sans" font-size="72.0" fill="#525252" transform="matrix(1.00, 0.00, -0.00, -1.00, 545.4, 628.2)">T</text><text xml:space="preserve" font-family="GillSans-Light,Gill Sans" font-size="72.0" fill="#525252" transform="matrix(1.00, 0.00, -0.00, -1.00, 586.7, 628.2)">H</text><text xml:space="preserve" font-family="GillSans-Light,Gill Sans" font-size="72.0" fill="#525252" transform="matrix(1.00, 0.00, -0.00, -1.00, 638.5, 628.2)"> </text><text xml:space="preserve" font-family="GillSans-Light,Gill Sans" font-size="72.0" fill="#525252" transform="matrix(1.00, 0.00, -0.00, -1.00, 658.5, 628.2)">S</text><text xml:space="preserve" font-family="GillSans-Light,Gill Sans" font-size="72.0" fill="#525252" transform="matrix(1.00, 0.00, -0.00, -1.00, 692.3, 628.2)">V</text><text xml:space="preserve" font-family="GillSans-Light,Gill Sans" font-size="72.0" fill="#525252" transform="matrix(1.00, 0.00, -0.00, -1.00, 735.1, 628.2)">N</text><image xlink:href="../../1BE07342-73D2-4CCA-A88B-3B071AF56A27/assets/F5F8ACDB3ED0883DB2F1EAF0FAD7DE02.png" width="611.00" height="815.00" transform="matrix(0.71, 0.00, -0.00, -0.71, 119.6, 579.0)"></image><g><clipPath id="clip0x6000018b45e0"><path d="M 816.8 506.8 C 822.4 501.1 822.4 491.9 816.8 486.2 C 811.1 480.6 801.9 480.6 796.2 486.2 C 790.6 491.9 790.6 501.1 796.2 506.8 C 801.9 512.4 811.1 512.4 816.8 506.8 "></path></clipPath><g clip-path="url(#clip0x6000018b45e0)"><path d="M 816.8 506.8 C 822.4 501.1 822.4 491.9 816.8 486.2 C 811.1 480.6 801.9 480.6 796.2 486.2 C 790.6 491.9 790.6 501.1 796.2 506.8 C 801.9 512.4 811.1 512.4 816.8 506.8 " fill="url(#gradSh1.3)"></path></g></g><text xml:space="preserve" font-family="GillSans-Light,Gill Sans" font-size="36.0" fill="#525252" transform="matrix(1.00, 0.00, -0.00, -1.00, 784.1, 555.1)">s</text><text xml:space="preserve" font-family="GillSans-Light,Gill Sans" font-size="36.0" fill="#525252" transform="matrix(1.00, 0.00, -0.00, -1.00, 796.9, 555.1)">v</text><text xml:space="preserve" font-family="GillSans-Light,Gill Sans" font-size="36.0" fill="#525252" transform="matrix(1.00, 0.00, -0.00, -1.00, 812.2, 555.1)">n</text><path d="M 0.0 0.0 L 19.8 0.0 L 20.8 0.0 " fill="none" stroke="#595E5D" stroke-width="2.00" transform="matrix(0.02, -1.00, -1.00, -0.02, 807.1, 538.0)"></path><path d="M 802.7 520.5 L 807.7 511.0 L 812.3 520.7 L 807.5 518.2 Z M 802.7 520.5 " fill="#595E5D"></path><path d="M 0.0 0.0 L 103.8 0.0 L 104.8 0.0 " fill="none" stroke="#595E5D" stroke-width="2.00" transform="matrix(0.01, -1.00, -1.00, -0.01, 807.2, 481.5)"></path><path d="M 803.6 380.0 L 808.5 370.5 L 813.2 380.2 L 808.4 377.7 Z M 803.6 380.0 " fill="#595E5D"></path><g><clipPath id="clip0x600001ab4e80"><path d="M 816.8 366.8 C 822.4 361.1 822.4 351.9 816.8 346.2 C 811.1 340.6 801.9 340.6 796.2 346.2 C 790.6 351.9 790.6 361.1 796.2 366.8 C 801.9 372.4 811.1 372.4 816.8 366.8 "></path></clipPath><g clip-path="url(#clip0x600001ab4e80)"><path d="M 816.8 366.8 C 822.4 361.1 822.4 351.9 816.8 346.2 C 811.1 340.6 801.9 340.6 796.2 346.2 C 790.6 351.9 790.6 361.1 796.2 366.8 C 801.9 372.4 811.1 372.4 816.8 366.8 " fill="url(#gradSh1.4)"></path></g></g><path d="M 0.0 0.0 L 211.8 0.0 L 212.8 0.0 " fill="none" stroke="#595E5D" stroke-width="2.00" transform="matrix(0.01, -1.00, -1.00, -0.01, 807.5, 341.5)"></path><path d="M 803.9 132.1 L 808.8 122.5 L 813.5 132.1 L 808.7 129.7 Z M 803.9 132.1 " fill="#595E5D"></path><g><clipPath id="clip0x600001cb5240"><path d="M 816.8 118.8 C 822.4 113.1 822.4 103.9 816.8 98.2 C 811.1 92.6 801.9 92.6 796.2 98.2 C 790.6 103.9 790.6 113.1 796.2 118.8 C 801.9 124.4 811.1 124.4 816.8 118.8 "></path></clipPath><g clip-path="url(#clip0x600001cb5240)"><path d="M 816.8 118.8 C 822.4 113.1 822.4 103.9 816.8 98.2 C 811.1 92.6 801.9 92.6 796.2 98.2 C 790.6 103.9 790.6 113.1 796.2 118.8 C 801.9 124.4 811.1 124.4 816.8 118.8 " fill="url(#gradSh1.5)"></path></g></g><path d="M 0.0 0.0 L 68.1 0.0 L 69.1 0.0 " fill="none" stroke="#595E5D" stroke-width="2.00" transform="matrix(0.00, -1.00, -1.00, -0.00, 807.2, 90.8)"></path><path d="M 802.7 25.1 L 807.5 15.5 L 812.3 25.1 L 807.5 22.7 Z M 802.7 25.1 " fill="#595E5D"></path><path d="M 0.0 0.0 L 226.4 0.0 L 227.4 0.0 " fill="none" stroke="#595E5D" stroke-width="2.00" transform="matrix(1.00, -0.03, -0.03, -1.00, 559.1, 504.2)"></path><path d="M 782.8 492.6 L 792.6 497.1 L 783.1 502.2 L 785.4 497.3 Z M 782.8 492.6 " fill="#595E5D"></path><path d="M 0.0 0.0 L 226.4 0.0 L 227.4 0.0 " fill="none" stroke="#595E5D" stroke-width="2.00" transform="matrix(1.00, -0.03, -0.03, -1.00, 558.1, 363.6)"></path><path d="M 781.8 351.9 L 791.5 356.4 L 782.1 361.5 L 784.3 356.7 Z M 781.8 351.9 " fill="#595E5D"></path><path d="M 0.0 0.0 L 226.4 0.0 L 227.4 0.0 " fill="none" stroke="#595E5D" stroke-width="2.00" transform="matrix(1.00, -0.03, -0.03, -1.00, 558.1, 115.6)"></path><path d="M 781.8 103.9 L 791.5 108.4 L 782.1 113.5 L 784.3 108.7 Z M 781.8 103.9 " fill="#595E5D"></path></g></svg>