<?xml version="1.0" encoding="UTF-8" standalone="no"?><svg xmlns="http://www.w3.org/2000/svg" xmlns:xlink="http://www.w3.org/1999/xlink" clip-rule="evenodd" stroke-miterlimit="10" viewBox="0 0 1024 768"><desc>SVG generated by Keynote</desc><defs><radialGradient id="gradSh1.49" cx="0.0" cy="0.0" r="100.0" fx="0.0" fy="0.0" gradientUnits="userSpaceOnUse" gradientTransform="matrix(5.13, -3.85, -3.85, -5.13, 512.0, 384.0)"><stop offset="0.00000" stop-color="#565957"></stop><stop offset="0.00587" stop-color="#555957"></stop><stop offset="0.27419" stop-color="#3E413F"></stop><stop offset="0.27859" stop-color="#3E403F"></stop><stop offset="0.63416" stop-color="#1F2120"></stop><stop offset="0.63636" stop-color="#1F2020"></stop><stop offset="0.64003" stop-color="#1F201F"></stop><stop offset="0.64516" stop-color="#1E201F"></stop><stop offset="0.64809" stop-color="#1E1F1F"></stop><stop offset="0.65176" stop-color="#1E1F1E"></stop><stop offset="0.82038" stop-color="#0F1010"></stop><stop offset="0.82331" stop-color="#0F100F"></stop><stop offset="0.82698" stop-color="#0F0F0F"></stop><stop offset="0.83138" stop-color="#0E0F0F"></stop><stop offset="0.91496" stop-color="#070807"></stop><stop offset="0.91642" stop-color="#070707"></stop><stop offset="0.92449" stop-color="#060707"></stop><stop offset="0.96041" stop-color="#030403"></stop><stop offset="0.96114" stop-color="#030303"></stop><stop offset="0.97141" stop-color="#020303"></stop><stop offset="0.98314" stop-color="#010201"></stop><stop offset="0.98387" stop-color="#010101"></stop><stop offset="0.99487" stop-color="#000000"></stop><stop offset="1.00000" stop-color="#000000"></stop></radialGradient></defs><g transform="matrix(1.00, 0.00, -0.00, -1.00, 0.0, 768.0)"><g><clipPath id="clip0x60800c0ab9a0"><path d="M 0.0 768.0 L 1024.0 768.0 L 1024.0 0.0 L 0.0 0.0 Z M 0.0 768.0 "></path></clipPath><g clip-path="url(#clip0x60800c0ab9a0)"><path d="M 0.0 768.0 L 1024.0 768.0 L 1024.0 0.0 L 0.0 0.0 Z M 0.0 768.0 " fill="url(#gradSh1.49)"></path></g></g><image xlink:href="../../9EF3409B-2351-49DE-BC9C-3619C0195A09/assets/45136A0AE888A7F342B5F8ECE51408AC.png" width="371.00" height="74.00" transform="matrix(1.00, 0.00, -0.00, -1.00, 67.0, 677.0)"></image><text xml:space="preserve" font-family="HelveticaNeue-Light,Helvetica Neue" font-size="72.0" fill="#FEFFFE" transform="matrix(1.00, 0.00, -0.00, -1.00, 66.0, 624.4)">D</text><text xml:space="preserve" font-family="HelveticaNeue-Light,Helvetica Neue" font-size="72.0" fill="#FEFFFE" transform="matrix(1.00, 0.00, -0.00, -1.00, 115.3, 624.4)">e</text><text xml:space="preserve" font-family="HelveticaNeue-Light,Helvetica Neue" font-size="72.0" fill="#FEFFFE" transform="matrix(1.00, 0.00, -0.00, -1.00, 152.7, 624.4)">m</text><text xml:space="preserve" font-family="HelveticaNeue-Light,Helvetica Neue" font-size="72.0" fill="#FEFFFE" transform="matrix(1.00, 0.00, -0.00, -1.00, 212.7, 624.4)">o</text><text xml:space="preserve" font-family="HelveticaNeue-Light,Helvetica Neue" font-size="72.0" fill="#FEFFFE" transform="matrix(1.00, 0.00, -0.00, -1.00, 252.7, 624.4)"> </text><text xml:space="preserve" font-family="HelveticaNeue-Light,Helvetica Neue" font-size="72.0" fill="#FEFFFE" transform="matrix(1.00, 0.00, -0.00, -1.00, 272.7, 624.4)">A</text><text xml:space="preserve" font-family="HelveticaNeue-Light,Helvetica Neue" font-size="72.0" fill="#FEFFFE" transform="matrix(1.00, 0.00, -0.00, -1.00, 318.1, 624.4)">p</text><text xml:space="preserve" font-family="HelveticaNeue-Light,Helvetica Neue" font-size="72.0" fill="#FEFFFE" transform="matrix(1.00, 0.00, -0.00, -1.00, 359.4, 624.4)">p</text><text xml:space="preserve" font-family="HelveticaNeue-Light,Helvetica Neue" font-size="72.0" fill="#FEFFFE" transform="matrix(1.00, 0.00, -0.00, -1.00, 400.7, 624.4)">s</text><image xlink:href="../../C498E857-9059-4214-803B-FB7F455B195A/assets/EFDBAD4F4D4346BEFBA0235E61BFD3F9.png" width="13.00" height="14.00" transform="matrix(1.00, 0.00, -0.00, -1.00, 66.0, 329.0)"></image><g><clipPath id="clip0x60800c2abf40"><path d="M 66.0 315.9 L 78.7 315.9 L 78.7 328.7 L 66.0 328.7 Z M 66.0 315.9 "></path></clipPath><g clip-path="url(#clip0x60800c2abf40)"><g><g><clipPath id="clip0x60800c2ac3c0"><path d="M 66.0 328.7 L 78.7 328.7 L 78.7 315.9 L 66.0 315.9 Z M 66.0 328.7 "></path></clipPath><g clip-path="url(#clip0x60800c2ac3c0)"><g><clipPath id="clip0x60800c2ac540"><path d="M 62.0 308.0 L 83.0 308.0 L 83.0 336.0 L 62.0 336.0 Z M 62.0 308.0 "></path></clipPath><g clip-path="url(#clip0x60800c2ac540)"><path d="M 78.7 326.1 C 78.7 326.7 78.4 327.2 77.9 327.8 C 77.4 328.4 76.8 328.7 76.1 328.7 C 75.9 328.7 75.4 328.5 74.8 328.2 C 73.8 327.7 73.0 327.5 72.3 327.5 C 71.6 327.5 70.8 327.7 69.8 328.2 C 69.2 328.5 68.8 328.7 68.5 328.7 C 67.9 328.7 67.3 328.4 66.8 327.8 C 66.3 327.3 66.0 326.7 66.0 326.1 C 66.0 325.8 66.1 325.3 66.4 324.7 C 66.9 323.8 67.1 323.0 67.1 322.3 C 67.1 321.6 66.9 320.8 66.4 319.8 C 66.1 319.2 66.0 318.8 66.0 318.5 C 66.0 317.9 66.3 317.3 66.8 316.7 C 67.3 316.2 67.9 315.9 68.5 315.9 C 68.8 315.9 69.2 316.1 69.8 316.4 C 70.8 316.8 71.6 317.1 72.3 317.1 C 73.0 317.1 73.8 316.8 74.8 316.4 C 75.4 316.1 75.9 315.9 76.1 315.9 C 76.8 315.9 77.4 316.2 77.9 316.7 C 78.4 317.3 78.7 317.9 78.7 318.5 C 78.7 318.8 78.5 319.2 78.2 319.8 C 77.8 320.8 77.5 321.6 77.5 322.3 C 77.5 323.0 77.8 323.8 78.2 324.7 C 78.5 325.3 78.7 325.8 78.7 326.1 " fill="#FFFFFF"></path></g></g></g></g></g></g></g><image xlink:href="../../9EF3409B-2351-49DE-BC9C-3619C0195A09/assets/710880E7A0F03058A5B496656803625D.png" width="301.00" height="42.00" transform="matrix(1.00, 0.00, -0.00, -1.00, 99.0, 338.0)"></image><text xml:space="preserve" font-family="HelveticaNeue-Light,Helvetica Neue" font-size="36.0" fill="#FEFFFE" transform="matrix(1.00, 0.00, -0.00, -1.00, 101.0, 310.7)">b</text><text xml:space="preserve" font-family="HelveticaNeue-Light,Helvetica Neue" font-size="36.0" fill="#FEFFFE" transform="matrix(1.00, 0.00, -0.00, -1.00, 121.7, 310.7)">i</text><text xml:space="preserve" font-family="HelveticaNeue-Light,Helvetica Neue" font-size="36.0" fill="#FEFFFE" transform="matrix(1.00, 0.00, -0.00, -1.00, 128.3, 310.7)">t</text><text xml:space="preserve" font-family="HelveticaNeue-Light,Helvetica Neue" font-size="36.0" fill="#FEFFFE" transform="matrix(1.00, 0.00, -0.00, -1.00, 139.0, 310.7)">.</text><text xml:space="preserve" font-family="HelveticaNeue-Light,Helvetica Neue" font-size="36.0" fill="#FEFFFE" transform="matrix(1.00, 0.00, -0.00, -1.00, 149.0, 310.7)">l</text><text xml:space="preserve" font-family="HelveticaNeue-Light,Helvetica Neue" font-size="36.0" fill="#FEFFFE" transform="matrix(1.00, 0.00, -0.00, -1.00, 155.6, 310.7)">y</text><text xml:space="preserve" font-family="HelveticaNeue-Light,Helvetica Neue" font-size="36.0" fill="#FEFFFE" transform="matrix(1.00, 0.00, -0.00, -1.00, 172.3, 310.7)">/</text><text xml:space="preserve" font-family="HelveticaNeue-Light,Helvetica Neue" font-size="36.0" fill="#FEFFFE" transform="matrix(1.00, 0.00, -0.00, -1.00, 184.3, 310.7)">y</text><text xml:space="preserve" font-family="HelveticaNeue-Light,Helvetica Neue" font-size="36.0" fill="#FEFFFE" transform="matrix(1.00, 0.00, -0.00, -1.00, 201.0, 310.7)">e</text><text xml:space="preserve" font-family="HelveticaNeue-Light,Helvetica Neue" font-size="36.0" fill="#FEFFFE" transform="matrix(1.00, 0.00, -0.00, -1.00, 219.7, 310.7)">o</text><text xml:space="preserve" font-family="HelveticaNeue-Light,Helvetica Neue" font-size="36.0" fill="#FEFFFE" transform="matrix(1.00, 0.00, -0.00, -1.00, 239.7, 310.7)">m</text><text xml:space="preserve" font-family="HelveticaNeue-Light,Helvetica Neue" font-size="36.0" fill="#FEFFFE" transform="matrix(1.00, 0.00, -0.00, -1.00, 269.7, 310.7)">a</text><text xml:space="preserve" font-family="HelveticaNeue-Light,Helvetica Neue" font-size="36.0" fill="#FEFFFE" transform="matrix(1.00, 0.00, -0.00, -1.00, 288.3, 310.7)">n</text><text xml:space="preserve" font-family="HelveticaNeue-Light,Helvetica Neue" font-size="36.0" fill="#FEFFFE" transform="matrix(1.00, 0.00, -0.00, -1.00, 307.7, 310.7)">d</text><text xml:space="preserve" font-family="HelveticaNeue-Light,Helvetica Neue" font-size="36.0" fill="#FEFFFE" transform="matrix(1.00, 0.00, -0.00, -1.00, 328.3, 310.7)">e</text><text xml:space="preserve" font-family="HelveticaNeue-Light,Helvetica Neue" font-size="36.0" fill="#FEFFFE" transform="matrix(1.00, 0.00, -0.00, -1.00, 347.0, 310.7)">m</text><text xml:space="preserve" font-family="HelveticaNeue-Light,Helvetica Neue" font-size="36.0" fill="#FEFFFE" transform="matrix(1.00, 0.00, -0.00, -1.00, 377.0, 310.7)">o</text><text xml:space="preserve" font-family="HelveticaNeue-Light,Helvetica Neue" font-size="36.0" fill="#FEFFFE" transform="matrix(1.00, 0.00, -0.00, -1.00, 397.0, 310.7)"> </text><g><clipPath id="clip0x60800c2acfc0"><path d="M 100.0 305.2 L 397.0 305.2 L 397.0 309.0 L 100.0 309.0 Z M 100.0 305.2 "></path></clipPath><g clip-path="url(#clip0x60800c2acfc0)"><path d="M 39.0 242.9 L 335.0 242.9 " fill="none" stroke="#FEFFFE" stroke-width="1.80" transform="matrix(1.00, 0.00, 0.00, -1.00, 62.0, 550.0)"></path></g></g></g></svg>